<svg width="698" height="421" viewBox="0 0 698 421" fill="none" xmlns="http://www.w3.org/2000/svg">
<rect width="698" height="421" fill="#101010"/>
<mask id="mask0" mask-type="alpha" maskUnits="userSpaceOnUse" x="0" y="0" width="698" height="421">
<rect width="698" height="421" fill="#101010"/>
</mask>
<g mask="url(#mask0)">
<path opacity="0.3" d="M654.5 -5.1L655.5 -5.1L655.5 -6.1L654.5 -6.1L654.5 -5.1ZM609 -5.1L609 -6.1L608 -6.1L608 -5.1L609 -5.1ZM609 5.3L608 5.3L608 6.3L609 6.3L609 5.3ZM623.3 5.3L624.3 5.3L624.3 4.3L623.3 4.3L623.3 5.3ZM633.05 5.3L633.05 4.3L632.05 4.3L632.05 5.3L633.05 5.3ZM644.75 5.3L645.75 5.3L645.75 4.3L644.75 4.3L644.75 5.3ZM655.5 12.125L655.5 -5.1L653.5 -5.1L653.5 12.125L655.5 12.125ZM654.5 -6.1L609 -6.1L609 -4.1L654.5 -4.1L654.5 -6.1ZM608 -5.1L608 5.3L610 5.3L610 -5.1L608 -5.1ZM609 6.3L623.3 6.3L623.3 4.3L609 4.3L609 6.3ZM622.3 5.3L622.3 12.125L624.3 12.125L624.3 5.3L622.3 5.3ZM622.3 12.125C622.3 21.6337 629.689 29.05 638.9 29.05L638.9 27.05C630.821 27.05 624.3 20.5563 624.3 12.125L622.3 12.125ZM638.9 29.05C648.111 29.05 655.5 21.6338 655.5 12.125L653.5 12.125C653.5 20.5563 646.979 27.05 638.9 27.05L638.9 29.05ZM634.05 12.125L634.05 5.3L632.05 5.3L632.05 12.125L634.05 12.125ZM633.05 6.3L644.75 6.3L644.75 4.3L633.05 4.3L633.05 6.3ZM643.75 5.3L643.75 12.125L645.75 12.125L645.75 5.3L643.75 5.3ZM643.75 12.125C643.75 14.6984 641.724 16.65 638.9 16.65L638.9 18.65C642.706 18.65 645.75 15.9216 645.75 12.125L643.75 12.125ZM638.9 16.65C636.076 16.65 634.05 14.6984 634.05 12.125L632.05 12.125C632.05 15.9216 635.094 18.65 638.9 18.65L638.9 16.65ZM607.09 54.6325C607.09 68.2407 617.799 79.2925 631.75 79.2925L631.75 77.2925C618.921 77.2925 609.09 67.1542 609.09 54.6325L607.09 54.6325ZM631.75 79.2925C645.701 79.2925 656.41 68.2407 656.41 54.6325L654.41 54.6325C654.41 67.1542 644.579 77.2925 631.75 77.2925L631.75 79.2925ZM656.41 54.6325C656.41 41.0242 645.701 29.9725 631.75 29.9725L631.75 31.9725C644.579 31.9725 654.41 42.1107 654.41 54.6325L656.41 54.6325ZM631.75 29.9725C617.799 29.9725 607.09 41.0242 607.09 54.6325L609.09 54.6325C609.09 42.1107 618.921 31.9725 631.75 31.9725L631.75 29.9725ZM619.23 54.6325C619.23 47.7651 624.187 42.3725 631.75 42.3725L631.75 40.3725C623.063 40.3725 617.23 46.6799 617.23 54.6325L619.23 54.6325ZM631.75 42.3725C639.313 42.3725 644.27 47.7651 644.27 54.6325L646.27 54.6325C646.27 46.6799 640.437 40.3725 631.75 40.3725L631.75 42.3725ZM644.27 54.6325C644.27 61.4999 639.313 66.8925 631.75 66.8925L631.75 68.8925C640.437 68.8925 646.27 62.5851 646.27 54.6325L644.27 54.6325ZM631.75 66.8925C624.187 66.8925 619.23 61.4999 619.23 54.6325L617.23 54.6325C617.23 62.5851 623.063 68.8925 631.75 68.8925L631.75 66.8925ZM619.01 94.548L619.01 93.548L618.01 93.548L618.01 94.548L619.01 94.548ZM654.5 94.548L654.5 95.548L655.5 95.548L655.5 94.548L654.5 94.548ZM654.5 84.148L655.5 84.148L655.5 83.148L654.5 83.148L654.5 84.148ZM609 84.148L609 83.148L608 83.148L608 84.148L609 84.148ZM609 110.798L608 110.798L608 111.798L609 111.798L609 110.798ZM619.01 110.798L619.01 111.798L620.01 111.798L620.01 110.798L619.01 110.798ZM619.01 95.548L654.5 95.548L654.5 93.548L619.01 93.548L619.01 95.548ZM655.5 94.548L655.5 84.148L653.5 84.148L653.5 94.548L655.5 94.548ZM654.5 83.148L609 83.148L609 85.148L654.5 85.148L654.5 83.148ZM608 84.148L608 110.798L610 110.798L610 84.148L608 84.148ZM609 111.798L619.01 111.798L619.01 109.798L609 109.798L609 111.798ZM620.01 110.798L620.01 94.548L618.01 94.548L618.01 110.798L620.01 110.798ZM654.5 146.589L654.021 147.467L655.5 148.273L655.5 146.589L654.5 146.589ZM654.5 134.759L655.5 134.759L655.5 134.137L654.942 133.862L654.5 134.759ZM636.95 126.114L636.508 125.217L634.687 126.114L636.508 127.011L636.95 126.114ZM654.5 117.469L654.942 118.366L655.5 118.091L655.5 117.469L654.5 117.469ZM654.5 105.639L655.5 105.639L655.5 103.954L654.021 104.761L654.5 105.639ZM626.485 120.914L626.485 121.914L626.74 121.914L626.964 121.792L626.485 120.914ZM609 120.914L609 119.914L608 119.914L608 120.914L609 120.914ZM609 131.314L608 131.314L608 132.314L609 132.314L609 131.314ZM626.485 131.314L626.964 130.436L626.74 130.314L626.485 130.314L626.485 131.314ZM655.5 146.589L655.5 134.759L653.5 134.759L653.5 146.589L655.5 146.589ZM654.942 133.862L637.392 125.217L636.508 127.011L654.058 135.656L654.942 133.862ZM637.392 127.011L654.942 118.366L654.058 116.572L636.508 125.217L637.392 127.011ZM655.5 117.469L655.5 105.639L653.5 105.639L653.5 117.469L655.5 117.469ZM654.021 104.761L626.006 120.036L626.964 121.792L654.979 106.517L654.021 104.761ZM626.485 119.914L609 119.914L609 121.914L626.485 121.914L626.485 119.914ZM608 120.914L608 131.314L610 131.314L610 120.914L608 120.914ZM609 132.314L626.485 132.314L626.485 130.314L609 130.314L609 132.314ZM626.006 132.192L654.021 147.467L654.979 145.711L626.964 130.436L626.006 132.192ZM619.01 160.881L619.01 159.881L618.01 159.881L618.01 160.881L619.01 160.881ZM654.5 160.881L654.5 161.881L655.5 161.881L655.5 160.881L654.5 160.881ZM654.5 150.481L655.5 150.481L655.5 149.481L654.5 149.481L654.5 150.481ZM609 150.481L609 149.481L608 149.481L608 150.481L609 150.481ZM609 177.131L608 177.131L608 178.131L609 178.131L609 177.131ZM619.01 177.131L619.01 178.131L620.01 178.131L620.01 177.131L619.01 177.131ZM619.01 161.881L654.5 161.881L654.5 159.881L619.01 159.881L619.01 161.881ZM655.5 160.881L655.5 150.481L653.5 150.481L653.5 160.881L655.5 160.881ZM654.5 149.481L609 149.481L609 151.481L654.5 151.481L654.5 149.481ZM608 150.481L608 177.131L610 177.131L610 150.481L608 150.481ZM609 178.131L619.01 178.131L619.01 176.131L609 176.131L609 178.131ZM620.01 177.131L620.01 160.881L618.01 160.881L618.01 177.131L620.01 177.131ZM607.09 200.819C607.09 214.427 617.799 225.479 631.75 225.479L631.75 223.479C618.921 223.479 609.09 213.341 609.09 200.819L607.09 200.819ZM631.75 225.479C645.701 225.479 656.41 214.427 656.41 200.819L654.41 200.819C654.41 213.341 644.579 223.479 631.75 223.479L631.75 225.479ZM656.41 200.819C656.41 187.211 645.701 176.159 631.75 176.159L631.75 178.159C644.579 178.159 654.41 188.297 654.41 200.819L656.41 200.819ZM631.75 176.159C617.799 176.159 607.09 187.211 607.09 200.819L609.09 200.819C609.09 188.297 618.921 178.159 631.75 178.159L631.75 176.159ZM619.23 200.819C619.23 193.952 624.187 188.559 631.75 188.559L631.75 186.559C623.063 186.559 617.23 192.866 617.23 200.819L619.23 200.819ZM631.75 188.559C639.313 188.559 644.27 193.952 644.27 200.819L646.27 200.819C646.27 192.866 640.437 186.559 631.75 186.559L631.75 188.559ZM644.27 200.819C644.27 207.686 639.313 213.079 631.75 213.079L631.75 215.079C640.437 215.079 646.27 208.772 646.27 200.819L644.27 200.819ZM631.75 213.079C624.187 213.079 619.23 207.686 619.23 200.819L617.23 200.819C617.23 208.772 623.063 215.079 631.75 215.079L631.75 213.079ZM634.35 275.38L634.35 276.38L635.35 276.38L635.35 275.38L634.35 275.38ZM634.35 252.565L635.35 252.565L635.35 251.565L634.35 251.565L634.35 252.565ZM625.25 252.565L625.25 251.565L624.25 251.565L624.25 252.565L625.25 252.565ZM625.25 264.72L624.9 265.656L626.25 266.16L626.25 264.72L625.25 264.72ZM639.94 263.29L639.407 262.444L638.595 262.955L639.073 263.787L639.94 263.29ZM645.01 272.13L644.143 272.627L644.66 273.53L645.542 272.977L645.01 272.13ZM635.35 275.38L635.35 252.565L633.35 252.565L633.35 275.38L635.35 275.38ZM634.35 251.565L625.25 251.565L625.25 253.565L634.35 253.565L634.35 251.565ZM624.25 252.565L624.25 264.72L626.25 264.72L626.25 252.565L624.25 252.565ZM625.6 263.783C621.711 262.332 619.23 258.798 619.23 253.085L617.23 253.085C617.23 259.461 620.079 263.858 624.9 265.656L625.6 263.783ZM619.23 253.085C619.23 248.881 620.571 245.569 622.744 243.314C624.917 241.059 627.995 239.785 631.62 239.785L631.62 237.785C627.51 237.785 623.893 239.24 621.304 241.926C618.717 244.61 617.23 248.448 617.23 253.085L619.23 253.085ZM631.62 239.785C639.072 239.785 644.27 245.066 644.27 252.175L646.27 252.175C646.27 243.943 640.158 237.785 631.62 237.785L631.62 239.785ZM644.27 252.175C644.27 257.025 642.06 260.771 639.407 262.444L640.473 264.135C643.8 262.038 646.27 257.595 646.27 252.175L644.27 252.175ZM639.073 263.787L644.143 272.627L645.877 271.632L640.807 262.792L639.073 263.787ZM645.542 272.977C651.956 268.95 656.41 261.278 656.41 252.24L654.41 252.24C654.41 260.622 650.284 267.639 644.478 271.283L645.542 272.977ZM656.41 252.24C656.41 238.299 645.434 227.385 631.685 227.385L631.685 229.385C644.326 229.385 654.41 239.4 654.41 252.24L656.41 252.24ZM631.685 227.385C618.048 227.385 607.09 238.122 607.09 252.955L609.09 252.955C609.09 239.187 619.192 229.385 631.685 229.385L631.685 227.385ZM607.09 252.955C607.09 259.546 609.279 265.412 613.332 269.637C617.392 273.868 623.252 276.38 630.45 276.38L630.45 274.38C623.738 274.38 618.418 272.049 614.775 268.252C611.126 264.449 609.09 259.103 609.09 252.955L607.09 252.955ZM630.45 276.38L634.35 276.38L634.35 274.38L630.45 274.38L630.45 276.38Z" fill="white"/>
<path opacity="0.1" d="M563.5 171.125L563.5 153.9L518 153.9L518 164.3L532.3 164.3L532.3 171.125C532.3 180.095 539.255 187.05 547.9 187.05C556.545 187.05 563.5 180.095 563.5 171.125ZM542.05 171.125L542.05 164.3L553.75 164.3L553.75 171.125C553.75 174.31 551.215 176.65 547.9 176.65C544.585 176.65 542.05 174.31 542.05 171.125ZM517.09 213.632C517.09 226.697 527.36 237.292 540.75 237.292C554.14 237.292 564.41 226.697 564.41 213.632C564.41 200.567 554.14 189.972 540.75 189.972C527.36 189.972 517.09 200.567 517.09 213.632ZM527.23 213.632C527.23 206.222 532.625 200.372 540.75 200.372C548.875 200.372 554.27 206.222 554.27 213.632C554.27 221.042 548.875 226.892 540.75 226.892C532.625 226.892 527.23 221.042 527.23 213.632ZM528.01 253.548L563.5 253.548L563.5 243.148L518 243.148L518 269.798L528.01 269.798L528.01 253.548ZM563.5 305.589L563.5 293.759L545.95 285.114L563.5 276.469L563.5 264.639L535.485 279.914L518 279.914L518 290.314L535.485 290.314L563.5 305.589ZM528.01 319.881L563.5 319.881L563.5 309.481L518 309.481L518 336.131L528.01 336.131L528.01 319.881ZM517.09 359.819C517.09 372.884 527.36 383.479 540.75 383.479C554.14 383.479 564.41 372.884 564.41 359.819C564.41 346.754 554.14 336.159 540.75 336.159C527.36 336.159 517.09 346.754 517.09 359.819ZM527.23 359.819C527.23 352.409 532.625 346.559 540.75 346.559C548.875 346.559 554.27 352.409 554.27 359.819C554.27 367.229 548.875 373.079 540.75 373.079C532.625 373.079 527.23 367.229 527.23 359.819ZM543.35 434.38L543.35 411.565L534.25 411.565L534.25 423.72C529.895 422.095 527.23 418.13 527.23 412.085C527.23 403.245 532.885 397.785 540.62 397.785C548.615 397.785 554.27 403.505 554.27 411.175C554.27 416.31 551.93 420.405 548.94 422.29L554.01 431.13C560.12 427.295 564.41 419.95 564.41 411.24C564.41 397.85 553.88 387.385 540.685 387.385C527.62 387.385 517.09 397.655 517.09 411.955C517.09 424.695 525.54 434.38 539.45 434.38L543.35 434.38Z" fill="#C4C4C4"/>
<path opacity="0.1" d="M336.5 171.125L336.5 153.9L291 153.9L291 164.3L305.3 164.3L305.3 171.125C305.3 180.095 312.255 187.05 320.9 187.05C329.545 187.05 336.5 180.095 336.5 171.125ZM315.05 171.125L315.05 164.3L326.75 164.3L326.75 171.125C326.75 174.31 324.215 176.65 320.9 176.65C317.585 176.65 315.05 174.31 315.05 171.125ZM290.09 213.632C290.09 226.697 300.36 237.292 313.75 237.292C327.14 237.292 337.41 226.697 337.41 213.632C337.41 200.567 327.14 189.972 313.75 189.972C300.36 189.972 290.09 200.567 290.09 213.632ZM300.23 213.632C300.23 206.222 305.625 200.372 313.75 200.372C321.875 200.372 327.27 206.222 327.27 213.632C327.27 221.042 321.875 226.892 313.75 226.892C305.625 226.892 300.23 221.042 300.23 213.632ZM301.01 253.548L336.5 253.548L336.5 243.148L291 243.148L291 269.798L301.01 269.798L301.01 253.548ZM336.5 305.589L336.5 293.759L318.95 285.114L336.5 276.469L336.5 264.639L308.485 279.914L291 279.914L291 290.314L308.485 290.314L336.5 305.589ZM301.01 319.881L336.5 319.881L336.5 309.481L291 309.481L291 336.131L301.01 336.131L301.01 319.881ZM290.09 359.819C290.09 372.884 300.36 383.479 313.75 383.479C327.14 383.479 337.41 372.884 337.41 359.819C337.41 346.754 327.14 336.159 313.75 336.159C300.36 336.159 290.09 346.754 290.09 359.819ZM300.23 359.819C300.23 352.409 305.625 346.559 313.75 346.559C321.875 346.559 327.27 352.409 327.27 359.819C327.27 367.229 321.875 373.079 313.75 373.079C305.625 373.079 300.23 367.229 300.23 359.819ZM316.35 434.38L316.35 411.565L307.25 411.565L307.25 423.72C302.895 422.095 300.23 418.13 300.23 412.085C300.23 403.245 305.885 397.785 313.62 397.785C321.615 397.785 327.27 403.505 327.27 411.175C327.27 416.31 324.93 420.405 321.94 422.29L327.01 431.13C333.12 427.295 337.41 419.95 337.41 411.24C337.41 397.85 326.88 387.385 313.685 387.385C300.62 387.385 290.09 397.655 290.09 411.955C290.09 424.695 298.54 434.38 312.45 434.38L316.35 434.38Z" fill="#C4C4C4"/>
<path opacity="0.3" d="M360.5 -5.1L361.5 -5.1L361.5 -6.1L360.5 -6.1L360.5 -5.1ZM315 -5.1L315 -6.1L314 -6.1L314 -5.1L315 -5.1ZM315 5.3L314 5.3L314 6.3L315 6.3L315 5.3ZM329.3 5.3L330.3 5.3L330.3 4.3L329.3 4.3L329.3 5.3ZM339.05 5.3L339.05 4.3L338.05 4.3L338.05 5.3L339.05 5.3ZM350.75 5.3L351.75 5.3L351.75 4.3L350.75 4.3L350.75 5.3ZM361.5 12.125L361.5 -5.1L359.5 -5.1L359.5 12.125L361.5 12.125ZM360.5 -6.1L315 -6.1L315 -4.1L360.5 -4.1L360.5 -6.1ZM314 -5.1L314 5.3L316 5.3L316 -5.1L314 -5.1ZM315 6.3L329.3 6.3L329.3 4.3L315 4.3L315 6.3ZM328.3 5.3L328.3 12.125L330.3 12.125L330.3 5.3L328.3 5.3ZM328.3 12.125C328.3 21.6337 335.689 29.05 344.9 29.05L344.9 27.05C336.821 27.05 330.3 20.5563 330.3 12.125L328.3 12.125ZM344.9 29.05C354.111 29.05 361.5 21.6338 361.5 12.125L359.5 12.125C359.5 20.5563 352.979 27.05 344.9 27.05L344.9 29.05ZM340.05 12.125L340.05 5.3L338.05 5.3L338.05 12.125L340.05 12.125ZM339.05 6.3L350.75 6.3L350.75 4.3L339.05 4.3L339.05 6.3ZM349.75 5.3L349.75 12.125L351.75 12.125L351.75 5.3L349.75 5.3ZM349.75 12.125C349.75 14.6984 347.724 16.65 344.9 16.65L344.9 18.65C348.706 18.65 351.75 15.9216 351.75 12.125L349.75 12.125ZM344.9 16.65C342.076 16.65 340.05 14.6984 340.05 12.125L338.05 12.125C338.05 15.9216 341.094 18.65 344.9 18.65L344.9 16.65ZM313.09 54.6325C313.09 68.2407 323.799 79.2925 337.75 79.2925L337.75 77.2925C324.921 77.2925 315.09 67.1542 315.09 54.6325L313.09 54.6325ZM337.75 79.2925C351.701 79.2925 362.41 68.2407 362.41 54.6325L360.41 54.6325C360.41 67.1542 350.579 77.2925 337.75 77.2925L337.75 79.2925ZM362.41 54.6325C362.41 41.0242 351.701 29.9725 337.75 29.9725L337.75 31.9725C350.579 31.9725 360.41 42.1107 360.41 54.6325L362.41 54.6325ZM337.75 29.9725C323.799 29.9725 313.09 41.0242 313.09 54.6325L315.09 54.6325C315.09 42.1107 324.921 31.9725 337.75 31.9725L337.75 29.9725ZM325.23 54.6325C325.23 47.7651 330.187 42.3725 337.75 42.3725L337.75 40.3725C329.063 40.3725 323.23 46.6799 323.23 54.6325L325.23 54.6325ZM337.75 42.3725C345.313 42.3725 350.27 47.7651 350.27 54.6325L352.27 54.6325C352.27 46.6799 346.437 40.3725 337.75 40.3725L337.75 42.3725ZM350.27 54.6325C350.27 61.4999 345.313 66.8925 337.75 66.8925L337.75 68.8925C346.437 68.8925 352.27 62.5851 352.27 54.6325L350.27 54.6325ZM337.75 66.8925C330.187 66.8925 325.23 61.4999 325.23 54.6325L323.23 54.6325C323.23 62.5851 329.063 68.8925 337.75 68.8925L337.75 66.8925ZM325.01 94.548L325.01 93.548L324.01 93.548L324.01 94.548L325.01 94.548ZM360.5 94.548L360.5 95.548L361.5 95.548L361.5 94.548L360.5 94.548ZM360.5 84.148L361.5 84.148L361.5 83.148L360.5 83.148L360.5 84.148ZM315 84.148L315 83.148L314 83.148L314 84.148L315 84.148ZM315 110.798L314 110.798L314 111.798L315 111.798L315 110.798ZM325.01 110.798L325.01 111.798L326.01 111.798L326.01 110.798L325.01 110.798ZM325.01 95.548L360.5 95.548L360.5 93.548L325.01 93.548L325.01 95.548ZM361.5 94.548L361.5 84.148L359.5 84.148L359.5 94.548L361.5 94.548ZM360.5 83.148L315 83.148L315 85.148L360.5 85.148L360.5 83.148ZM314 84.148L314 110.798L316 110.798L316 84.148L314 84.148ZM315 111.798L325.01 111.798L325.01 109.798L315 109.798L315 111.798ZM326.01 110.798L326.01 94.548L324.01 94.548L324.01 110.798L326.01 110.798ZM360.5 146.589L360.021 147.467L361.5 148.273L361.5 146.589L360.5 146.589ZM360.5 134.759L361.5 134.759L361.5 134.137L360.942 133.862L360.5 134.759ZM342.95 126.114L342.508 125.217L340.687 126.114L342.508 127.011L342.95 126.114ZM360.5 117.469L360.942 118.366L361.5 118.091L361.5 117.469L360.5 117.469ZM360.5 105.639L361.5 105.639L361.5 103.954L360.021 104.761L360.5 105.639ZM332.485 120.914L332.485 121.914L332.74 121.914L332.964 121.792L332.485 120.914ZM315 120.914L315 119.914L314 119.914L314 120.914L315 120.914ZM315 131.314L314 131.314L314 132.314L315 132.314L315 131.314ZM332.485 131.314L332.964 130.436L332.74 130.314L332.485 130.314L332.485 131.314ZM361.5 146.589L361.5 134.759L359.5 134.759L359.5 146.589L361.5 146.589ZM360.942 133.862L343.392 125.217L342.508 127.011L360.058 135.656L360.942 133.862ZM343.392 127.011L360.942 118.366L360.058 116.572L342.508 125.217L343.392 127.011ZM361.5 117.469L361.5 105.639L359.5 105.639L359.5 117.469L361.5 117.469ZM360.021 104.761L332.006 120.036L332.964 121.792L360.979 106.517L360.021 104.761ZM332.485 119.914L315 119.914L315 121.914L332.485 121.914L332.485 119.914ZM314 120.914L314 131.314L316 131.314L316 120.914L314 120.914ZM315 132.314L332.485 132.314L332.485 130.314L315 130.314L315 132.314ZM332.006 132.192L360.021 147.467L360.979 145.711L332.964 130.436L332.006 132.192ZM325.01 160.881L325.01 159.881L324.01 159.881L324.01 160.881L325.01 160.881ZM360.5 160.881L360.5 161.881L361.5 161.881L361.5 160.881L360.5 160.881ZM360.5 150.481L361.5 150.481L361.5 149.481L360.5 149.481L360.5 150.481ZM315 150.481L315 149.481L314 149.481L314 150.481L315 150.481ZM315 177.131L314 177.131L314 178.131L315 178.131L315 177.131ZM325.01 177.131L325.01 178.131L326.01 178.131L326.01 177.131L325.01 177.131ZM325.01 161.881L360.5 161.881L360.5 159.881L325.01 159.881L325.01 161.881ZM361.5 160.881L361.5 150.481L359.5 150.481L359.5 160.881L361.5 160.881ZM360.5 149.481L315 149.481L315 151.481L360.5 151.481L360.5 149.481ZM314 150.481L314 177.131L316 177.131L316 150.481L314 150.481ZM315 178.131L325.01 178.131L325.01 176.131L315 176.131L315 178.131ZM326.01 177.131L326.01 160.881L324.01 160.881L324.01 177.131L326.01 177.131ZM313.09 200.819C313.09 214.427 323.799 225.479 337.75 225.479L337.75 223.479C324.921 223.479 315.09 213.341 315.09 200.819L313.09 200.819ZM337.75 225.479C351.701 225.479 362.41 214.427 362.41 200.819L360.41 200.819C360.41 213.341 350.579 223.479 337.75 223.479L337.75 225.479ZM362.41 200.819C362.41 187.211 351.701 176.159 337.75 176.159L337.75 178.159C350.579 178.159 360.41 188.297 360.41 200.819L362.41 200.819ZM337.75 176.159C323.799 176.159 313.09 187.211 313.09 200.819L315.09 200.819C315.09 188.297 324.921 178.159 337.75 178.159L337.75 176.159ZM325.23 200.819C325.23 193.952 330.187 188.559 337.75 188.559L337.75 186.559C329.063 186.559 323.23 192.866 323.23 200.819L325.23 200.819ZM337.75 188.559C345.313 188.559 350.27 193.952 350.27 200.819L352.27 200.819C352.27 192.866 346.437 186.559 337.75 186.559L337.75 188.559ZM350.27 200.819C350.27 207.686 345.313 213.079 337.75 213.079L337.75 215.079C346.437 215.079 352.27 208.772 352.27 200.819L350.27 200.819ZM337.75 213.079C330.187 213.079 325.23 207.686 325.23 200.819L323.23 200.819C323.23 208.772 329.063 215.079 337.75 215.079L337.75 213.079ZM340.35 275.38L340.35 276.38L341.35 276.38L341.35 275.38L340.35 275.38ZM340.35 252.565L341.35 252.565L341.35 251.565L340.35 251.565L340.35 252.565ZM331.25 252.565L331.25 251.565L330.25 251.565L330.25 252.565L331.25 252.565ZM331.25 264.72L330.9 265.656L332.25 266.16L332.25 264.72L331.25 264.72ZM345.94 263.29L345.407 262.444L344.595 262.955L345.073 263.787L345.94 263.29ZM351.01 272.13L350.143 272.627L350.66 273.53L351.542 272.977L351.01 272.13ZM341.35 275.38L341.35 252.565L339.35 252.565L339.35 275.38L341.35 275.38ZM340.35 251.565L331.25 251.565L331.25 253.565L340.35 253.565L340.35 251.565ZM330.25 252.565L330.25 264.72L332.25 264.72L332.25 252.565L330.25 252.565ZM331.6 263.783C327.711 262.332 325.23 258.798 325.23 253.085L323.23 253.085C323.23 259.461 326.079 263.858 330.9 265.656L331.6 263.783ZM325.23 253.085C325.23 248.881 326.571 245.569 328.744 243.314C330.917 241.059 333.995 239.785 337.62 239.785L337.62 237.785C333.51 237.785 329.893 239.24 327.304 241.926C324.717 244.61 323.23 248.448 323.23 253.085L325.23 253.085ZM337.62 239.785C345.072 239.785 350.27 245.066 350.27 252.175L352.27 252.175C352.27 243.943 346.158 237.785 337.62 237.785L337.62 239.785ZM350.27 252.175C350.27 257.025 348.06 260.771 345.407 262.444L346.473 264.135C349.8 262.038 352.27 257.595 352.27 252.175L350.27 252.175ZM345.073 263.787L350.143 272.627L351.877 271.632L346.807 262.792L345.073 263.787ZM351.542 272.977C357.956 268.95 362.41 261.278 362.41 252.24L360.41 252.24C360.41 260.622 356.284 267.639 350.478 271.283L351.542 272.977ZM362.41 252.24C362.41 238.299 351.434 227.385 337.685 227.385L337.685 229.385C350.326 229.385 360.41 239.4 360.41 252.24L362.41 252.24ZM337.685 227.385C324.048 227.385 313.09 238.122 313.09 252.955L315.09 252.955C315.09 239.187 325.192 229.385 337.685 229.385L337.685 227.385ZM313.09 252.955C313.09 259.546 315.279 265.412 319.332 269.637C323.392 273.868 329.252 276.38 336.45 276.38L336.45 274.38C329.738 274.38 324.418 272.049 320.775 268.252C317.126 264.449 315.09 259.103 315.09 252.955L313.09 252.955ZM336.45 276.38L340.35 276.38L340.35 274.38L336.45 274.38L336.45 276.38Z" fill="white"/>
<path opacity="0.3" d="M236.5 -5.1L237.5 -5.1L237.5 -6.1L236.5 -6.1L236.5 -5.1ZM191 -5.1L191 -6.1L190 -6.1L190 -5.1L191 -5.1ZM191 5.3L190 5.3L190 6.3L191 6.3L191 5.3ZM205.3 5.3L206.3 5.3L206.3 4.3L205.3 4.3L205.3 5.3ZM215.05 5.3L215.05 4.3L214.05 4.3L214.05 5.3L215.05 5.3ZM226.75 5.3L227.75 5.3L227.75 4.3L226.75 4.3L226.75 5.3ZM237.5 12.125L237.5 -5.1L235.5 -5.1L235.5 12.125L237.5 12.125ZM236.5 -6.1L191 -6.1L191 -4.1L236.5 -4.1L236.5 -6.1ZM190 -5.1L190 5.3L192 5.3L192 -5.1L190 -5.1ZM191 6.3L205.3 6.3L205.3 4.3L191 4.3L191 6.3ZM204.3 5.3L204.3 12.125L206.3 12.125L206.3 5.3L204.3 5.3ZM204.3 12.125C204.3 21.6337 211.689 29.05 220.9 29.05L220.9 27.05C212.821 27.05 206.3 20.5563 206.3 12.125L204.3 12.125ZM220.9 29.05C230.111 29.05 237.5 21.6338 237.5 12.125L235.5 12.125C235.5 20.5563 228.979 27.05 220.9 27.05L220.9 29.05ZM216.05 12.125L216.05 5.3L214.05 5.3L214.05 12.125L216.05 12.125ZM215.05 6.3L226.75 6.3L226.75 4.3L215.05 4.3L215.05 6.3ZM225.75 5.3L225.75 12.125L227.75 12.125L227.75 5.3L225.75 5.3ZM225.75 12.125C225.75 14.6984 223.724 16.65 220.9 16.65L220.9 18.65C224.706 18.65 227.75 15.9216 227.75 12.125L225.75 12.125ZM220.9 16.65C218.076 16.65 216.05 14.6984 216.05 12.125L214.05 12.125C214.05 15.9216 217.094 18.65 220.9 18.65L220.9 16.65ZM189.09 54.6325C189.09 68.2407 199.799 79.2925 213.75 79.2925L213.75 77.2925C200.921 77.2925 191.09 67.1542 191.09 54.6325L189.09 54.6325ZM213.75 79.2925C227.701 79.2925 238.41 68.2407 238.41 54.6325L236.41 54.6325C236.41 67.1542 226.579 77.2925 213.75 77.2925L213.75 79.2925ZM238.41 54.6325C238.41 41.0242 227.701 29.9725 213.75 29.9725L213.75 31.9725C226.579 31.9725 236.41 42.1107 236.41 54.6325L238.41 54.6325ZM213.75 29.9725C199.799 29.9725 189.09 41.0242 189.09 54.6325L191.09 54.6325C191.09 42.1107 200.921 31.9725 213.75 31.9725L213.75 29.9725ZM201.23 54.6325C201.23 47.7651 206.187 42.3725 213.75 42.3725L213.75 40.3725C205.063 40.3725 199.23 46.6799 199.23 54.6325L201.23 54.6325ZM213.75 42.3725C221.313 42.3725 226.27 47.7651 226.27 54.6325L228.27 54.6325C228.27 46.6799 222.437 40.3725 213.75 40.3725L213.75 42.3725ZM226.27 54.6325C226.27 61.4999 221.313 66.8925 213.75 66.8925L213.75 68.8925C222.437 68.8925 228.27 62.5851 228.27 54.6325L226.27 54.6325ZM213.75 66.8925C206.187 66.8925 201.23 61.4999 201.23 54.6325L199.23 54.6325C199.23 62.5851 205.063 68.8925 213.75 68.8925L213.75 66.8925ZM201.01 94.548L201.01 93.548L200.01 93.548L200.01 94.548L201.01 94.548ZM236.5 94.548L236.5 95.548L237.5 95.548L237.5 94.548L236.5 94.548ZM236.5 84.148L237.5 84.148L237.5 83.148L236.5 83.148L236.5 84.148ZM191 84.148L191 83.148L190 83.148L190 84.148L191 84.148ZM191 110.798L190 110.798L190 111.798L191 111.798L191 110.798ZM201.01 110.798L201.01 111.798L202.01 111.798L202.01 110.798L201.01 110.798ZM201.01 95.548L236.5 95.548L236.5 93.548L201.01 93.548L201.01 95.548ZM237.5 94.548L237.5 84.148L235.5 84.148L235.5 94.548L237.5 94.548ZM236.5 83.148L191 83.148L191 85.148L236.5 85.148L236.5 83.148ZM190 84.148L190 110.798L192 110.798L192 84.148L190 84.148ZM191 111.798L201.01 111.798L201.01 109.798L191 109.798L191 111.798ZM202.01 110.798L202.01 94.548L200.01 94.548L200.01 110.798L202.01 110.798ZM236.5 146.589L236.021 147.467L237.5 148.273L237.5 146.589L236.5 146.589ZM236.5 134.759L237.5 134.759L237.5 134.137L236.942 133.862L236.5 134.759ZM218.95 126.114L218.508 125.217L216.687 126.114L218.508 127.011L218.95 126.114ZM236.5 117.469L236.942 118.366L237.5 118.091L237.5 117.469L236.5 117.469ZM236.5 105.639L237.5 105.639L237.5 103.954L236.021 104.761L236.5 105.639ZM208.485 120.914L208.485 121.914L208.74 121.914L208.964 121.792L208.485 120.914ZM191 120.914L191 119.914L190 119.914L190 120.914L191 120.914ZM191 131.314L190 131.314L190 132.314L191 132.314L191 131.314ZM208.485 131.314L208.964 130.436L208.74 130.314L208.485 130.314L208.485 131.314ZM237.5 146.589L237.5 134.759L235.5 134.759L235.5 146.589L237.5 146.589ZM236.942 133.862L219.392 125.217L218.508 127.011L236.058 135.656L236.942 133.862ZM219.392 127.011L236.942 118.366L236.058 116.572L218.508 125.217L219.392 127.011ZM237.5 117.469L237.5 105.639L235.5 105.639L235.5 117.469L237.5 117.469ZM236.021 104.761L208.006 120.036L208.964 121.792L236.979 106.517L236.021 104.761ZM208.485 119.914L191 119.914L191 121.914L208.485 121.914L208.485 119.914ZM190 120.914L190 131.314L192 131.314L192 120.914L190 120.914ZM191 132.314L208.485 132.314L208.485 130.314L191 130.314L191 132.314ZM208.006 132.192L236.021 147.467L236.979 145.711L208.964 130.436L208.006 132.192ZM201.01 160.881L201.01 159.881L200.01 159.881L200.01 160.881L201.01 160.881ZM236.5 160.881L236.5 161.881L237.5 161.881L237.5 160.881L236.5 160.881ZM236.5 150.481L237.5 150.481L237.5 149.481L236.5 149.481L236.5 150.481ZM191 150.481L191 149.481L190 149.481L190 150.481L191 150.481ZM191 177.131L190 177.131L190 178.131L191 178.131L191 177.131ZM201.01 177.131L201.01 178.131L202.01 178.131L202.01 177.131L201.01 177.131ZM201.01 161.881L236.5 161.881L236.5 159.881L201.01 159.881L201.01 161.881ZM237.5 160.881L237.5 150.481L235.5 150.481L235.5 160.881L237.5 160.881ZM236.5 149.481L191 149.481L191 151.481L236.5 151.481L236.5 149.481ZM190 150.481L190 177.131L192 177.131L192 150.481L190 150.481ZM191 178.131L201.01 178.131L201.01 176.131L191 176.131L191 178.131ZM202.01 177.131L202.01 160.881L200.01 160.881L200.01 177.131L202.01 177.131ZM189.09 200.819C189.09 214.427 199.799 225.479 213.75 225.479L213.75 223.479C200.921 223.479 191.09 213.341 191.09 200.819L189.09 200.819ZM213.75 225.479C227.701 225.479 238.41 214.427 238.41 200.819L236.41 200.819C236.41 213.341 226.579 223.479 213.75 223.479L213.75 225.479ZM238.41 200.819C238.41 187.211 227.701 176.159 213.75 176.159L213.75 178.159C226.579 178.159 236.41 188.297 236.41 200.819L238.41 200.819ZM213.75 176.159C199.799 176.159 189.09 187.211 189.09 200.819L191.09 200.819C191.09 188.297 200.921 178.159 213.75 178.159L213.75 176.159ZM201.23 200.819C201.23 193.952 206.187 188.559 213.75 188.559L213.75 186.559C205.063 186.559 199.23 192.866 199.23 200.819L201.23 200.819ZM213.75 188.559C221.313 188.559 226.27 193.952 226.27 200.819L228.27 200.819C228.27 192.866 222.437 186.559 213.75 186.559L213.75 188.559ZM226.27 200.819C226.27 207.686 221.313 213.079 213.75 213.079L213.75 215.079C222.437 215.079 228.27 208.772 228.27 200.819L226.27 200.819ZM213.75 213.079C206.187 213.079 201.23 207.686 201.23 200.819L199.23 200.819C199.23 208.772 205.063 215.079 213.75 215.079L213.75 213.079ZM216.35 275.38L216.35 276.38L217.35 276.38L217.35 275.38L216.35 275.38ZM216.35 252.565L217.35 252.565L217.35 251.565L216.35 251.565L216.35 252.565ZM207.25 252.565L207.25 251.565L206.25 251.565L206.25 252.565L207.25 252.565ZM207.25 264.72L206.9 265.656L208.25 266.16L208.25 264.72L207.25 264.72ZM221.94 263.29L221.407 262.444L220.595 262.955L221.073 263.787L221.94 263.29ZM227.01 272.13L226.143 272.627L226.66 273.53L227.542 272.977L227.01 272.13ZM217.35 275.38L217.35 252.565L215.35 252.565L215.35 275.38L217.35 275.38ZM216.35 251.565L207.25 251.565L207.25 253.565L216.35 253.565L216.35 251.565ZM206.25 252.565L206.25 264.72L208.25 264.72L208.25 252.565L206.25 252.565ZM207.6 263.783C203.711 262.332 201.23 258.798 201.23 253.085L199.23 253.085C199.23 259.461 202.079 263.858 206.9 265.656L207.6 263.783ZM201.23 253.085C201.23 248.881 202.571 245.569 204.744 243.314C206.917 241.059 209.995 239.785 213.62 239.785L213.62 237.785C209.51 237.785 205.893 239.24 203.304 241.926C200.717 244.61 199.23 248.448 199.23 253.085L201.23 253.085ZM213.62 239.785C221.072 239.785 226.27 245.066 226.27 252.175L228.27 252.175C228.27 243.943 222.158 237.785 213.62 237.785L213.62 239.785ZM226.27 252.175C226.27 257.025 224.06 260.771 221.407 262.444L222.473 264.135C225.8 262.038 228.27 257.595 228.27 252.175L226.27 252.175ZM221.073 263.787L226.143 272.627L227.877 271.632L222.807 262.792L221.073 263.787ZM227.542 272.977C233.956 268.95 238.41 261.278 238.41 252.24L236.41 252.24C236.41 260.622 232.284 267.639 226.478 271.283L227.542 272.977ZM238.41 252.24C238.41 238.299 227.434 227.385 213.685 227.385L213.685 229.385C226.326 229.385 236.41 239.4 236.41 252.24L238.41 252.24ZM213.685 227.385C200.048 227.385 189.09 238.122 189.09 252.955L191.09 252.955C191.09 239.187 201.192 229.385 213.685 229.385L213.685 227.385ZM189.09 252.955C189.09 259.546 191.279 265.412 195.332 269.637C199.392 273.868 205.252 276.38 212.45 276.38L212.45 274.38C205.738 274.38 200.418 272.049 196.775 268.252C193.126 264.449 191.09 259.103 191.09 252.955L189.09 252.955ZM212.45 276.38L216.35 276.38L216.35 274.38L212.45 274.38L212.45 276.38Z" fill="white"/>
</g>
</svg>
