<svg width="36" height="36" viewBox="0 0 36 36" fill="none" xmlns="http://www.w3.org/2000/svg">
<path d="M19.0408 21.3012C19.0643 19.7259 19.2878 18.2085 19.7111 16.749C20.1345 15.2896 20.6167 13.9807 21.1577 12.8224C21.7692 11.4788 22.4631 10.2046 23.2393 9L30.8247 10.112C30.025 11.1313 29.3899 12.139 28.9195 13.1351C28.4726 14.1081 28.1433 15 27.9316 15.8108C28.7784 15.9498 29.5663 16.1815 30.2955 16.5058C31.0481 16.8301 31.695 17.2355 32.2359 17.722C32.7769 18.1853 33.2003 18.7297 33.5061 19.3552C33.8354 19.9575 34 20.6062 34 21.3012C34 22.0888 33.8001 22.8301 33.4002 23.5251C33.0004 24.1969 32.4594 24.7992 31.7773 25.332C31.0952 25.8417 30.2955 26.2471 29.3782 26.5483C28.4844 26.8494 27.52 27 26.4851 27C25.4502 27 24.4741 26.8494 23.5568 26.5483C22.663 26.2471 21.875 25.8417 21.1929 25.332C20.5344 24.7992 20.0051 24.1969 19.6053 23.5251C19.229 22.8301 19.0408 22.0888 19.0408 21.3012ZM2 21.3012C2 19.7722 2.21169 18.278 2.63506 16.8185C3.05843 15.3591 3.54061 14.0386 4.08159 12.8571C4.69313 11.5135 5.39875 10.2278 6.19846 9L13.7839 10.112C12.9842 11.1313 12.3491 12.139 11.8787 13.1351C11.4318 14.1081 11.1025 15 10.8908 15.8108C11.7376 15.9498 12.5255 16.1815 13.2547 16.5058C14.0074 16.8301 14.6542 17.2355 15.1951 17.722C15.7361 18.1853 16.1595 18.7297 16.4653 19.3552C16.7946 19.9575 16.9592 20.6062 16.9592 21.3012C16.9592 22.0888 16.7593 22.8301 16.3594 23.5251C15.9596 24.1969 15.4186 24.7992 14.7365 25.332C14.0544 25.8417 13.2547 26.2471 12.3374 26.5483C11.4436 26.8494 10.4792 27 9.44432 27C8.40941 27 7.4333 26.8494 6.51599 26.5483C5.6222 26.2471 4.83425 25.8417 4.15215 25.332C3.49357 24.7992 2.96435 24.1969 2.5645 23.5251C2.18817 22.8301 2 22.0888 2 21.3012Z" fill="#F93822"/>
</svg>
