<svg width="36" height="36" viewBox="0 0 36 36" fill="none" xmlns="http://www.w3.org/2000/svg">
<path fill-rule="evenodd" clip-rule="evenodd" d="M2 11.2874C2 6.15731 6.15707 2 11.2862 2H24.7126C29.8427 2 34 6.15707 34 11.2862V24.7126C34 29.8427 29.8429 34 24.7138 34H11.2874C6.15731 34 2 29.8429 2 24.7138V11.2874ZM11.2862 4.46154C7.51678 4.46154 4.46154 7.51654 4.46154 11.2874V24.7138C4.46154 28.4832 7.51654 31.5385 11.2874 31.5385H24.7138C28.4832 31.5385 31.5385 28.4835 31.5385 24.7126V11.2862C31.5385 7.51678 28.4835 4.46154 24.7126 4.46154H11.2862Z" fill="white"/>
<path fill-rule="evenodd" clip-rule="evenodd" d="M18 11.8462C14.6013 11.8462 11.8462 14.6013 11.8462 18C11.8462 21.3987 14.6013 24.1538 18 24.1538C21.3987 24.1538 24.1538 21.3987 24.1538 18C24.1538 14.6013 21.3987 11.8462 18 11.8462ZM9.38462 18C9.38462 13.2419 13.2419 9.38462 18 9.38462C22.7581 9.38462 26.6154 13.2419 26.6154 18C26.6154 22.7581 22.7581 26.6154 18 26.6154C13.2419 26.6154 9.38462 22.7581 9.38462 18Z" fill="white"/>
<path d="M27.2308 10.6154C28.2504 10.6154 29.0769 9.78886 29.0769 8.76926C29.0769 7.74965 28.2504 6.9231 27.2308 6.9231C26.2112 6.9231 25.3846 7.74965 25.3846 8.76926C25.3846 9.78886 26.2112 10.6154 27.2308 10.6154Z" fill="white"/>
</svg>
