<svg width="36" height="36" viewBox="0 0 36 36" fill="none" xmlns="http://www.w3.org/2000/svg">
<path fill-rule="evenodd" clip-rule="evenodd" d="M27 11.1257H22.0234C22.0028 11.1257 21.983 11.1259 21.9639 11.1262C21.9634 11.1542 21.9631 11.1837 21.963 11.2147C21.963 11.215 21.963 11.2145 21.963 11.2147V12.2869H26.8805L25.6588 21.7337H21.9642V34H12.1393V21.7326H8V12.2857H12.1393V10.7303C12.1393 8.19054 12.9301 5.95239 14.5731 4.34161C16.2173 2.72967 18.4567 2 20.8348 2C22.7251 2 24.3781 2.13892 24.9487 2.21447L27 2.48608V11.1257ZM19.588 14.5726V11.2137C19.5892 9.80457 19.9835 8.84 22.0234 8.84H24.625V4.47886C24.1762 4.41943 22.6325 4.28571 20.8348 4.28571C17.0838 4.28571 14.5143 6.55657 14.5143 10.7303V14.5714H10.375V19.4469H14.5143V31.7143H19.5892V19.448H23.5611L24.1916 14.5726H19.588Z" fill="white"/>
</svg>
