<svg width="36" height="36" viewBox="0 0 36 36" fill="none" xmlns="http://www.w3.org/2000/svg">
<path d="M29.2902 18.8691L22.0644 17.8148L18.8128 11.168C18.5954 10.7123 18.0552 10.5218 17.6062 10.7425C17.4233 10.8325 17.2756 10.9823 17.187 11.168L13.9355 17.8148L6.7097 18.8691C6.36747 18.9246 6.08671 19.1739 5.98713 19.5108C5.89931 19.8354 5.98489 20.1831 6.21292 20.4276L11.4516 25.6075L10.2323 32.896C10.1774 33.2458 10.3161 33.5979 10.5936 33.8128C10.8668 34.0238 11.2344 34.0594 11.5419 33.9045L17.9999 30.4207L24.4579 33.9045L24.8644 33.9962C25.0622 34.0132 25.2581 33.9469 25.4063 33.8128C25.6837 33.5979 25.8225 33.2458 25.7676 32.896L24.5483 25.6075L29.787 20.4276C30.015 20.1831 30.1007 19.8354 30.0127 19.5108C29.9132 19.174 29.6324 18.9246 29.2902 18.8691ZM22.9225 24.6449C22.7377 24.8581 22.655 25.1434 22.6967 25.4242L23.6903 31.3834L18.4064 28.5872C18.1491 28.4633 17.8507 28.4633 17.5935 28.5872L12.3096 31.3834L13.3032 25.4242C13.3448 25.1434 13.2622 24.8582 13.0774 24.6449L8.78705 20.4277L14.7032 19.5567C14.9939 19.5048 15.2445 19.3184 15.3806 19.0524L17.9999 13.6433L20.6193 19.0524C20.7554 19.3184 21.0058 19.5048 21.2967 19.5567L27.2128 20.4277L22.9225 24.6449Z" fill="white"/>
<path d="M17.9999 8.41759C18.4988 8.41759 18.9031 8.00714 18.9031 7.50079V2.9168C18.9031 2.41045 18.4987 2 17.9999 2C17.5011 2 17.0967 2.41045 17.0967 2.9168V7.50079C17.0967 8.00714 17.5011 8.41759 17.9999 8.41759Z" fill="white"/>
<path d="M31.6386 6.85901C31.2395 6.55517 30.6734 6.63729 30.3741 7.04239L27.6644 10.7096C27.3652 11.1147 27.446 11.6893 27.8451 11.9931C27.9998 12.1153 28.191 12.18 28.387 12.1765C28.6696 12.1698 28.9346 12.0353 29.1095 11.8098L31.8192 8.14257C32.1186 7.73747 32.0377 7.16277 31.6386 6.85901Z" fill="white"/>
<path d="M7.61291 12.1765C7.80887 12.18 8.00017 12.1153 8.15481 11.9931C8.55391 11.6893 8.63473 11.1147 8.33547 10.7096L5.62589 7.04239C5.32655 6.63729 4.76044 6.55525 4.36134 6.85901C3.96225 7.16277 3.88142 7.73747 4.18068 8.14257L6.89035 11.8098C7.06531 12.0353 7.33025 12.1697 7.61291 12.1765Z" fill="white"/>
</svg>
