<svg width="36" height="36" viewBox="0 0 36 36" fill="none" xmlns="http://www.w3.org/2000/svg">
<path fill-rule="evenodd" clip-rule="evenodd" d="M18 3.45455C15.8712 3.45455 14.1455 5.18028 14.1455 7.30909C14.1455 9.4379 15.8712 11.1636 18 11.1636C20.1288 11.1636 21.8545 9.4379 21.8545 7.30909C21.8545 5.18028 20.1288 3.45455 18 3.45455ZM12.6909 7.30909C12.6909 4.37696 15.0679 2 18 2C20.9321 2 23.3091 4.37696 23.3091 7.30909C23.3091 9.9945 21.3153 12.2142 18.7273 12.5688V32.5273C22.3202 32.3476 25.7293 30.8411 28.2852 28.2852C30.8411 25.7293 32.3476 22.3202 32.5273 18.7273H28.6909C28.2892 18.7273 27.9636 18.4017 27.9636 18C27.9636 17.5983 28.2892 17.2727 28.6909 17.2727H33.2727C33.6744 17.2727 34 17.5983 34 18C34 22.2435 32.3143 26.3131 29.3137 29.3137C26.3131 32.3143 22.2435 34 18 34C13.7565 34 9.68687 32.3143 6.68629 29.3137C3.68571 26.3131 2 22.2435 2 18C2 17.8071 2.07662 17.6221 2.21301 17.4857C2.3494 17.3494 2.53439 17.2727 2.72727 17.2727H7.30909C7.71075 17.2727 8.03636 17.5983 8.03636 18C8.03636 18.4017 7.71075 18.7273 7.30909 18.7273H3.47272C3.65245 22.3202 5.15892 25.7293 7.71481 28.2852C10.2707 30.8411 13.6798 32.3476 17.2727 32.5273V12.5688C14.6847 12.2142 12.6909 9.9945 12.6909 7.30909Z" fill="white"/>
</svg>
