<svg width="36" height="36" viewBox="0 0 36 36" fill="none" xmlns="http://www.w3.org/2000/svg">
<path fill-rule="evenodd" clip-rule="evenodd" d="M31.6196 10.1545L31.6177 10.1471C31.3955 9.27327 30.7588 8.64134 30.0332 8.4346L30.026 8.43255C29.5971 8.30838 28.6728 8.1811 27.3677 8.07807C26.1157 7.97923 24.6596 7.91236 23.2638 7.86747C21.8711 7.82267 20.5536 7.80022 19.5833 7.78898C19.0985 7.78337 18.7014 7.78057 18.4259 7.77917C18.2882 7.77847 18.181 7.77812 18.1085 7.77795L17.8906 7.77794C17.8181 7.77811 17.7108 7.77845 17.5731 7.77912C17.2975 7.78047 16.9002 7.78316 16.4153 7.78856C15.4447 7.79938 14.1268 7.82099 12.7335 7.8641C11.3372 7.90731 9.8801 7.97168 8.62667 8.06688C7.33125 8.16528 6.40498 8.287 5.96578 8.40736C5.26927 8.61345 4.60659 9.26982 4.38299 10.1431C4.10121 11.2792 3.9406 13.152 3.85808 14.8597C3.81795 15.69 3.79783 16.4412 3.78777 16.985C3.78275 17.2565 3.78025 17.4753 3.779 17.6253C3.77838 17.7003 3.77808 17.7581 3.77792 17.7965L3.77779 17.8394L3.77778 17.8517L3.77779 17.8644L3.77793 17.9075C3.77808 17.9462 3.77838 18.0042 3.779 18.0796C3.78025 18.2303 3.78275 18.4502 3.78777 18.7228C3.79784 19.2687 3.81796 20.0226 3.85809 20.8546C3.94074 22.5685 4.10159 24.4393 4.38243 25.5585C4.60554 26.4315 5.24171 27.0624 5.96657 27.2689L5.96923 27.2696C6.40754 27.3952 7.33822 27.5226 8.64312 27.6255C9.89645 27.7244 11.3517 27.7913 12.7459 27.8362C14.1369 27.881 15.452 27.9035 16.4202 27.9147C16.9039 27.9203 17.3001 27.9231 17.5749 27.9245C17.7122 27.9252 17.8192 27.9256 17.8915 27.9258L18.0269 27.9259L18.109 27.9258C18.1816 27.9256 18.2889 27.9253 18.4266 27.9246C18.7022 27.9232 19.0995 27.9205 19.5844 27.9151C20.5549 27.9043 21.8729 27.8827 23.2662 27.8396C24.6624 27.7964 26.1196 27.732 27.373 27.6368C28.6728 27.5381 29.601 27.4159 30.0384 27.2951C30.7605 27.0875 31.394 26.4584 31.6171 25.5885C31.8988 24.4521 32.0593 22.5794 32.1418 20.8719C32.1819 20.0416 32.202 19.2904 32.2121 18.7466C32.2171 18.4751 32.2196 18.2563 32.2209 18.1063C32.2215 18.0313 32.2218 17.9735 32.2219 17.9351L32.2221 17.8922L32.2221 17.8821V17.8713L32.2222 17.8589L32.2222 17.816C32.2222 17.7775 32.2222 17.7196 32.2219 17.6444C32.2213 17.4939 32.2197 17.2742 32.2157 17.0018C32.2076 16.4561 32.19 15.7024 32.1515 14.8699C32.0721 13.1522 31.9107 11.2793 31.6196 10.1545ZM33.9999 17.8797C33.9999 17.8797 33.9999 23.3733 33.3411 26.0225C32.9719 27.4727 31.8913 28.616 30.5204 29.0063C28.0163 29.7037 18 29.7037 18 29.7037C18 29.7037 8.00978 29.7037 5.4795 28.9786C4.1086 28.5881 3.02813 27.4448 2.65899 25.9946C2 23.3733 2 17.8519 2 17.8519C2 17.8519 2 12.3581 2.65899 9.70906C3.02774 8.25891 4.13497 7.08751 5.4793 6.69739C7.98341 6 17.9996 6 17.9996 6C17.9996 6 28.0163 6 30.5204 6.72487C31.8911 7.11541 32.9719 8.25871 33.3407 9.70906C34.0262 12.3581 33.9999 17.8797 33.9999 17.8797ZM13.0328 20.8171V14.8866C13.0328 12.5744 15.563 11.1532 17.5375 12.3563L22.4039 15.3216C24.2989 16.4763 24.2989 19.2274 22.4039 20.3821L17.5375 23.3474C15.563 24.5505 13.0328 23.1293 13.0328 20.8171ZM14.8106 20.8171C14.8106 21.742 15.8227 22.3105 16.6125 21.8292L21.4789 18.8639C22.2369 18.4021 22.2369 17.3016 21.4789 16.8398L16.6125 13.8745C15.8227 13.3932 14.8106 13.9617 14.8106 14.8866V20.8171Z" fill="white"/>
</svg>
