<svg width="36" height="36" viewBox="0 0 36 36" fill="none" xmlns="http://www.w3.org/2000/svg">
<path fill-rule="evenodd" clip-rule="evenodd" d="M13.3735 3.49416C12.9437 3.49416 12.5953 3.84258 12.5953 4.27237V7.32296C12.5953 7.75275 12.9437 8.10117 13.3735 8.10117H22.5253C22.9551 8.10117 23.3035 7.75275 23.3035 7.32296V5.79914C23.3035 5.79865 23.3035 5.79816 23.3035 5.79767C23.3035 5.79717 23.3035 5.79668 23.3035 5.79619V4.27237C23.3035 3.84258 22.9551 3.49416 22.5253 3.49416H13.3735ZM24.7977 5.05058V4.27237C24.7977 3.01738 23.7803 2 22.5253 2H13.3735C12.1185 2 11.1012 3.01738 11.1012 4.27237V5.05058H8.79766C7.79046 5.05058 6.82451 5.45069 6.11231 6.16289C5.40011 6.87509 5 7.84105 5 8.84825V30.2023C5 31.2095 5.40011 32.1755 6.11231 32.8877C6.82451 33.5999 7.79046 34 8.79766 34H27.1012C28.1084 34 29.0743 33.5999 29.7865 32.8877C30.4987 32.1755 30.8988 31.2095 30.8988 30.2023V8.84825C30.8988 7.84105 30.4987 6.87509 29.7865 6.16289C29.0743 5.45069 28.1084 5.05058 27.1012 5.05058H24.7977ZM24.7977 6.54475V7.32296C24.7977 8.57795 23.7803 9.59533 22.5253 9.59533H13.3735C12.1185 9.59533 11.1012 8.57795 11.1012 7.32296V6.54475H8.79766C8.18674 6.54475 7.60083 6.78744 7.16884 7.21943C6.73685 7.65142 6.49416 8.23732 6.49416 8.84825V30.2023C6.49416 30.8133 6.73685 31.3992 7.16884 31.8312C7.60083 32.2631 8.18674 32.5058 8.79766 32.5058H27.1012C27.7121 32.5058 28.298 32.2631 28.73 31.8312C29.162 31.3992 29.4047 30.8133 29.4047 30.2023V8.84825C29.4047 8.23732 29.162 7.65142 28.73 7.21943C28.298 6.78744 27.7121 6.54475 27.1012 6.54475H24.7977Z" fill="white"/>
</svg>
