<svg width="36" height="36" viewBox="0 0 36 36" fill="none" xmlns="http://www.w3.org/2000/svg">
<path d="M27.0358 24.6633L30.4188 14.1028L33.7254 10.7962C34.0915 10.4301 34.0915 9.83649 33.7254 9.47037L26.5296 2.27459C26.1635 1.90847 25.5699 1.90847 25.2038 2.27459L21.8972 5.58117L11.3367 8.96418C11.0634 9.05174 10.8453 9.25962 10.7447 9.52837L2.05968 32.7339C1.83362 33.3383 2.27643 34 2.93787 34H30.989C31.5068 34 31.9265 33.5803 31.9265 33.0625C31.9265 32.5447 31.5068 32.125 30.989 32.125H8.11705L26.4715 25.2555C26.7404 25.1548 26.9483 24.9367 27.0358 24.6633ZM25.8667 4.26335L31.7367 10.1333L29.5952 12.2747L23.7252 6.40473L25.8667 4.26335ZM6.65624 30.6697L15.1787 22.1472C16.7511 23.1151 18.823 22.9058 20.1662 21.5626C21.7494 19.9795 21.7494 17.4171 20.1662 15.834C18.5868 14.2546 16.017 14.2546 14.4377 15.834C13.074 17.1978 12.8941 19.273 13.8521 20.8225L5.33043 29.3439L12.3415 10.6112L22.1409 7.47199C23.1187 8.44986 27.9167 13.2479 28.528 13.8591L25.3888 23.6586L6.65624 30.6697ZM15.7634 17.1598C16.6117 16.3115 17.992 16.3114 18.8404 17.1598C19.6906 18.01 19.6907 19.3863 18.8404 20.2367C17.9921 21.0851 16.6117 21.085 15.7634 20.2367C14.9131 19.3865 14.9129 18.0102 15.7634 17.1598Z" fill="white"/>
</svg>
