<svg width="36" height="36" viewBox="0 0 36 36" fill="none" xmlns="http://www.w3.org/2000/svg">
<path d="M22.2685 12.3125L26.9559 2H19.3372L18.0479 4.79906L16.795 2H9.04406L13.7316 12.3125H2V34H34V12.3125H22.2685ZM20.5378 3.875H24.0441L20.2089 12.3125H16.6515L20.5378 3.875ZM15.58 3.875L17.0061 7.06094L15.1931 10.9969L11.9559 3.875H15.58ZM32.125 32.125H3.875V14.1875H32.125V32.125Z" fill="white"/>
<path d="M20.5625 17.3125H29.625V19.1875H20.5625V17.3125Z" fill="white"/>
<path d="M20.5625 22.3438H29.625V24.2188H20.5625V22.3438Z" fill="white"/>
<path d="M20.5625 27.375H29.625V29.25H20.5625V27.375Z" fill="white"/>
<path d="M13.9919 23.1734C14.7571 22.5719 15.25 21.6388 15.25 20.5922C15.25 18.7838 13.7774 17.3125 11.9673 17.3125C10.1588 17.3125 8.6875 18.7838 8.6875 20.5923C8.6875 21.6391 9.18019 22.5724 9.94506 23.1739C7.53188 23.7751 5.875 25.5138 5.875 28.1381V29.25H18.0625V28.1381C18.0625 25.5526 16.4469 23.7843 13.9919 23.1734ZM11.9673 19.1875C12.7435 19.1875 13.375 19.8176 13.375 20.5923C13.375 21.3685 12.7435 22 11.9673 22C11.1927 22 10.5625 21.3685 10.5625 20.5923C10.5625 19.8176 11.1927 19.1875 11.9673 19.1875ZM7.82394 27.375C8.311 25.0114 11.0678 24.8125 11.9688 24.8125C12.8697 24.8125 15.6265 25.0114 16.1136 27.375H7.82394Z" fill="white"/>
</svg>
