<svg width="36" height="36" viewBox="0 0 36 36" fill="none" xmlns="http://www.w3.org/2000/svg">
<path d="M17.4757 13.1321L16.2546 27.6638H13.2338L12.0454 13.1346L9.94019 13.3084L11.2078 28.8128C11.2528 29.3636 11.7106 29.7877 12.2606 29.7877H17.2254C17.7746 29.7877 18.2321 29.3651 18.2781 28.8153L19.581 13.3109L17.4757 13.1321Z" fill="white"/>
<path d="M14.7606 2C11.0331 2 8 5.04887 8 8.79643C8 12.5441 11.0328 15.5929 14.7605 15.5929C18.4883 15.5929 21.521 12.544 21.521 8.79643C21.5211 5.04887 18.488 2 14.7606 2ZM14.7606 13.469C12.1976 13.469 10.1127 11.3727 10.1127 8.79643C10.1127 6.21981 12.1976 4.12387 14.7606 4.12387C17.3236 4.12387 19.4088 6.21981 19.4085 8.79643C19.4085 11.3731 17.3236 13.469 14.7606 13.469Z" fill="white"/>
<path d="M20.4647 7.7345H9.05636V9.85838H20.4647V7.7345Z" fill="white"/>
<path d="M14.7606 17.6815C14.1771 17.6815 13.7043 18.1568 13.7043 18.7434V21.7523C13.7043 22.3388 14.1771 22.8142 14.7606 22.8142C15.3441 22.8142 15.8169 22.3388 15.8169 21.7523V18.7434C15.8169 18.1568 15.3441 17.6815 14.7606 17.6815Z" fill="white"/>
<path d="M24.162 16.5133C22.0458 16.5133 20.324 18.2443 20.324 20.3716V29.6106C20.324 30.8598 19.313 31.8761 18.0704 31.8761C16.8279 31.8761 15.8169 30.8598 15.8169 29.6106V28.7257C15.8169 28.1391 15.3441 27.6638 14.7606 27.6638C14.1771 27.6638 13.7043 28.1391 13.7043 28.7257V29.6106C13.7043 32.0312 15.663 34 18.0704 34C20.4782 34 22.4366 32.0311 22.437 29.6106V20.3717C22.437 19.4153 23.2109 18.6372 24.1623 18.6372C25.1134 18.6372 25.8874 19.4153 25.8874 20.3717V25.7876C25.8874 26.3742 26.3602 26.8496 26.9437 26.8496C27.5271 26.8496 28 26.3742 28 25.7876V20.3717C28 18.2443 26.2781 16.5133 24.162 16.5133Z" fill="white"/>
</svg>
