<svg width="36" height="36" viewBox="0 0 36 36" fill="none" xmlns="http://www.w3.org/2000/svg">
<path d="M26.8026 21.2878C29.319 18.7579 30.8034 15.4865 30.9819 12.0763C31.1623 8.62875 29.991 5.45265 27.6835 3.13292C26.3492 1.79156 24.085 1.63593 21.3082 2.69474C18.7748 3.66085 16.0333 5.54628 13.5889 8.00376C11.9421 9.65931 10.5542 11.4503 9.52954 13.2216L7.64272 11.3247L9.62478 9.33212L8.30345 8.00388L5 11.3249L8.63201 14.9763C8.51489 15.2408 8.40646 15.5037 8.30811 15.7644C7.25479 18.556 7.40959 20.8322 8.74392 22.1736C10.8966 24.3378 13.7903 25.5078 16.9533 25.5078C18.0647 25.5078 19.7341 25.2511 20.7432 24.9503V28.364H16.0714V32.1213H14.2027V34H29.1523V32.1213H27.2836V28.364H22.6118V24.2408C24.1402 23.5307 25.5612 22.5358 26.8026 21.2878ZM10.0652 20.845C9.29703 20.0727 9.29517 18.4437 10.0618 16.4136L12.2675 18.631L13.5889 17.3026L10.9 14.5995C11.8029 12.9328 13.1388 11.1131 14.9103 9.33225C17.1719 7.05864 19.6794 5.32528 21.9711 4.45141C22.976 4.06823 23.8772 3.87673 24.6242 3.87673C25.3779 3.87673 25.9745 4.07166 26.3622 4.46141L26.363 4.46222C27.1342 5.23866 27.1375 6.84721 26.3722 8.87594C25.503 11.1798 23.7788 13.7007 21.5173 15.9743C17.8979 19.613 14.1168 21.426 11.8047 21.4257C11.0491 21.4256 10.45 21.2319 10.0652 20.845ZM25.4148 30.2425V32.1211H17.94V30.2425H25.4148ZM16.9646 23.6249C15.8188 23.6248 14.692 23.442 13.6303 23.075C14.1073 22.962 14.6042 22.808 15.1191 22.6117C17.6525 21.6456 20.3941 19.7602 22.8385 17.3027C25.2829 14.8452 27.1584 12.0892 28.1193 9.54225C28.3158 9.02163 28.4701 8.51888 28.5827 8.03676C29.0037 9.26069 29.1882 10.5919 29.1158 11.9777C28.9615 14.9236 27.6708 17.7583 25.4813 19.9595C23.066 22.3875 19.9517 23.6251 16.9646 23.6249Z" fill="white"/>
</svg>
