<svg width="36" height="36" viewBox="0 0 36 36" fill="none" xmlns="http://www.w3.org/2000/svg">
<path d="M30.3923 10.3853C29.2224 6.69952 26.1834 3.71171 22.4613 2.58765C18.4978 1.39071 14.3656 2.04046 11.1246 4.37027C9.57159 5.48658 8.28293 6.95902 7.398 8.62821C6.48339 10.3534 6 12.2956 6 14.2451C6 16.9043 6.86263 19.4314 8.4947 21.5533L18.5013 34L28.4955 21.5691L28.508 21.5533C30.9503 18.3777 31.6372 14.3071 30.3923 10.3853ZM26.9752 20.4203L18.5013 30.9613L10.0273 20.4203C8.65089 18.6272 7.92331 16.492 7.92331 14.2451C7.92331 10.9618 9.54666 7.83458 12.2658 5.87996C15.0099 3.9074 18.5187 3.36046 21.8925 4.37921C25.0171 5.32283 27.5701 7.83671 28.5551 10.9398C29.6145 14.2774 29.0386 17.7324 26.9752 20.4203Z" fill="white"/>
<path d="M18.5012 7.68094C14.7895 7.68094 11.7698 10.6256 11.7698 14.2451C11.7698 17.8645 14.7895 20.8092 18.5012 20.8092C22.2129 20.8092 25.2327 17.8645 25.2327 14.2451C25.2327 10.6256 22.2129 7.68094 18.5012 7.68094ZM18.5012 18.9337C15.85 18.9337 13.693 16.8304 13.693 14.2451C13.693 11.6597 15.8499 9.55637 18.5012 9.55637C21.1525 9.55637 23.3094 11.6597 23.3094 14.2451C23.3094 16.8304 21.1524 18.9337 18.5012 18.9337Z" fill="white"/>
</svg>
