<svg width="36" height="36" viewBox="0 0 36 36" fill="none" xmlns="http://www.w3.org/2000/svg">
<path fill-rule="evenodd" clip-rule="evenodd" d="M12.2464 4.12561C12.9669 3.40435 13.9431 3 14.96 3H21.04C22.0569 3 23.0331 3.40435 23.7536 4.12561C24.4743 4.84702 24.88 5.82648 24.88 6.84877V9.08642H30.16C32.2763 9.08642 34 10.8051 34 12.9352V28.1512C34 30.2813 32.2763 32 30.16 32H5.84C3.72366 32 2 30.2813 2 28.1512V12.9352C2 10.8051 3.72366 9.08642 5.84 9.08642H11.12V6.84877C11.12 5.82648 11.5257 4.84702 12.2464 4.12561ZM11.12 10.6975H5.84C4.59845 10.6975 3.6 11.7038 3.6 12.9352V28.1512C3.6 29.3826 4.59845 30.3889 5.84 30.3889H11.12V10.6975ZM12.72 30.3889V10.6975H23.28V30.3889H12.72ZM24.88 30.3889H30.16C31.4016 30.3889 32.4 29.3826 32.4 28.1512V12.9352C32.4 11.7038 31.4016 10.6975 30.16 10.6975H24.88V30.3889ZM23.28 9.08642H12.72V6.84877C12.72 6.25683 12.9549 5.68818 13.3744 5.26817C13.7941 4.848 14.3644 4.61111 14.96 4.61111H21.04C21.6356 4.61111 22.2059 4.848 22.6256 5.26817C23.0451 5.68818 23.28 6.25683 23.28 6.84877V9.08642Z" fill="white"/>
</svg>
