<svg width="36" height="36" viewBox="0 0 36 36" fill="none" xmlns="http://www.w3.org/2000/svg">
<path fill-rule="evenodd" clip-rule="evenodd" d="M8.49044 2C8.84302 2 9.12884 2.28985 9.12884 2.64741V7.09835C9.12884 7.4559 8.84302 7.74576 8.49044 7.74576C8.13786 7.74576 7.85204 7.4559 7.85204 7.09835V2.64741C7.85204 2.28985 8.13786 2 8.49044 2ZM14.3425 2C14.6951 2 14.9809 2.28985 14.9809 2.64741V7.09835C14.9809 7.4559 14.6951 7.74576 14.3425 7.74576C13.9899 7.74576 13.7041 7.4559 13.7041 7.09835V2.64741C13.7041 2.28985 13.9899 2 14.3425 2ZM20.1945 2C20.5471 2 20.8329 2.28985 20.8329 2.64741V7.09835C20.8329 7.4559 20.5471 7.74576 20.1945 7.74576C19.8419 7.74576 19.5561 7.4559 19.5561 7.09835V2.64741C19.5561 2.28985 19.8419 2 20.1945 2ZM2 13.0329C2 12.6754 2.28582 12.3855 2.6384 12.3855H27.5096C29.2309 12.3855 30.8818 13.079 32.099 14.3133C33.3162 15.5477 34 17.2219 34 18.9675C34 20.7132 33.3162 22.3873 32.099 23.6217C30.8818 24.8561 29.2309 25.5495 27.5096 25.5495H26.685V26.3857C26.685 28.1314 26.0011 29.8056 24.7839 31.0399C23.5668 32.2743 21.9159 32.9677 20.1945 32.9677H8.49044C6.76907 32.9677 5.1182 32.2743 3.90101 31.0399C2.68381 29.8056 2 28.1314 2 26.3857V13.0329ZM26.685 24.2547H27.5096C28.8923 24.2547 30.2184 23.6977 31.1962 22.7061C32.1739 21.7146 32.7232 20.3698 32.7232 18.9675C32.7232 17.5653 32.1739 16.2205 31.1962 15.2289C30.2184 14.2374 28.8923 13.6803 27.5096 13.6803H26.685V24.2547ZM25.4081 13.6803V26.3857C25.4081 27.788 24.8589 29.1328 23.8811 30.1243C22.9034 31.1159 21.5773 31.6729 20.1945 31.6729H8.49044C7.1077 31.6729 5.78159 31.1159 4.80385 30.1243C3.8261 29.1328 3.27681 27.788 3.27681 26.3857V13.6803H25.4081Z" fill="white"/>
</svg>
