<svg width="181" height="76" viewBox="0 0 181 76" fill="none" xmlns="http://www.w3.org/2000/svg">
<path fill-rule="evenodd" clip-rule="evenodd" d="M8.20899 48.8047C13.028 52.3687 14.4402 55.8035 14.4402 55.8035C14.4402 55.8035 12.0556 57.2735 5.47986 52.3302C4.01103 51.2231 0.590556 46.7742 1.37937 46.0347C1.85312 45.5945 6.52935 47.5615 8.20899 48.8047Z" fill="#F93822"/>
<path fill-rule="evenodd" clip-rule="evenodd" d="M6.40456 39.0654C10.496 43.4439 11.2621 47.0805 11.2621 47.0805C11.2621 47.0805 8.65087 48.0923 3.08155 42.0373C1.83713 40.6829 -0.717462 35.6851 0.191491 35.102C0.73777 34.7549 4.98106 37.5386 6.40456 39.0654Z" fill="#F93822"/>
<path fill-rule="evenodd" clip-rule="evenodd" d="M5.36855 20.5373C5.01721 18.7315 5.42522 13.1506 6.48604 13.1415C7.12299 13.137 9.2605 17.7378 9.67531 19.7864C10.8721 25.6577 9.65944 29.14 9.65944 29.14C9.65944 29.14 6.95072 28.6114 5.36855 20.5373Z" fill="#F93822"/>
<path fill-rule="evenodd" clip-rule="evenodd" d="M9.60291 38.9451C9.60291 38.9451 6.81258 39.1969 3.1269 31.8397C2.30408 30.1927 1.22512 24.6844 2.25874 24.3759C2.87982 24.1921 6.18923 28.0374 7.13898 29.8977C9.86811 35.2381 9.60291 38.9451 9.60291 38.9451Z" fill="#F93822"/>
<path fill-rule="evenodd" clip-rule="evenodd" d="M15.7389 65.8921C19.3951 66.6998 21.9021 67.9453 23.3052 68.7892C23.0037 68.3151 22.7362 67.8795 22.5073 67.4984L22.505 67.5006C22.505 67.5006 20.5443 66.3799 21.0158 58.2218C21.1201 56.3978 22.5934 51.096 23.4049 51.3274C23.8923 51.4658 24.57 56.3933 24.4612 58.4669C24.2504 62.5822 23.3936 65.3273 22.8881 66.6295C24.2821 68.7075 28.1854 74.0026 32.8526 75.7154C31.4903 75.9423 30.3343 76.0738 30.0464 75.9559C27.9837 75.1187 25.7963 72.4553 24.1733 70.0982C23.2916 70.6268 20.9138 71.3596 15.0679 70.0234C13.2342 69.6037 8.05473 66.9766 8.38567 66.0305C8.58287 65.4611 13.6535 65.4293 15.7389 65.8921Z" fill="#F93822"/>
<path fill-rule="evenodd" clip-rule="evenodd" d="M10.7249 57.9178C16.2262 60.6062 18.4861 63.7142 18.4861 63.7142C18.4861 63.7142 16.6342 65.5201 9.10418 61.7745C7.42001 60.9351 2.99992 57.1647 3.54393 56.3253C3.86807 55.8193 8.80724 56.9809 10.7249 57.9178Z" fill="#F93822"/>
<path fill-rule="evenodd" clip-rule="evenodd" d="M21.0838 51.7562C19.7623 57.3529 17.4729 59.9574 17.4729 59.9574C17.4729 59.9574 15.5553 58.4918 17.4208 50.8215C17.8401 49.1064 20.3063 44.3604 21.1405 44.7461C21.6414 44.9752 21.5462 49.8051 21.0838 51.7562Z" fill="#F93822"/>
<path fill-rule="evenodd" clip-rule="evenodd" d="M14.4536 42.9833C14.9998 41.3045 17.8128 36.7559 18.6152 37.2028C19.0981 37.4682 18.6424 42.2778 18.0372 44.1903C16.3032 49.6713 13.8257 52.0988 13.8257 52.0988C13.8257 52.0988 12.0214 50.4926 14.4536 42.9833Z" fill="#F93822"/>
<path fill-rule="evenodd" clip-rule="evenodd" d="M10.6797 31.9736C10.6797 31.9736 9.68685 29.7707 14.966 23.9085C16.147 22.5995 20.5694 19.5936 21.1224 20.3286C21.4534 20.7687 19.0801 24.9748 17.7473 26.4721C13.9301 30.7689 10.6797 31.9736 10.6797 31.9736Z" fill="#F93822"/>
<path fill-rule="evenodd" clip-rule="evenodd" d="M20.0117 13.6951C21.3355 12.6878 25.9618 10.6709 26.3449 11.4491C26.5761 11.9142 23.6407 15.4011 22.1447 16.5581C17.8538 19.8771 14.6283 20.4261 14.6283 20.4261C14.6283 20.4261 14.0933 18.2119 20.0117 13.6951Z" fill="#F93822"/>
<path fill-rule="evenodd" clip-rule="evenodd" d="M27.7118 7.26345C23.4503 10.9863 20.1251 11.7599 20.1251 11.7599C20.1251 11.7599 19.4292 9.48672 25.3136 4.41402C26.6305 3.28196 31.3226 0.895344 31.7692 1.68257C32.0389 2.15218 29.1987 5.96578 27.7118 7.26345Z" fill="#F93822"/>
<path fill-rule="evenodd" clip-rule="evenodd" d="M14.0795 33.1918C15.0724 31.7331 19.0436 28.1532 19.6897 28.8043C20.0773 29.1945 18.3002 33.6841 17.1849 35.3516C13.9889 40.1294 10.9333 41.7673 10.9333 41.7673C10.9333 41.7673 9.64811 39.7233 14.0795 33.1918Z" fill="#F93822"/>
<path fill-rule="evenodd" clip-rule="evenodd" d="M12.1599 21.8214C12.1599 21.8214 10.0155 20.7143 10.5097 12.8352C10.623 11.0748 12.2211 5.97031 13.1096 6.20171C13.6423 6.3401 14.3948 11.1111 14.2815 13.1143C13.9574 18.8562 12.1599 21.8214 12.1599 21.8214Z" fill="#F93822"/>
<path fill-rule="evenodd" clip-rule="evenodd" d="M16.3895 13.3865C16.3895 13.3865 14.796 11.8915 17.176 5.15813C17.7087 3.65401 20.3608 -0.393256 21.0771 0.0309814C21.5077 0.282801 20.9819 4.62046 20.388 6.33556C18.6879 11.2495 16.3895 13.3865 16.3895 13.3865Z" fill="#F93822"/>
<path fill-rule="evenodd" clip-rule="evenodd" d="M172.757 48.8047C167.938 52.3687 166.526 55.8035 166.526 55.8035C166.526 55.8035 168.911 57.2735 175.487 52.3302C176.955 51.2231 180.376 46.7742 179.587 46.0347C179.113 45.5945 174.437 47.5615 172.757 48.8047Z" fill="#F93822"/>
<path fill-rule="evenodd" clip-rule="evenodd" d="M174.562 39.0654C170.47 43.4439 169.704 47.0805 169.704 47.0805C169.704 47.0805 172.315 48.0923 177.885 42.0373C179.129 40.6829 181.684 35.6851 180.775 35.102C180.229 34.7549 175.985 37.5386 174.562 39.0654Z" fill="#F93822"/>
<path fill-rule="evenodd" clip-rule="evenodd" d="M175.598 20.5373C175.949 18.7315 175.541 13.1506 174.48 13.1415C173.843 13.137 171.706 17.7378 171.291 19.7864C170.094 25.6577 171.307 29.14 171.307 29.14C171.307 29.14 174.016 28.6114 175.598 20.5373Z" fill="#F93822"/>
<path fill-rule="evenodd" clip-rule="evenodd" d="M171.363 38.9451C171.363 38.9451 174.154 39.1969 177.839 31.8397C178.662 30.1927 179.741 24.6844 178.708 24.3759C178.087 24.1921 174.777 28.0374 173.827 29.8977C171.098 35.2381 171.363 38.9451 171.363 38.9451Z" fill="#F93822"/>
<path fill-rule="evenodd" clip-rule="evenodd" d="M165.227 65.8921C161.571 66.6998 159.064 67.9453 157.661 68.7892C157.963 68.3151 158.23 67.8795 158.459 67.4984L158.461 67.5006C158.461 67.5006 160.422 66.3799 159.951 58.2218C159.846 56.3978 158.373 51.096 157.561 51.3274C157.074 51.4658 156.396 56.3933 156.505 58.4669C156.716 62.5822 157.573 65.3273 158.078 66.6295C156.684 68.7075 152.781 74.0026 148.114 75.7154C149.476 75.9423 150.632 76.0738 150.92 75.9559C152.983 75.1187 155.17 72.4553 156.793 70.0982C157.675 70.6268 160.053 71.3596 165.898 70.0234C167.732 69.6037 172.912 66.9766 172.581 66.0305C172.383 65.4611 167.313 65.4293 165.227 65.8921Z" fill="#F93822"/>
<path fill-rule="evenodd" clip-rule="evenodd" d="M170.241 57.9178C164.74 60.6062 162.48 63.7142 162.48 63.7142C162.48 63.7142 164.332 65.5201 171.862 61.7745C173.546 60.9351 177.966 57.1647 177.422 56.3253C177.098 55.8193 172.159 56.9809 170.241 57.9178Z" fill="#F93822"/>
<path fill-rule="evenodd" clip-rule="evenodd" d="M159.883 51.7562C161.204 57.3529 163.493 59.9574 163.493 59.9574C163.493 59.9574 165.411 58.4918 163.546 50.8215C163.126 49.1064 160.66 44.3604 159.826 44.7461C159.325 44.9752 159.42 49.8051 159.883 51.7562Z" fill="#F93822"/>
<path fill-rule="evenodd" clip-rule="evenodd" d="M166.513 42.9833C165.967 41.3045 163.154 36.7559 162.351 37.2028C161.868 37.4682 162.324 42.2778 162.929 44.1903C164.663 49.6713 167.141 52.0988 167.141 52.0988C167.141 52.0988 168.945 50.4926 166.513 42.9833Z" fill="#F93822"/>
<path fill-rule="evenodd" clip-rule="evenodd" d="M170.287 31.9736C170.287 31.9736 171.28 29.7707 166 23.9085C164.819 22.5995 160.397 19.5936 159.844 20.3286C159.513 20.7687 161.886 24.9748 163.219 26.4721C167.036 30.7689 170.287 31.9736 170.287 31.9736Z" fill="#F93822"/>
<path fill-rule="evenodd" clip-rule="evenodd" d="M160.955 13.6951C159.631 12.6878 155.005 10.6709 154.621 11.4491C154.39 11.9142 157.326 15.4011 158.822 16.5581C163.113 19.8771 166.338 20.4261 166.338 20.4261C166.338 20.4261 166.873 18.2119 160.955 13.6951Z" fill="#F93822"/>
<path fill-rule="evenodd" clip-rule="evenodd" d="M153.255 7.26345C157.516 10.9863 160.841 11.7599 160.841 11.7599C160.841 11.7599 161.537 9.48672 155.653 4.41402C154.336 3.28196 149.644 0.895344 149.197 1.68257C148.927 2.15218 151.768 5.96578 153.255 7.26345Z" fill="#F93822"/>
<path fill-rule="evenodd" clip-rule="evenodd" d="M166.887 33.1918C165.894 31.7331 161.923 28.1532 161.277 28.8043C160.889 29.1945 162.666 33.6841 163.781 35.3516C166.977 40.1294 170.033 41.7673 170.033 41.7673C170.033 41.7673 171.318 39.7233 166.887 33.1918Z" fill="#F93822"/>
<path fill-rule="evenodd" clip-rule="evenodd" d="M168.807 21.8214C168.807 21.8214 170.951 20.7143 170.457 12.8352C170.343 11.0748 168.745 5.97031 167.857 6.20171C167.324 6.3401 166.572 11.1111 166.685 13.1143C167.009 18.8562 168.807 21.8214 168.807 21.8214Z" fill="#F93822"/>
<path fill-rule="evenodd" clip-rule="evenodd" d="M164.577 13.3865C164.577 13.3865 166.17 11.8915 163.79 5.15813C163.258 3.65401 160.606 -0.393256 159.889 0.0309814C159.459 0.282801 159.985 4.62046 160.578 6.33556C162.278 11.2495 164.577 13.3865 164.577 13.3865Z" fill="#F93822"/>
<path d="M76.5333 18.512H77.9733C77.9946 18.16 78.0639 17.824 78.1813 17.504C78.2986 17.1733 78.4586 16.8907 78.6613 16.656C78.8746 16.4107 79.1306 16.2187 79.4293 16.08C79.7279 15.9307 80.0693 15.856 80.4533 15.856C81.0399 15.856 81.5039 16.0213 81.8453 16.352C82.1866 16.6827 82.3573 17.152 82.3573 17.76C82.3573 18.048 82.3199 18.304 82.2453 18.528C82.1706 18.752 82.0639 18.96 81.9253 19.152C81.7973 19.3333 81.6426 19.5093 81.4613 19.68C81.2799 19.84 81.0879 20 80.8853 20.16C80.5119 20.4373 80.1226 20.6933 79.7173 20.928C79.3119 21.1627 78.9119 21.4027 78.5173 21.648C78.1226 21.8933 77.7439 22.1493 77.3813 22.416C77.0186 22.6827 76.6933 22.9867 76.4053 23.328C76.1279 23.6693 75.8933 24.0587 75.7013 24.496C75.5199 24.9227 75.4079 25.424 75.3653 26H82.5813L82.8373 24.8H76.9333C77.0079 24.5973 77.1146 24.4053 77.2533 24.224C77.3919 24.032 77.5413 23.856 77.7013 23.696C77.8719 23.5253 78.0479 23.3707 78.2293 23.232C78.4213 23.0933 78.6079 22.9653 78.7893 22.848C79.1093 22.6453 79.4559 22.4427 79.8293 22.24C80.2026 22.0267 80.5759 21.808 80.9493 21.584C81.3226 21.3493 81.6799 21.104 82.0213 20.848C82.3626 20.5813 82.6613 20.2933 82.9173 19.984C83.1839 19.664 83.3973 19.3173 83.5573 18.944C83.7173 18.56 83.7973 18.1387 83.7973 17.68C83.7973 17.2107 83.7173 16.7893 83.5573 16.416C83.3973 16.0427 83.1733 15.728 82.8853 15.472C82.6079 15.2053 82.2719 15.0027 81.8773 14.864C81.4933 14.7253 81.0719 14.656 80.6133 14.656C80.0053 14.656 79.4613 14.7467 78.9813 14.928C78.5013 15.1093 78.0906 15.3707 77.7493 15.712C77.4079 16.0427 77.1359 16.448 76.9333 16.928C76.7306 17.3973 76.5973 17.9253 76.5333 18.512Z" fill="black"/>
<path d="M86.1759 22.016C86.1759 21.7493 86.2026 21.4133 86.2559 21.008C86.3092 20.6027 86.3946 20.1707 86.5119 19.712C86.6292 19.2533 86.7786 18.7947 86.9599 18.336C87.1412 17.8773 87.3546 17.4667 87.5999 17.104C87.8559 16.7307 88.1492 16.432 88.4799 16.208C88.8106 15.9733 89.1786 15.856 89.5839 15.856C89.9146 15.856 90.1866 15.9147 90.3999 16.032C90.6132 16.1387 90.7839 16.288 90.9119 16.48C91.0399 16.6613 91.1306 16.8747 91.1839 17.12C91.2479 17.3653 91.2852 17.616 91.2959 17.872C91.3172 18.128 91.3226 18.384 91.3119 18.64C91.3119 18.8853 91.3119 19.1147 91.3119 19.328C91.3119 19.488 91.2852 19.744 91.2319 20.096C91.1892 20.4373 91.1146 20.8213 91.0079 21.248C90.9119 21.664 90.7786 22.096 90.6079 22.544C90.4479 22.9813 90.2452 23.3813 89.9999 23.744C89.7546 24.1067 89.4666 24.4053 89.1359 24.64C88.8052 24.8747 88.4319 24.992 88.0159 24.992C87.3439 24.992 86.8692 24.7253 86.5919 24.192C86.3146 23.648 86.1759 22.9227 86.1759 22.016ZM84.7359 21.792C84.7359 22.4107 84.7839 22.9867 84.8799 23.52C84.9866 24.0533 85.1626 24.5173 85.4079 24.912C85.6532 25.3067 85.9732 25.616 86.3679 25.84C86.7732 26.064 87.2746 26.176 87.8719 26.176C88.5012 26.176 89.0559 26.048 89.5359 25.792C90.0159 25.5253 90.4372 25.184 90.7999 24.768C91.1626 24.352 91.4666 23.8827 91.7119 23.36C91.9679 22.8267 92.1706 22.2933 92.3199 21.76C92.4692 21.216 92.5759 20.6987 92.6399 20.208C92.7146 19.7173 92.7519 19.296 92.7519 18.944C92.7519 17.4293 92.4906 16.336 91.9679 15.664C91.4452 14.992 90.6879 14.656 89.6959 14.656C89.1092 14.656 88.5759 14.7733 88.0959 15.008C87.6159 15.2427 87.1946 15.552 86.8319 15.936C86.4692 16.32 86.1546 16.7627 85.8879 17.264C85.6212 17.7653 85.4026 18.2827 85.2319 18.816C85.0612 19.3387 84.9332 19.8613 84.8479 20.384C84.7732 20.896 84.7359 21.3653 84.7359 21.792Z" fill="black"/>
<path d="M97.7385 26L100.155 14.656H99.0985C98.9279 14.976 98.7039 15.2587 98.4265 15.504C98.1599 15.7493 97.8612 15.9573 97.5305 16.128C97.1999 16.288 96.8532 16.4107 96.4905 16.496C96.1385 16.5707 95.7865 16.608 95.4345 16.608L95.2105 17.696C95.7332 17.696 96.2239 17.6747 96.6825 17.632C97.1412 17.5787 97.6265 17.4933 98.1385 17.376L96.2985 26H97.7385Z" fill="black"/>
<path d="M111.141 15.984L111.333 14.848H104.021L103.749 16.048H109.653C108.277 17.4987 107.082 19.056 106.069 20.72C105.056 22.3733 104.256 24.1333 103.669 26H105.221C105.488 25.1573 105.824 24.2773 106.229 23.36C106.634 22.4427 107.093 21.5413 107.605 20.656C108.117 19.76 108.672 18.912 109.269 18.112C109.866 17.3013 110.49 16.592 111.141 15.984Z" fill="black"/>
<path d="M47.3787 33.856L47.6667 32.576H38.4507L38.1787 33.856H42.0187L39.8747 44H41.3947L43.5387 33.856H47.3787Z" fill="black"/>
<path d="M48.7422 32.576L46.3422 44H47.6862L48.6462 39.424C48.7315 39.0933 48.8435 38.7787 48.9822 38.48C49.1209 38.1707 49.3129 37.9093 49.5582 37.696C49.8142 37.4187 50.1235 37.1893 50.4862 37.008C50.8595 36.8267 51.2329 36.736 51.6062 36.736C52.0115 36.736 52.3529 36.832 52.6302 37.024C52.9075 37.2053 53.0462 37.4933 53.0462 37.888C53.0462 37.9627 53.0355 38.0587 53.0142 38.176C53.0035 38.2827 52.9875 38.4 52.9662 38.528C52.9449 38.6453 52.9235 38.7627 52.9022 38.88C52.8809 38.9867 52.8649 39.0827 52.8542 39.168L51.7982 44H53.1582L54.1662 39.28C54.2409 38.96 54.2995 38.656 54.3422 38.368C54.3849 38.08 54.4062 37.8453 54.4062 37.664C54.4062 36.928 54.2142 36.3893 53.8302 36.048C53.4569 35.7067 52.8809 35.536 52.1022 35.536C51.5262 35.536 50.9769 35.6587 50.4542 35.904C49.9315 36.1387 49.4995 36.496 49.1582 36.976L49.1262 36.944L50.1022 32.576H48.7422Z" fill="black"/>
<path d="M56.8648 40.272H63.0888C63.1102 40.1547 63.1368 40 63.1688 39.808C63.2008 39.616 63.2168 39.4133 63.2168 39.2C63.2168 38.0373 62.9342 37.136 62.3688 36.496C61.8142 35.856 60.9288 35.536 59.7128 35.536C59.1475 35.536 58.6035 35.664 58.0808 35.92C57.5688 36.176 57.1155 36.5387 56.7208 37.008C56.3368 37.4773 56.0275 38.0427 55.7928 38.704C55.5688 39.3547 55.4568 40.0747 55.4568 40.864C55.4568 41.2267 55.5102 41.6053 55.6168 42C55.7235 42.384 55.9102 42.7413 56.1768 43.072C56.4435 43.392 56.8008 43.6587 57.2488 43.872C57.7075 44.0747 58.2782 44.176 58.9608 44.176C59.4088 44.176 59.8355 44.1173 60.2408 44C60.6462 43.8827 61.0142 43.712 61.3448 43.488C61.6755 43.2533 61.9582 42.9653 62.1928 42.624C62.4275 42.272 62.5982 41.8667 62.7048 41.408H61.3448C61.1528 41.92 60.8595 42.3147 60.4648 42.592C60.0702 42.8587 59.5688 42.992 58.9608 42.992C58.6835 42.992 58.4168 42.9493 58.1608 42.864C57.9048 42.768 57.6755 42.64 57.4728 42.48C57.2702 42.3093 57.1102 42.1013 56.9928 41.856C56.8755 41.6 56.8168 41.312 56.8168 40.992C56.8168 40.7467 56.8328 40.5067 56.8648 40.272ZM61.8568 39.072H57.0568C57.1528 38.752 57.2808 38.4533 57.4408 38.176C57.6008 37.888 57.7982 37.6373 58.0328 37.424C58.2675 37.2107 58.5395 37.0453 58.8488 36.928C59.1688 36.8 59.5262 36.736 59.9208 36.736C60.2942 36.736 60.6088 36.8053 60.8648 36.944C61.1208 37.072 61.3235 37.248 61.4728 37.472C61.6328 37.6853 61.7395 37.936 61.7928 38.224C61.8568 38.5013 61.8782 38.784 61.8568 39.072Z" fill="black"/>
<path d="M70.8717 32.576L68.4557 44H76.4077L76.6957 42.72H70.2637L71.0957 38.768H77.0317L77.2877 37.488H71.3677L72.1357 33.856H78.4877L78.7437 32.576H70.8717Z" fill="black"/>
<path d="M80.941 39.616L77.085 44H78.717L81.533 40.608L83.037 44H84.589L82.477 39.728L86.029 35.728H84.381L81.917 38.736L80.669 35.728H79.101L80.941 39.616Z" fill="black"/>
<path d="M92.4841 38.352H93.8441C93.8121 37.3813 93.5188 36.672 92.9641 36.224C92.4201 35.7653 91.6788 35.536 90.7401 35.536C90.0041 35.536 89.3481 35.68 88.7721 35.968C88.2068 36.2453 87.7268 36.624 87.3321 37.104C86.9481 37.5733 86.6548 38.112 86.4521 38.72C86.2601 39.328 86.1641 39.9627 86.1641 40.624C86.1641 41.7547 86.4468 42.6293 87.0121 43.248C87.5881 43.8667 88.4414 44.176 89.5721 44.176C90.5428 44.176 91.3534 43.9307 92.0041 43.44C92.6548 42.9493 93.1028 42.2347 93.3481 41.296H91.9881C91.7961 41.808 91.4921 42.2187 91.0761 42.528C90.6601 42.8373 90.1588 42.992 89.5721 42.992C89.1881 42.992 88.8628 42.928 88.5961 42.8C88.3401 42.672 88.1321 42.5013 87.9721 42.288C87.8121 42.0747 87.6948 41.824 87.6201 41.536C87.5561 41.248 87.5241 40.944 87.5241 40.624C87.5241 40.176 87.5934 39.7227 87.7321 39.264C87.8708 38.7947 88.0734 38.3733 88.3401 38C88.6174 37.6267 88.9534 37.3227 89.3481 37.088C89.7534 36.8533 90.2174 36.736 90.7401 36.736C91.2841 36.736 91.7108 36.88 92.0201 37.168C92.3294 37.4453 92.4841 37.84 92.4841 38.352Z" fill="black"/>
<path d="M95.9898 40.272H102.214C102.235 40.1547 102.262 40 102.294 39.808C102.326 39.616 102.342 39.4133 102.342 39.2C102.342 38.0373 102.059 37.136 101.494 36.496C100.939 35.856 100.054 35.536 98.8378 35.536C98.2725 35.536 97.7285 35.664 97.2058 35.92C96.6938 36.176 96.2405 36.5387 95.8458 37.008C95.4618 37.4773 95.1525 38.0427 94.9178 38.704C94.6938 39.3547 94.5818 40.0747 94.5818 40.864C94.5818 41.2267 94.6352 41.6053 94.7418 42C94.8485 42.384 95.0352 42.7413 95.3018 43.072C95.5685 43.392 95.9258 43.6587 96.3738 43.872C96.8325 44.0747 97.4032 44.176 98.0858 44.176C98.5338 44.176 98.9605 44.1173 99.3658 44C99.7712 43.8827 100.139 43.712 100.47 43.488C100.801 43.2533 101.083 42.9653 101.318 42.624C101.553 42.272 101.723 41.8667 101.83 41.408H100.47C100.278 41.92 99.9845 42.3147 99.5898 42.592C99.1952 42.8587 98.6938 42.992 98.0858 42.992C97.8085 42.992 97.5418 42.9493 97.2858 42.864C97.0298 42.768 96.8005 42.64 96.5978 42.48C96.3952 42.3093 96.2352 42.1013 96.1178 41.856C96.0005 41.6 95.9418 41.312 95.9418 40.992C95.9418 40.7467 95.9578 40.5067 95.9898 40.272ZM100.982 39.072H96.1818C96.2778 38.752 96.4058 38.4533 96.5658 38.176C96.7258 37.888 96.9232 37.6373 97.1578 37.424C97.3925 37.2107 97.6645 37.0453 97.9738 36.928C98.2938 36.8 98.6512 36.736 99.0458 36.736C99.4192 36.736 99.7338 36.8053 99.9898 36.944C100.246 37.072 100.449 37.248 100.598 37.472C100.758 37.6853 100.865 37.936 100.918 38.224C100.982 38.5013 101.003 38.784 100.982 39.072Z" fill="black"/>
<path d="M105.336 32.576L102.952 44H104.296L106.696 32.576H105.336Z" fill="black"/>
<path d="M108.882 32.576L106.498 44H107.842L110.242 32.576H108.882Z" fill="black"/>
<path d="M111.677 40.272H117.901C117.923 40.1547 117.949 40 117.981 39.808C118.013 39.616 118.029 39.4133 118.029 39.2C118.029 38.0373 117.747 37.136 117.181 36.496C116.627 35.856 115.741 35.536 114.525 35.536C113.96 35.536 113.416 35.664 112.893 35.92C112.381 36.176 111.928 36.5387 111.533 37.008C111.149 37.4773 110.84 38.0427 110.605 38.704C110.381 39.3547 110.269 40.0747 110.269 40.864C110.269 41.2267 110.323 41.6053 110.429 42C110.536 42.384 110.723 42.7413 110.989 43.072C111.256 43.392 111.613 43.6587 112.061 43.872C112.52 44.0747 113.091 44.176 113.773 44.176C114.221 44.176 114.648 44.1173 115.053 44C115.459 43.8827 115.827 43.712 116.157 43.488C116.488 43.2533 116.771 42.9653 117.005 42.624C117.24 42.272 117.411 41.8667 117.517 41.408H116.157C115.965 41.92 115.672 42.3147 115.277 42.592C114.883 42.8587 114.381 42.992 113.773 42.992C113.496 42.992 113.229 42.9493 112.973 42.864C112.717 42.768 112.488 42.64 112.285 42.48C112.083 42.3093 111.923 42.1013 111.805 41.856C111.688 41.6 111.629 41.312 111.629 40.992C111.629 40.7467 111.645 40.5067 111.677 40.272ZM116.669 39.072H111.869C111.965 38.752 112.093 38.4533 112.253 38.176C112.413 37.888 112.611 37.6373 112.845 37.424C113.08 37.2107 113.352 37.0453 113.661 36.928C113.981 36.8 114.339 36.736 114.733 36.736C115.107 36.736 115.421 36.8053 115.677 36.944C115.933 37.072 116.136 37.248 116.285 37.472C116.445 37.6853 116.552 37.936 116.605 38.224C116.669 38.5013 116.691 38.784 116.669 39.072Z" fill="black"/>
<path d="M120.367 35.728L118.639 44H119.983L120.943 39.424C121.028 39.0933 121.14 38.7787 121.279 38.48C121.418 38.1707 121.61 37.9093 121.855 37.696C122.111 37.4187 122.42 37.1893 122.783 37.008C123.156 36.8267 123.53 36.736 123.903 36.736C124.308 36.736 124.65 36.832 124.927 37.024C125.204 37.2053 125.343 37.4933 125.343 37.888C125.343 37.9627 125.332 38.0587 125.311 38.176C125.3 38.2827 125.284 38.4 125.263 38.528C125.242 38.6453 125.22 38.7627 125.199 38.88C125.178 38.9867 125.162 39.0827 125.151 39.168L124.095 44H125.455L126.463 39.28C126.538 38.96 126.596 38.656 126.639 38.368C126.682 38.08 126.703 37.8453 126.703 37.664C126.703 36.928 126.511 36.3893 126.127 36.048C125.754 35.7067 125.178 35.536 124.399 35.536C123.823 35.536 123.274 35.6587 122.751 35.904C122.228 36.1387 121.796 36.496 121.455 36.976H121.423L121.679 35.728H120.367Z" fill="black"/>
<path d="M134.25 38.352H135.61C135.578 37.3813 135.284 36.672 134.73 36.224C134.186 35.7653 133.444 35.536 132.506 35.536C131.77 35.536 131.114 35.68 130.538 35.968C129.972 36.2453 129.492 36.624 129.098 37.104C128.714 37.5733 128.42 38.112 128.218 38.72C128.026 39.328 127.93 39.9627 127.93 40.624C127.93 41.7547 128.212 42.6293 128.778 43.248C129.354 43.8667 130.207 44.176 131.338 44.176C132.308 44.176 133.119 43.9307 133.77 43.44C134.42 42.9493 134.868 42.2347 135.114 41.296H133.754C133.562 41.808 133.258 42.2187 132.842 42.528C132.426 42.8373 131.924 42.992 131.338 42.992C130.954 42.992 130.628 42.928 130.362 42.8C130.106 42.672 129.898 42.5013 129.738 42.288C129.578 42.0747 129.46 41.824 129.386 41.536C129.322 41.248 129.29 40.944 129.29 40.624C129.29 40.176 129.359 39.7227 129.498 39.264C129.636 38.7947 129.839 38.3733 130.106 38C130.383 37.6267 130.719 37.3227 131.114 37.088C131.519 36.8533 131.983 36.736 132.506 36.736C133.05 36.736 133.476 36.88 133.786 37.168C134.095 37.4453 134.25 37.84 134.25 38.352Z" fill="black"/>
<path d="M137.755 40.272H143.979C144.001 40.1547 144.027 40 144.059 39.808C144.091 39.616 144.107 39.4133 144.107 39.2C144.107 38.0373 143.825 37.136 143.259 36.496C142.705 35.856 141.819 35.536 140.603 35.536C140.038 35.536 139.494 35.664 138.971 35.92C138.459 36.176 138.006 36.5387 137.611 37.008C137.227 37.4773 136.918 38.0427 136.683 38.704C136.459 39.3547 136.347 40.0747 136.347 40.864C136.347 41.2267 136.401 41.6053 136.507 42C136.614 42.384 136.801 42.7413 137.067 43.072C137.334 43.392 137.691 43.6587 138.139 43.872C138.598 44.0747 139.169 44.176 139.851 44.176C140.299 44.176 140.726 44.1173 141.131 44C141.537 43.8827 141.905 43.712 142.235 43.488C142.566 43.2533 142.849 42.9653 143.083 42.624C143.318 42.272 143.489 41.8667 143.595 41.408H142.235C142.043 41.92 141.75 42.3147 141.355 42.592C140.961 42.8587 140.459 42.992 139.851 42.992C139.574 42.992 139.307 42.9493 139.051 42.864C138.795 42.768 138.566 42.64 138.363 42.48C138.161 42.3093 138.001 42.1013 137.883 41.856C137.766 41.6 137.707 41.312 137.707 40.992C137.707 40.7467 137.723 40.5067 137.755 40.272ZM142.747 39.072H137.947C138.043 38.752 138.171 38.4533 138.331 38.176C138.491 37.888 138.689 37.6373 138.923 37.424C139.158 37.2107 139.43 37.0453 139.739 36.928C140.059 36.8 140.417 36.736 140.811 36.736C141.185 36.736 141.499 36.8053 141.755 36.944C142.011 37.072 142.214 37.248 142.363 37.472C142.523 37.6853 142.63 37.936 142.683 38.224C142.747 38.5013 142.769 38.784 142.747 39.072Z" fill="black"/>
<path d="M70.4687 50.576L63.6047 62H65.2847L67.2847 58.56H72.1007L72.6287 62H74.1967L72.1327 50.576H70.4687ZM67.9727 57.28L71.0287 51.92H71.0607L71.9087 57.28H67.9727Z" fill="black"/>
<path d="M82.7793 62L87.0513 53.728H85.5793L82.4433 60.304H82.4113L82.0113 53.728H80.4753L77.4993 60.304H77.4673L76.9553 53.728H75.5153L76.4913 62H77.9313L80.8913 55.568H80.9233L81.3393 62H82.7793Z" fill="black"/>
<path d="M87.848 56.224H89.208C89.2506 55.9573 89.3413 55.7333 89.48 55.552C89.6186 55.36 89.7893 55.2053 89.992 55.088C90.1946 54.96 90.4186 54.8693 90.664 54.816C90.92 54.7627 91.176 54.736 91.432 54.736C91.6133 54.736 91.8 54.752 91.992 54.784C92.1946 54.816 92.376 54.8747 92.536 54.96C92.696 55.0347 92.8293 55.1413 92.936 55.28C93.0426 55.4187 93.096 55.6 93.096 55.824C93.096 56.1013 93.0533 56.32 92.968 56.48C92.8933 56.64 92.7706 56.7627 92.6 56.848C92.4293 56.9333 92.2106 56.9973 91.944 57.04C91.688 57.072 91.3786 57.104 91.016 57.136C90.5573 57.1787 90.0826 57.232 89.592 57.296C89.1013 57.36 88.6533 57.4827 88.248 57.664C87.8426 57.8347 87.5066 58.0907 87.24 58.432C86.984 58.7733 86.856 59.248 86.856 59.856C86.856 60.2827 86.92 60.6453 87.048 60.944C87.1866 61.232 87.368 61.472 87.592 61.664C87.816 61.8453 88.0773 61.9733 88.376 62.048C88.6853 62.1333 89.016 62.176 89.368 62.176C90.072 62.176 90.6373 62.0747 91.064 61.872C91.4906 61.6693 91.848 61.376 92.136 60.992L92.168 61.024C92.1253 61.3867 92.2 61.6693 92.392 61.872C92.584 62.0747 92.8666 62.176 93.24 62.176C93.3573 62.176 93.496 62.1547 93.656 62.112C93.8266 62.08 93.9653 62.0427 94.072 62L94.28 60.992C94.216 61.0133 94.1413 61.04 94.056 61.072C93.9813 61.0933 93.912 61.104 93.848 61.104C93.7306 61.104 93.6346 61.0667 93.56 60.992C93.4853 60.9173 93.448 60.784 93.448 60.592C93.448 60.4 93.4746 60.1973 93.528 59.984C93.592 59.7707 93.64 59.5787 93.672 59.408L94.2 57.152C94.2533 56.928 94.3066 56.6827 94.36 56.416C94.424 56.1387 94.456 55.8827 94.456 55.648C94.456 55.232 94.3706 54.8907 94.2 54.624C94.04 54.3467 93.8213 54.128 93.544 53.968C93.2666 53.808 92.9466 53.696 92.584 53.632C92.2213 53.568 91.8373 53.536 91.432 53.536C90.9946 53.536 90.5733 53.5893 90.168 53.696C89.7626 53.8027 89.4 53.968 89.08 54.192C88.76 54.416 88.488 54.6987 88.264 55.04C88.0506 55.3707 87.912 55.7653 87.848 56.224ZM88.2 59.84C88.2106 59.488 88.3013 59.216 88.472 59.024C88.6426 58.8213 88.8613 58.6667 89.128 58.56C89.3946 58.4533 89.6933 58.3787 90.024 58.336C90.3653 58.2827 90.7013 58.24 91.032 58.208C91.3626 58.176 91.672 58.1333 91.96 58.08C92.2586 58.016 92.504 57.9147 92.696 57.776H92.728C92.632 58.16 92.5413 58.5333 92.456 58.896C92.3813 59.2587 92.232 59.5947 92.008 59.904C91.5386 60.6293 90.7653 60.992 89.688 60.992C89.304 60.992 88.9573 60.896 88.648 60.704C88.3493 60.512 88.2 60.224 88.2 59.84Z" fill="black"/>
<path d="M96.9448 53.728L95.2328 62H96.5768L97.3608 58.336C97.4248 58.0267 97.5102 57.696 97.6168 57.344C97.7235 56.9813 97.8675 56.6667 98.0488 56.4C98.2622 56.0693 98.5128 55.7867 98.8008 55.552C99.0995 55.3173 99.4355 55.152 99.8088 55.056C99.9688 55.0133 100.102 54.992 100.209 54.992C100.316 54.9813 100.454 54.976 100.625 54.976H100.817C100.913 54.976 100.982 54.9813 101.025 54.992L101.345 53.536C101.26 53.5147 101.18 53.5093 101.105 53.52C101.03 53.5307 100.95 53.536 100.865 53.536C100.172 53.536 99.5742 53.7227 99.0728 54.096C98.5822 54.4693 98.1768 54.9387 97.8568 55.504H97.8248L98.2248 53.728H96.9448Z" fill="black"/>
<path d="M107.624 62L110.04 50.576H108.696L107.816 54.992H107.784C107.698 54.7147 107.565 54.4853 107.384 54.304C107.202 54.112 106.989 53.9627 106.744 53.856C106.509 53.7387 106.258 53.6587 105.992 53.616C105.725 53.5627 105.464 53.536 105.208 53.536C104.482 53.536 103.832 53.696 103.256 54.016C102.69 54.3253 102.21 54.7307 101.816 55.232C101.432 55.7333 101.133 56.2987 100.92 56.928C100.717 57.5467 100.616 58.1707 100.616 58.8C100.616 59.3013 100.685 59.76 100.824 60.176C100.962 60.592 101.17 60.9493 101.448 61.248C101.725 61.536 102.066 61.7653 102.472 61.936C102.877 62.096 103.341 62.176 103.864 62.176C104.418 62.176 104.909 62.0853 105.336 61.904C105.773 61.712 106.194 61.3493 106.6 60.816H106.632L106.344 62H107.624ZM101.976 58.8C101.976 58.3413 102.045 57.872 102.184 57.392C102.322 56.912 102.53 56.4747 102.808 56.08C103.085 55.6853 103.426 55.3653 103.832 55.12C104.237 54.864 104.712 54.736 105.256 54.736C105.928 54.736 106.44 54.9387 106.792 55.344C107.154 55.7493 107.336 56.2613 107.336 56.88C107.336 57.3067 107.261 57.7653 107.112 58.256C106.973 58.736 106.765 59.1787 106.488 59.584C106.221 59.9893 105.885 60.3253 105.48 60.592C105.074 60.8587 104.616 60.992 104.104 60.992C103.357 60.992 102.813 60.7947 102.472 60.4C102.141 60.0053 101.976 59.472 101.976 58.8Z" fill="black"/>
<path d="M115.508 56.16H116.868C116.868 55.68 116.777 55.2747 116.596 54.944C116.415 54.6027 116.175 54.3307 115.876 54.128C115.588 53.9147 115.257 53.7653 114.884 53.68C114.511 53.584 114.132 53.536 113.748 53.536C113.364 53.536 112.985 53.5893 112.612 53.696C112.249 53.8027 111.924 53.9573 111.636 54.16C111.348 54.352 111.113 54.5973 110.932 54.896C110.761 55.1947 110.676 55.536 110.676 55.92C110.676 56.2293 110.735 56.5013 110.852 56.736C110.98 56.9707 111.145 57.1787 111.348 57.36C111.561 57.5307 111.796 57.68 112.052 57.808C112.319 57.936 112.591 58.0533 112.868 58.16C113.135 58.2773 113.396 58.3893 113.652 58.496C113.919 58.592 114.153 58.6987 114.356 58.816C114.559 58.9333 114.724 59.0667 114.852 59.216C114.98 59.3547 115.044 59.5253 115.044 59.728C115.044 59.9627 114.985 60.16 114.868 60.32C114.761 60.48 114.617 60.6133 114.436 60.72C114.255 60.816 114.052 60.8853 113.828 60.928C113.604 60.9707 113.38 60.992 113.156 60.992C112.868 60.992 112.591 60.9653 112.324 60.912C112.068 60.8587 111.839 60.7733 111.636 60.656C111.444 60.528 111.289 60.3627 111.172 60.16C111.065 59.9467 111.023 59.6907 111.044 59.392H109.7C109.7 59.9253 109.785 60.3733 109.956 60.736C110.127 61.088 110.356 61.3707 110.644 61.584C110.943 61.7973 111.295 61.9467 111.7 62.032C112.105 62.128 112.548 62.176 113.028 62.176C113.433 62.176 113.833 62.128 114.228 62.032C114.633 61.9467 114.996 61.8027 115.316 61.6C115.636 61.3973 115.897 61.136 116.1 60.816C116.303 60.4853 116.404 60.0907 116.404 59.632C116.404 59.312 116.34 59.0347 116.212 58.8C116.084 58.5547 115.919 58.3467 115.716 58.176C115.513 57.9947 115.279 57.8347 115.012 57.696C114.756 57.5573 114.489 57.4293 114.212 57.312C113.945 57.2053 113.679 57.104 113.412 57.008C113.156 56.9013 112.921 56.7893 112.708 56.672C112.505 56.5547 112.34 56.4267 112.212 56.288C112.095 56.1493 112.036 55.984 112.036 55.792C112.036 55.5787 112.089 55.408 112.196 55.28C112.303 55.1413 112.436 55.0347 112.596 54.96C112.767 54.8747 112.959 54.816 113.172 54.784C113.385 54.752 113.593 54.736 113.796 54.736C114.276 54.736 114.687 54.8587 115.028 55.104C115.369 55.3387 115.529 55.6907 115.508 56.16Z" fill="black"/>
</svg>
