<svg width="158" height="76" viewBox="0 0 158 76" fill="none" xmlns="http://www.w3.org/2000/svg">
<path fill-rule="evenodd" clip-rule="evenodd" d="M9.17579 48.8047C13.9948 52.3687 15.407 55.8035 15.407 55.8035C15.407 55.8035 13.0224 57.2735 6.44666 52.3302C4.97783 51.2231 1.55735 46.7742 2.34617 46.0347C2.81991 45.5945 7.49615 47.5615 9.17579 48.8047Z" fill="#F93822"/>
<path fill-rule="evenodd" clip-rule="evenodd" d="M7.37135 39.0654C11.4628 43.4439 12.2289 47.0805 12.2289 47.0805C12.2289 47.0805 9.61767 48.0923 4.04835 42.0373C2.80392 40.6829 0.249335 35.6851 1.15829 35.102C1.70457 34.7549 5.94786 37.5386 7.37135 39.0654Z" fill="#F93822"/>
<path fill-rule="evenodd" clip-rule="evenodd" d="M6.33535 20.5373C5.98401 18.7315 6.39201 13.1506 7.45284 13.1415C8.08978 13.137 10.2273 17.7378 10.6421 19.7864C11.8389 25.6577 10.6262 29.14 10.6262 29.14C10.6262 29.14 7.91751 28.6114 6.33535 20.5373Z" fill="#F93822"/>
<path fill-rule="evenodd" clip-rule="evenodd" d="M10.5697 38.9451C10.5697 38.9451 7.77937 39.1969 4.09369 31.8397C3.27088 30.1927 2.19192 24.6844 3.22554 24.3759C3.84662 24.1921 7.15603 28.0374 8.10578 29.8977C10.8349 35.2381 10.5697 38.9451 10.5697 38.9451Z" fill="#F93822"/>
<path fill-rule="evenodd" clip-rule="evenodd" d="M16.7057 65.8921C20.3619 66.6998 22.8689 67.9453 24.272 68.7892C23.9705 68.3151 23.703 67.8795 23.4741 67.4984L23.4718 67.5006C23.4718 67.5006 21.5111 66.3799 21.9826 58.2218C22.0869 56.3979 23.5602 51.096 24.3717 51.3274C24.8591 51.4658 25.5368 56.3933 25.428 58.4669C25.2172 62.5822 24.3604 65.3273 23.8549 66.6295C25.2489 68.7075 29.1522 74.0026 33.8194 75.7154C32.4571 75.9423 31.3011 76.0738 31.0132 75.9559C28.9505 75.1187 26.7631 72.4553 25.1401 70.0982C24.2584 70.6268 21.8806 71.3596 16.0347 70.0234C14.201 69.6037 9.02152 66.9766 9.35246 66.0305C9.54967 65.4611 14.6203 65.4293 16.7057 65.8921Z" fill="#F93822"/>
<path fill-rule="evenodd" clip-rule="evenodd" d="M11.6917 57.9178C17.193 60.6062 19.4529 63.7142 19.4529 63.7142C19.4529 63.7142 17.601 65.5201 10.071 61.7745C8.38681 60.9351 3.96671 57.1646 4.51072 56.3253C4.83487 55.8193 9.77404 56.9809 11.6917 57.9178Z" fill="#F93822"/>
<path fill-rule="evenodd" clip-rule="evenodd" d="M22.0506 51.7562C20.7291 57.3529 18.4397 59.9574 18.4397 59.9574C18.4397 59.9574 16.5221 58.4918 18.3876 50.8215C18.8069 49.1064 21.2731 44.3604 22.1073 44.7461C22.6082 44.9752 22.513 49.8051 22.0506 51.7562Z" fill="#F93822"/>
<path fill-rule="evenodd" clip-rule="evenodd" d="M15.4204 42.9833C15.9666 41.3045 18.7796 36.7559 19.582 37.2028C20.0649 37.4682 19.6092 42.2778 19.004 44.1903C17.27 49.6713 14.7925 52.0988 14.7925 52.0988C14.7925 52.0988 12.9882 50.4926 15.4204 42.9833Z" fill="#F93822"/>
<path fill-rule="evenodd" clip-rule="evenodd" d="M11.6465 31.9736C11.6465 31.9736 10.6537 29.7707 15.9328 23.9085C17.1138 22.5995 21.5362 19.5936 22.0892 20.3286C22.4202 20.7687 20.0469 24.9748 18.7141 26.4721C14.8969 30.7689 11.6465 31.9736 11.6465 31.9736Z" fill="#F93822"/>
<path fill-rule="evenodd" clip-rule="evenodd" d="M20.9785 13.6951C22.3023 12.6878 26.9286 10.6709 27.3117 11.4491C27.5429 11.9142 24.6075 15.4011 23.1115 16.5581C18.8206 19.8771 15.5951 20.4261 15.5951 20.4261C15.5951 20.4261 15.0601 18.2119 20.9785 13.6951Z" fill="#F93822"/>
<path fill-rule="evenodd" clip-rule="evenodd" d="M28.6786 7.26345C24.4171 10.9863 21.0919 11.7599 21.0919 11.7599C21.0919 11.7599 20.396 9.48672 26.2804 4.41402C27.5973 3.28196 32.2894 0.895344 32.736 1.68257C33.0057 2.15218 30.1655 5.96578 28.6786 7.26345Z" fill="#F93822"/>
<path fill-rule="evenodd" clip-rule="evenodd" d="M15.0463 33.1918C16.0392 31.7331 20.0104 28.1532 20.6565 28.8043C21.0441 29.1945 19.267 33.6841 18.1517 35.3516C14.9557 40.1294 11.9001 41.7673 11.9001 41.7673C11.9001 41.7673 10.6149 39.7233 15.0463 33.1918Z" fill="#F93822"/>
<path fill-rule="evenodd" clip-rule="evenodd" d="M13.1266 21.8214C13.1266 21.8214 10.9823 20.7143 11.4765 12.8352C11.5898 11.0748 13.1879 5.97031 14.0764 6.20171C14.6091 6.3401 15.3616 11.1111 15.2483 13.1143C14.9242 18.8562 13.1266 21.8214 13.1266 21.8214Z" fill="#F93822"/>
<path fill-rule="evenodd" clip-rule="evenodd" d="M17.3563 13.3865C17.3563 13.3865 15.7628 11.8915 18.1428 5.15813C18.6755 3.65401 21.3276 -0.393256 22.0439 0.0309814C22.4745 0.282802 21.9486 4.62046 21.3548 6.33556C19.6547 11.2495 17.3563 13.3865 17.3563 13.3865Z" fill="#F93822"/>
<path fill-rule="evenodd" clip-rule="evenodd" d="M149.724 48.8047C144.905 52.3687 143.493 55.8035 143.493 55.8035C143.493 55.8035 145.878 57.2735 152.453 52.3302C153.922 51.2231 157.343 46.7742 156.554 46.0347C156.08 45.5945 151.404 47.5615 149.724 48.8047Z" fill="#F93822"/>
<path fill-rule="evenodd" clip-rule="evenodd" d="M151.529 39.0654C147.437 43.4439 146.671 47.0805 146.671 47.0805C146.671 47.0805 149.282 48.0923 154.852 42.0373C156.096 40.6829 158.651 35.6851 157.742 35.102C157.195 34.7549 152.952 37.5386 151.529 39.0654Z" fill="#F93822"/>
<path fill-rule="evenodd" clip-rule="evenodd" d="M152.565 20.5373C152.916 18.7315 152.508 13.1506 151.447 13.1415C150.81 13.137 148.673 17.7378 148.258 19.7864C147.061 25.6577 148.274 29.14 148.274 29.14C148.274 29.14 150.982 28.6114 152.565 20.5373Z" fill="#F93822"/>
<path fill-rule="evenodd" clip-rule="evenodd" d="M148.33 38.9451C148.33 38.9451 151.121 39.1969 154.806 31.8397C155.629 30.1927 156.708 24.6844 155.674 24.3759C155.053 24.1921 151.744 28.0374 150.794 29.8977C148.065 35.2381 148.33 38.9451 148.33 38.9451Z" fill="#F93822"/>
<path fill-rule="evenodd" clip-rule="evenodd" d="M142.194 65.8921C138.538 66.6998 136.031 67.9453 134.628 68.7892C134.929 68.3151 135.197 67.8795 135.426 67.4984L135.428 67.5006C135.428 67.5006 137.389 66.3799 136.917 58.2218C136.813 56.3979 135.34 51.096 134.528 51.3274C134.041 51.4658 133.363 56.3933 133.472 58.4669C133.683 62.5822 134.54 65.3273 135.045 66.6295C133.651 68.7075 129.748 74.0026 125.081 75.7154C126.443 75.9423 127.599 76.0738 127.887 75.9559C129.949 75.1187 132.137 72.4553 133.76 70.0982C134.642 70.6268 137.019 71.3596 142.865 70.0234C144.699 69.6037 149.878 66.9766 149.548 66.0305C149.35 65.4611 144.28 65.4293 142.194 65.8921Z" fill="#F93822"/>
<path fill-rule="evenodd" clip-rule="evenodd" d="M147.208 57.9178C141.707 60.6062 139.447 63.7142 139.447 63.7142C139.447 63.7142 141.299 65.5201 148.829 61.7745C150.513 60.9351 154.933 57.1646 154.389 56.3253C154.065 55.8193 149.126 56.9809 147.208 57.9178Z" fill="#F93822"/>
<path fill-rule="evenodd" clip-rule="evenodd" d="M136.849 51.7562C138.171 57.3529 140.46 59.9574 140.46 59.9574C140.46 59.9574 142.378 58.4918 140.512 50.8215C140.093 49.1064 137.627 44.3604 136.793 44.7461C136.292 44.9752 136.387 49.8051 136.849 51.7562Z" fill="#F93822"/>
<path fill-rule="evenodd" clip-rule="evenodd" d="M143.48 42.9833C142.933 41.3045 140.12 36.7559 139.318 37.2028C138.835 37.4682 139.291 42.2778 139.896 44.1903C141.63 49.6713 144.107 52.0988 144.107 52.0988C144.107 52.0988 145.912 50.4926 143.48 42.9833Z" fill="#F93822"/>
<path fill-rule="evenodd" clip-rule="evenodd" d="M147.253 31.9736C147.253 31.9736 148.246 29.7707 142.967 23.9085C141.786 22.5995 137.364 19.5936 136.811 20.3286C136.48 20.7687 138.853 24.9748 140.186 26.4721C144.003 30.7689 147.253 31.9736 147.253 31.9736Z" fill="#F93822"/>
<path fill-rule="evenodd" clip-rule="evenodd" d="M137.921 13.6951C136.598 12.6878 131.971 10.6709 131.588 11.4491C131.357 11.9142 134.292 15.4011 135.788 16.5581C140.079 19.8771 143.305 20.4261 143.305 20.4261C143.305 20.4261 143.84 18.2119 137.921 13.6951Z" fill="#F93822"/>
<path fill-rule="evenodd" clip-rule="evenodd" d="M130.221 7.26345C134.483 10.9863 137.808 11.7599 137.808 11.7599C137.808 11.7599 138.504 9.48672 132.62 4.41402C131.303 3.28196 126.611 0.895344 126.164 1.68257C125.894 2.15218 128.734 5.96578 130.221 7.26345Z" fill="#F93822"/>
<path fill-rule="evenodd" clip-rule="evenodd" d="M143.854 33.1918C142.861 31.7331 138.89 28.1532 138.244 28.8043C137.856 29.1945 139.633 33.6841 140.748 35.3516C143.944 40.1294 147 41.7673 147 41.7673C147 41.7673 148.285 39.7233 143.854 33.1918Z" fill="#F93822"/>
<path fill-rule="evenodd" clip-rule="evenodd" d="M145.773 21.8214C145.773 21.8214 147.918 20.7143 147.423 12.8352C147.31 11.0748 145.712 5.97031 144.824 6.20171C144.291 6.3401 143.538 11.1111 143.652 13.1143C143.976 18.8562 145.773 21.8214 145.773 21.8214Z" fill="#F93822"/>
<path fill-rule="evenodd" clip-rule="evenodd" d="M141.544 13.3865C141.544 13.3865 143.137 11.8915 140.757 5.15813C140.224 3.65401 137.572 -0.393256 136.856 0.0309814C136.425 0.282802 136.951 4.62046 137.545 6.33556C139.245 11.2495 141.544 13.3865 141.544 13.3865Z" fill="#F93822"/>
<path d="M62.8271 18.512H64.2671C64.2884 18.16 64.3577 17.824 64.4751 17.504C64.5924 17.1733 64.7524 16.8907 64.9551 16.656C65.1684 16.4107 65.4244 16.2187 65.7231 16.08C66.0217 15.9307 66.3631 15.856 66.7471 15.856C67.3337 15.856 67.7977 16.0213 68.1391 16.352C68.4804 16.6827 68.6511 17.152 68.6511 17.76C68.6511 18.048 68.6137 18.304 68.5391 18.528C68.4644 18.752 68.3577 18.96 68.2191 19.152C68.0911 19.3333 67.9364 19.5093 67.7551 19.68C67.5737 19.84 67.3817 20 67.1791 20.16C66.8057 20.4373 66.4164 20.6933 66.0111 20.928C65.6057 21.1627 65.2057 21.4027 64.8111 21.648C64.4164 21.8933 64.0377 22.1493 63.6751 22.416C63.3124 22.6827 62.9871 22.9867 62.6991 23.328C62.4217 23.6693 62.1871 24.0587 61.9951 24.496C61.8137 24.9227 61.7017 25.424 61.6591 26H68.8751L69.1311 24.8H63.2271C63.3017 24.5973 63.4084 24.4053 63.5471 24.224C63.6857 24.032 63.8351 23.856 63.9951 23.696C64.1657 23.5253 64.3417 23.3707 64.5231 23.232C64.7151 23.0933 64.9017 22.9653 65.0831 22.848C65.4031 22.6453 65.7497 22.4427 66.1231 22.24C66.4964 22.0267 66.8697 21.808 67.2431 21.584C67.6164 21.3493 67.9737 21.104 68.3151 20.848C68.6564 20.5813 68.9551 20.2933 69.2111 19.984C69.4777 19.664 69.6911 19.3173 69.8511 18.944C70.0111 18.56 70.0911 18.1387 70.0911 17.68C70.0911 17.2107 70.0111 16.7893 69.8511 16.416C69.6911 16.0427 69.4671 15.728 69.1791 15.472C68.9017 15.2053 68.5657 15.0027 68.1711 14.864C67.7871 14.7253 67.3657 14.656 66.9071 14.656C66.2991 14.656 65.7551 14.7467 65.2751 14.928C64.7951 15.1093 64.3844 15.3707 64.0431 15.712C63.7017 16.0427 63.4297 16.448 63.2271 16.928C63.0244 17.3973 62.8911 17.9253 62.8271 18.512Z" fill="black"/>
<path d="M72.4697 22.016C72.4697 21.7493 72.4964 21.4133 72.5497 21.008C72.603 20.6027 72.6884 20.1707 72.8057 19.712C72.923 19.2533 73.0724 18.7947 73.2537 18.336C73.435 17.8773 73.6484 17.4667 73.8937 17.104C74.1497 16.7307 74.443 16.432 74.7737 16.208C75.1044 15.9733 75.4724 15.856 75.8777 15.856C76.2084 15.856 76.4804 15.9147 76.6937 16.032C76.907 16.1387 77.0777 16.288 77.2057 16.48C77.3337 16.6613 77.4244 16.8747 77.4777 17.12C77.5417 17.3653 77.579 17.616 77.5897 17.872C77.611 18.128 77.6164 18.384 77.6057 18.64C77.6057 18.8853 77.6057 19.1147 77.6057 19.328C77.6057 19.488 77.579 19.744 77.5257 20.096C77.483 20.4373 77.4084 20.8213 77.3017 21.248C77.2057 21.664 77.0724 22.096 76.9017 22.544C76.7417 22.9813 76.539 23.3813 76.2937 23.744C76.0484 24.1067 75.7604 24.4053 75.4297 24.64C75.099 24.8747 74.7257 24.992 74.3097 24.992C73.6377 24.992 73.163 24.7253 72.8857 24.192C72.6084 23.648 72.4697 22.9227 72.4697 22.016ZM71.0297 21.792C71.0297 22.4107 71.0777 22.9867 71.1737 23.52C71.2804 24.0533 71.4564 24.5173 71.7017 24.912C71.947 25.3067 72.267 25.616 72.6617 25.84C73.067 26.064 73.5684 26.176 74.1657 26.176C74.795 26.176 75.3497 26.048 75.8297 25.792C76.3097 25.5253 76.731 25.184 77.0937 24.768C77.4564 24.352 77.7604 23.8827 78.0057 23.36C78.2617 22.8267 78.4644 22.2933 78.6137 21.76C78.763 21.216 78.8697 20.6987 78.9337 20.208C79.0084 19.7173 79.0457 19.296 79.0457 18.944C79.0457 17.4293 78.7844 16.336 78.2617 15.664C77.739 14.992 76.9817 14.656 75.9897 14.656C75.403 14.656 74.8697 14.7733 74.3897 15.008C73.9097 15.2427 73.4884 15.552 73.1257 15.936C72.763 16.32 72.4484 16.7627 72.1817 17.264C71.915 17.7653 71.6964 18.2827 71.5257 18.816C71.355 19.3387 71.227 19.8613 71.1417 20.384C71.067 20.896 71.0297 21.3653 71.0297 21.792Z" fill="black"/>
<path d="M84.0323 26L86.4483 14.656H85.3923C85.2217 14.976 84.9977 15.2587 84.7203 15.504C84.4537 15.7493 84.155 15.9573 83.8243 16.128C83.4937 16.288 83.147 16.4107 82.7843 16.496C82.4323 16.5707 82.0803 16.608 81.7283 16.608L81.5043 17.696C82.027 17.696 82.5177 17.6747 82.9763 17.632C83.435 17.5787 83.9203 17.4933 84.4323 17.376L82.5923 26H84.0323Z" fill="black"/>
<path d="M97.435 15.984L97.6269 14.848H90.3149L90.0429 16.048H95.9469C94.5709 17.4987 93.3763 19.056 92.3629 20.72C91.3496 22.3733 90.5496 24.1333 89.963 26H91.5149C91.7816 25.1573 92.1176 24.2773 92.5229 23.36C92.9283 22.4427 93.3869 21.5413 93.8989 20.656C94.4109 19.76 94.9656 18.912 95.563 18.112C96.1603 17.3013 96.7843 16.592 97.435 15.984Z" fill="black"/>
<path d="M47.228 32.576L44.812 44H52.764L53.052 42.72H46.62L47.452 38.768H53.388L53.644 37.488H47.724L48.492 33.856H54.844L55.1 32.576H47.228Z" fill="black"/>
<path d="M57.7933 44L62.3853 35.728H60.9133L57.3293 42.608H57.2973L56.5933 35.728H55.1533L56.3373 44H57.7933Z" fill="black"/>
<path d="M63.7524 40.272H69.9764C69.9977 40.1547 70.0244 40 70.0564 39.808C70.0884 39.616 70.1044 39.4133 70.1044 39.2C70.1044 38.0373 69.8217 37.136 69.2564 36.496C68.7017 35.856 67.8164 35.536 66.6004 35.536C66.0351 35.536 65.4911 35.664 64.9684 35.92C64.4564 36.176 64.0031 36.5387 63.6084 37.008C63.2244 37.4773 62.9151 38.0427 62.6804 38.704C62.4564 39.3547 62.3444 40.0747 62.3444 40.864C62.3444 41.2267 62.3977 41.6053 62.5044 42C62.6111 42.384 62.7977 42.7413 63.0644 43.072C63.3311 43.392 63.6884 43.6587 64.1364 43.872C64.5951 44.0747 65.1657 44.176 65.8484 44.176C66.2964 44.176 66.7231 44.1173 67.1284 44C67.5337 43.8827 67.9017 43.712 68.2324 43.488C68.5631 43.2533 68.8457 42.9653 69.0804 42.624C69.3151 42.272 69.4857 41.8667 69.5924 41.408H68.2324C68.0404 41.92 67.7471 42.3147 67.3524 42.592C66.9577 42.8587 66.4564 42.992 65.8484 42.992C65.5711 42.992 65.3044 42.9493 65.0484 42.864C64.7924 42.768 64.5631 42.64 64.3604 42.48C64.1577 42.3093 63.9977 42.1013 63.8804 41.856C63.7631 41.6 63.7044 41.312 63.7044 40.992C63.7044 40.7467 63.7204 40.5067 63.7524 40.272ZM68.7444 39.072H63.9444C64.0404 38.752 64.1684 38.4533 64.3284 38.176C64.4884 37.888 64.6857 37.6373 64.9204 37.424C65.1551 37.2107 65.4271 37.0453 65.7364 36.928C66.0564 36.8 66.4137 36.736 66.8084 36.736C67.1817 36.736 67.4964 36.8053 67.7524 36.944C68.0084 37.072 68.2111 37.248 68.3604 37.472C68.5204 37.6853 68.6271 37.936 68.6804 38.224C68.7444 38.5013 68.7657 38.784 68.7444 39.072Z" fill="black"/>
<path d="M72.4421 35.728L70.7141 44H72.0581L73.0181 39.424C73.1035 39.0933 73.2155 38.7787 73.3541 38.48C73.4928 38.1707 73.6848 37.9093 73.9301 37.696C74.1861 37.4187 74.4955 37.1893 74.8581 37.008C75.2315 36.8267 75.6048 36.736 75.9781 36.736C76.3835 36.736 76.7248 36.832 77.0021 37.024C77.2795 37.2053 77.4181 37.4933 77.4181 37.888C77.4181 37.9627 77.4075 38.0587 77.3861 38.176C77.3755 38.2827 77.3595 38.4 77.3381 38.528C77.3168 38.6453 77.2955 38.7627 77.2741 38.88C77.2528 38.9867 77.2368 39.0827 77.2261 39.168L76.1701 44H77.5301L78.5381 39.28C78.6128 38.96 78.6715 38.656 78.7141 38.368C78.7568 38.08 78.7781 37.8453 78.7781 37.664C78.7781 36.928 78.5861 36.3893 78.2021 36.048C77.8288 35.7067 77.2528 35.536 76.4741 35.536C75.8981 35.536 75.3488 35.6587 74.8261 35.904C74.3035 36.1387 73.8715 36.496 73.5301 36.976H73.4981L73.7541 35.728H72.4421Z" fill="black"/>
<path d="M83.2048 35.728L83.7168 33.28H82.3568L81.8448 35.728H80.4528L80.1968 36.928H81.5888L80.5008 42.064C80.4794 42.192 80.4581 42.3093 80.4368 42.416C80.4261 42.5227 80.4208 42.6347 80.4208 42.752C80.4208 43.0187 80.4688 43.2373 80.5648 43.408C80.6714 43.5787 80.8048 43.7173 80.9648 43.824C81.1354 43.92 81.3328 43.984 81.5568 44.016C81.7808 44.0587 82.0208 44.08 82.2768 44.08C82.4368 44.08 82.5968 44.0693 82.7568 44.048C82.9168 44.0373 83.0768 44.0213 83.2368 44L83.4768 42.752C83.3488 42.7947 83.2208 42.832 83.0928 42.864C82.9648 42.8853 82.8314 42.896 82.6928 42.896C82.4794 42.896 82.2874 42.8587 82.1168 42.784C81.9568 42.6987 81.8768 42.5493 81.8768 42.336C81.8768 42.24 81.8821 42.1493 81.8928 42.064C81.9034 41.9787 81.9141 41.888 81.9248 41.792L82.9488 36.928H84.5968L84.8528 35.728H83.2048Z" fill="black"/>
<path d="M88.0436 34.24L88.3956 32.576H87.0196L86.6676 34.24H88.0436ZM86.3636 35.728L84.6516 44H85.9956L87.7236 35.728H86.3636Z" fill="black"/>
<path d="M89.1105 38.224H90.4705C90.5132 37.9573 90.6038 37.7333 90.7425 37.552C90.8812 37.36 91.0518 37.2053 91.2545 37.088C91.4572 36.96 91.6812 36.8693 91.9265 36.816C92.1825 36.7627 92.4385 36.736 92.6945 36.736C92.8758 36.736 93.0625 36.752 93.2545 36.784C93.4572 36.816 93.6385 36.8747 93.7985 36.96C93.9585 37.0347 94.0918 37.1413 94.1985 37.28C94.3052 37.4187 94.3585 37.6 94.3585 37.824C94.3585 38.1013 94.3158 38.32 94.2305 38.48C94.1558 38.64 94.0332 38.7627 93.8625 38.848C93.6918 38.9333 93.4732 38.9973 93.2065 39.04C92.9505 39.072 92.6412 39.104 92.2785 39.136C91.8198 39.1787 91.3452 39.232 90.8545 39.296C90.3638 39.36 89.9158 39.4827 89.5105 39.664C89.1052 39.8347 88.7692 40.0907 88.5025 40.432C88.2465 40.7733 88.1185 41.248 88.1185 41.856C88.1185 42.2827 88.1825 42.6453 88.3105 42.944C88.4492 43.232 88.6305 43.472 88.8545 43.664C89.0785 43.8453 89.3398 43.9733 89.6385 44.048C89.9478 44.1333 90.2785 44.176 90.6305 44.176C91.3345 44.176 91.8998 44.0747 92.3265 43.872C92.7532 43.6693 93.1105 43.376 93.3985 42.992L93.4305 43.024C93.3878 43.3867 93.4625 43.6693 93.6545 43.872C93.8465 44.0747 94.1292 44.176 94.5025 44.176C94.6198 44.176 94.7585 44.1547 94.9185 44.112C95.0892 44.08 95.2278 44.0427 95.3345 44L95.5425 42.992C95.4785 43.0133 95.4038 43.04 95.3185 43.072C95.2438 43.0933 95.1745 43.104 95.1105 43.104C94.9932 43.104 94.8972 43.0667 94.8225 42.992C94.7478 42.9173 94.7105 42.784 94.7105 42.592C94.7105 42.4 94.7372 42.1973 94.7905 41.984C94.8545 41.7707 94.9025 41.5787 94.9345 41.408L95.4625 39.152C95.5158 38.928 95.5692 38.6827 95.6225 38.416C95.6865 38.1387 95.7185 37.8827 95.7185 37.648C95.7185 37.232 95.6332 36.8907 95.4625 36.624C95.3025 36.3467 95.0838 36.128 94.8065 35.968C94.5292 35.808 94.2092 35.696 93.8465 35.632C93.4838 35.568 93.0998 35.536 92.6945 35.536C92.2572 35.536 91.8358 35.5893 91.4305 35.696C91.0252 35.8027 90.6625 35.968 90.3425 36.192C90.0225 36.416 89.7505 36.6987 89.5265 37.04C89.3132 37.3707 89.1745 37.7653 89.1105 38.224ZM89.4625 41.84C89.4732 41.488 89.5638 41.216 89.7345 41.024C89.9052 40.8213 90.1238 40.6667 90.3905 40.56C90.6572 40.4533 90.9558 40.3787 91.2865 40.336C91.6278 40.2827 91.9638 40.24 92.2945 40.208C92.6252 40.176 92.9345 40.1333 93.2225 40.08C93.5212 40.016 93.7665 39.9147 93.9585 39.776H93.9905C93.8945 40.16 93.8038 40.5333 93.7185 40.896C93.6438 41.2587 93.4945 41.5947 93.2705 41.904C92.8012 42.6293 92.0278 42.992 90.9505 42.992C90.5665 42.992 90.2198 42.896 89.9105 42.704C89.6118 42.512 89.4625 42.224 89.4625 41.84Z" fill="black"/>
<path d="M103.839 44L106.255 32.576H104.911L104.031 36.992H103.999C103.914 36.7147 103.781 36.4853 103.599 36.304C103.418 36.112 103.205 35.9627 102.959 35.856C102.725 35.7387 102.474 35.6587 102.207 35.616C101.941 35.5627 101.679 35.536 101.423 35.536C100.698 35.536 100.047 35.696 99.4714 36.016C98.9061 36.3253 98.4261 36.7307 98.0314 37.232C97.6474 37.7333 97.3487 38.2987 97.1354 38.928C96.9327 39.5467 96.8314 40.1707 96.8314 40.8C96.8314 41.3013 96.9007 41.76 97.0394 42.176C97.1781 42.592 97.3861 42.9493 97.6634 43.248C97.9407 43.536 98.2821 43.7653 98.6874 43.936C99.0927 44.096 99.5567 44.176 100.079 44.176C100.634 44.176 101.125 44.0853 101.551 43.904C101.989 43.712 102.41 43.3493 102.815 42.816H102.847L102.559 44H103.839ZM98.1914 40.8C98.1914 40.3413 98.2607 39.872 98.3994 39.392C98.5381 38.912 98.7461 38.4747 99.0234 38.08C99.3007 37.6853 99.6421 37.3653 100.047 37.12C100.453 36.864 100.927 36.736 101.471 36.736C102.143 36.736 102.655 36.9387 103.007 37.344C103.37 37.7493 103.551 38.2613 103.551 38.88C103.551 39.3067 103.477 39.7653 103.327 40.256C103.189 40.736 102.981 41.1787 102.703 41.584C102.437 41.9893 102.101 42.3253 101.695 42.592C101.29 42.8587 100.831 42.992 100.319 42.992C99.5727 42.992 99.0287 42.7947 98.6874 42.4C98.3567 42.0053 98.1914 41.472 98.1914 40.8Z" fill="black"/>
<path d="M106.892 38.224H108.252C108.294 37.9573 108.385 37.7333 108.524 37.552C108.662 37.36 108.833 37.2053 109.036 37.088C109.238 36.96 109.462 36.8693 109.708 36.816C109.964 36.7627 110.22 36.736 110.476 36.736C110.657 36.736 110.844 36.752 111.036 36.784C111.238 36.816 111.42 36.8747 111.58 36.96C111.74 37.0347 111.873 37.1413 111.98 37.28C112.086 37.4187 112.14 37.6 112.14 37.824C112.14 38.1013 112.097 38.32 112.012 38.48C111.937 38.64 111.814 38.7627 111.644 38.848C111.473 38.9333 111.254 38.9973 110.988 39.04C110.732 39.072 110.422 39.104 110.06 39.136C109.601 39.1787 109.126 39.232 108.636 39.296C108.145 39.36 107.697 39.4827 107.292 39.664C106.886 39.8347 106.55 40.0907 106.284 40.432C106.028 40.7733 105.9 41.248 105.9 41.856C105.9 42.2827 105.964 42.6453 106.092 42.944C106.23 43.232 106.412 43.472 106.636 43.664C106.86 43.8453 107.121 43.9733 107.42 44.048C107.729 44.1333 108.06 44.176 108.412 44.176C109.116 44.176 109.681 44.0747 110.108 43.872C110.534 43.6693 110.892 43.376 111.18 42.992L111.212 43.024C111.169 43.3867 111.244 43.6693 111.436 43.872C111.628 44.0747 111.91 44.176 112.284 44.176C112.401 44.176 112.54 44.1547 112.7 44.112C112.87 44.08 113.009 44.0427 113.116 44L113.324 42.992C113.26 43.0133 113.185 43.04 113.1 43.072C113.025 43.0933 112.956 43.104 112.892 43.104C112.774 43.104 112.678 43.0667 112.604 42.992C112.529 42.9173 112.492 42.784 112.492 42.592C112.492 42.4 112.518 42.1973 112.572 41.984C112.636 41.7707 112.684 41.5787 112.716 41.408L113.244 39.152C113.297 38.928 113.35 38.6827 113.404 38.416C113.468 38.1387 113.5 37.8827 113.5 37.648C113.5 37.232 113.414 36.8907 113.244 36.624C113.084 36.3467 112.865 36.128 112.588 35.968C112.31 35.808 111.99 35.696 111.628 35.632C111.265 35.568 110.881 35.536 110.476 35.536C110.038 35.536 109.617 35.5893 109.212 35.696C108.806 35.8027 108.444 35.968 108.124 36.192C107.804 36.416 107.532 36.6987 107.308 37.04C107.094 37.3707 106.956 37.7653 106.892 38.224ZM107.244 41.84C107.254 41.488 107.345 41.216 107.516 41.024C107.686 40.8213 107.905 40.6667 108.172 40.56C108.438 40.4533 108.737 40.3787 109.068 40.336C109.409 40.2827 109.745 40.24 110.076 40.208C110.406 40.176 110.716 40.1333 111.004 40.08C111.302 40.016 111.548 39.9147 111.74 39.776H111.772C111.676 40.16 111.585 40.5333 111.5 40.896C111.425 41.2587 111.276 41.5947 111.052 41.904C110.582 42.6293 109.809 42.992 108.732 42.992C108.348 42.992 108.001 42.896 107.692 42.704C107.393 42.512 107.244 42.224 107.244 41.84Z" fill="black"/>
<path d="M58.9891 50.576L52.1251 62H53.8051L55.8051 58.56H60.6211L61.1491 62H62.7171L60.6531 50.576H58.9891ZM56.4931 57.28L59.5491 51.92H59.5811L60.4291 57.28H56.4931Z" fill="black"/>
<path d="M71.2997 62L75.5717 53.728H74.0997L70.9637 60.304H70.9317L70.5317 53.728H68.9957L66.0197 60.304H65.9877L65.4757 53.728H64.0357L65.0117 62H66.4517L69.4117 55.568H69.4437L69.8597 62H71.2997Z" fill="black"/>
<path d="M76.3683 56.224H77.7283C77.771 55.9573 77.8617 55.7333 78.0003 55.552C78.139 55.36 78.3097 55.2053 78.5123 55.088C78.715 54.96 78.939 54.8693 79.1843 54.816C79.4403 54.7627 79.6963 54.736 79.9523 54.736C80.1337 54.736 80.3203 54.752 80.5123 54.784C80.715 54.816 80.8963 54.8747 81.0563 54.96C81.2163 55.0347 81.3497 55.1413 81.4563 55.28C81.563 55.4187 81.6163 55.6 81.6163 55.824C81.6163 56.1013 81.5737 56.32 81.4883 56.48C81.4137 56.64 81.291 56.7627 81.1203 56.848C80.9497 56.9333 80.731 56.9973 80.4643 57.04C80.2083 57.072 79.899 57.104 79.5363 57.136C79.0777 57.1787 78.603 57.232 78.1123 57.296C77.6217 57.36 77.1737 57.4827 76.7683 57.664C76.363 57.8347 76.027 58.0907 75.7603 58.432C75.5043 58.7733 75.3763 59.248 75.3763 59.856C75.3763 60.2827 75.4403 60.6453 75.5683 60.944C75.707 61.232 75.8883 61.472 76.1123 61.664C76.3363 61.8453 76.5977 61.9733 76.8963 62.048C77.2057 62.1333 77.5363 62.176 77.8883 62.176C78.5923 62.176 79.1577 62.0747 79.5843 61.872C80.011 61.6693 80.3683 61.376 80.6563 60.992L80.6883 61.024C80.6457 61.3867 80.7203 61.6693 80.9123 61.872C81.1043 62.0747 81.387 62.176 81.7603 62.176C81.8777 62.176 82.0163 62.1547 82.1763 62.112C82.347 62.08 82.4857 62.0427 82.5923 62L82.8003 60.992C82.7363 61.0133 82.6617 61.04 82.5763 61.072C82.5017 61.0933 82.4323 61.104 82.3683 61.104C82.251 61.104 82.155 61.0667 82.0803 60.992C82.0057 60.9173 81.9683 60.784 81.9683 60.592C81.9683 60.4 81.995 60.1973 82.0483 59.984C82.1123 59.7707 82.1603 59.5787 82.1923 59.408L82.7203 57.152C82.7737 56.928 82.827 56.6827 82.8803 56.416C82.9443 56.1387 82.9763 55.8827 82.9763 55.648C82.9763 55.232 82.891 54.8907 82.7203 54.624C82.5603 54.3467 82.3417 54.128 82.0643 53.968C81.787 53.808 81.467 53.696 81.1043 53.632C80.7417 53.568 80.3577 53.536 79.9523 53.536C79.515 53.536 79.0937 53.5893 78.6883 53.696C78.283 53.8027 77.9203 53.968 77.6003 54.192C77.2803 54.416 77.0083 54.6987 76.7843 55.04C76.571 55.3707 76.4323 55.7653 76.3683 56.224ZM76.7203 59.84C76.731 59.488 76.8217 59.216 76.9923 59.024C77.163 58.8213 77.3817 58.6667 77.6483 58.56C77.915 58.4533 78.2137 58.3787 78.5443 58.336C78.8857 58.2827 79.2217 58.24 79.5523 58.208C79.883 58.176 80.1923 58.1333 80.4803 58.08C80.779 58.016 81.0243 57.9147 81.2163 57.776H81.2483C81.1523 58.16 81.0617 58.5333 80.9763 58.896C80.9017 59.2587 80.7523 59.5947 80.5283 59.904C80.059 60.6293 79.2857 60.992 78.2083 60.992C77.8243 60.992 77.4777 60.896 77.1683 60.704C76.8697 60.512 76.7203 60.224 76.7203 59.84Z" fill="black"/>
<path d="M85.4652 53.728L83.7532 62H85.0972L85.8812 58.336C85.9452 58.0267 86.0305 57.696 86.1372 57.344C86.2439 56.9813 86.3879 56.6667 86.5692 56.4C86.7825 56.0693 87.0332 55.7867 87.3212 55.552C87.6199 55.3173 87.9559 55.152 88.3292 55.056C88.4892 55.0133 88.6225 54.992 88.7292 54.992C88.8359 54.9813 88.9745 54.976 89.1452 54.976H89.3372C89.4332 54.976 89.5025 54.9813 89.5452 54.992L89.8652 53.536C89.7799 53.5147 89.6999 53.5093 89.6252 53.52C89.5505 53.5307 89.4705 53.536 89.3852 53.536C88.6919 53.536 88.0945 53.7227 87.5932 54.096C87.1025 54.4693 86.6972 54.9387 86.3772 55.504H86.3452L86.7452 53.728H85.4652Z" fill="black"/>
<path d="M96.1441 62L98.5601 50.576H97.2161L96.3361 54.992H96.3041C96.2187 54.7147 96.0854 54.4853 95.9041 54.304C95.7227 54.112 95.5094 53.9627 95.2641 53.856C95.0294 53.7387 94.7787 53.6587 94.5121 53.616C94.2454 53.5627 93.9841 53.536 93.7281 53.536C93.0027 53.536 92.3521 53.696 91.7761 54.016C91.2107 54.3253 90.7307 54.7307 90.3361 55.232C89.9521 55.7333 89.6534 56.2987 89.4401 56.928C89.2374 57.5467 89.1361 58.1707 89.1361 58.8C89.1361 59.3013 89.2054 59.76 89.3441 60.176C89.4827 60.592 89.6907 60.9493 89.9681 61.248C90.2454 61.536 90.5867 61.7653 90.9921 61.936C91.3974 62.096 91.8614 62.176 92.3841 62.176C92.9387 62.176 93.4294 62.0853 93.8561 61.904C94.2934 61.712 94.7147 61.3493 95.1201 60.816H95.1521L94.8641 62H96.1441ZM90.4961 58.8C90.4961 58.3413 90.5654 57.872 90.7041 57.392C90.8427 56.912 91.0507 56.4747 91.3281 56.08C91.6054 55.6853 91.9467 55.3653 92.3521 55.12C92.7574 54.864 93.2321 54.736 93.7761 54.736C94.4481 54.736 94.9601 54.9387 95.3121 55.344C95.6747 55.7493 95.8561 56.2613 95.8561 56.88C95.8561 57.3067 95.7814 57.7653 95.6321 58.256C95.4934 58.736 95.2854 59.1787 95.0081 59.584C94.7414 59.9893 94.4054 60.3253 94.0001 60.592C93.5947 60.8587 93.1361 60.992 92.6241 60.992C91.8774 60.992 91.3334 60.7947 90.9921 60.4C90.6614 60.0053 90.4961 59.472 90.4961 58.8Z" fill="black"/>
<path d="M104.028 56.16H105.388C105.388 55.68 105.298 55.2747 105.116 54.944C104.935 54.6027 104.695 54.3307 104.396 54.128C104.108 53.9147 103.778 53.7653 103.404 53.68C103.031 53.584 102.652 53.536 102.268 53.536C101.884 53.536 101.506 53.5893 101.132 53.696C100.77 53.8027 100.444 53.9573 100.156 54.16C99.8684 54.352 99.6338 54.5973 99.4525 54.896C99.2818 55.1947 99.1964 55.536 99.1964 55.92C99.1964 56.2293 99.2551 56.5013 99.3725 56.736C99.5005 56.9707 99.6658 57.1787 99.8684 57.36C100.082 57.5307 100.316 57.68 100.572 57.808C100.839 57.936 101.111 58.0533 101.388 58.16C101.655 58.2773 101.916 58.3893 102.172 58.496C102.439 58.592 102.674 58.6987 102.876 58.816C103.079 58.9333 103.244 59.0667 103.372 59.216C103.5 59.3547 103.564 59.5253 103.564 59.728C103.564 59.9627 103.506 60.16 103.388 60.32C103.282 60.48 103.138 60.6133 102.956 60.72C102.775 60.816 102.572 60.8853 102.348 60.928C102.124 60.9707 101.9 60.992 101.676 60.992C101.388 60.992 101.111 60.9653 100.844 60.912C100.588 60.8587 100.359 60.7733 100.156 60.656C99.9644 60.528 99.8098 60.3627 99.6925 60.16C99.5858 59.9467 99.5431 59.6907 99.5645 59.392H98.2205C98.2205 59.9253 98.3058 60.3733 98.4764 60.736C98.6471 61.088 98.8765 61.3707 99.1645 61.584C99.4631 61.7973 99.8151 61.9467 100.22 62.032C100.626 62.128 101.068 62.176 101.548 62.176C101.954 62.176 102.354 62.128 102.748 62.032C103.154 61.9467 103.516 61.8027 103.836 61.6C104.156 61.3973 104.418 61.136 104.62 60.816C104.823 60.4853 104.924 60.0907 104.924 59.632C104.924 59.312 104.86 59.0347 104.732 58.8C104.604 58.5547 104.439 58.3467 104.236 58.176C104.034 57.9947 103.799 57.8347 103.532 57.696C103.276 57.5573 103.01 57.4293 102.732 57.312C102.466 57.2053 102.199 57.104 101.932 57.008C101.676 56.9013 101.442 56.7893 101.228 56.672C101.026 56.5547 100.86 56.4267 100.732 56.288C100.615 56.1493 100.556 55.984 100.556 55.792C100.556 55.5787 100.61 55.408 100.716 55.28C100.823 55.1413 100.956 55.0347 101.116 54.96C101.287 54.8747 101.479 54.816 101.692 54.784C101.906 54.752 102.114 54.736 102.316 54.736C102.796 54.736 103.207 54.8587 103.548 55.104C103.89 55.3387 104.05 55.6907 104.028 56.16Z" fill="black"/>
</svg>
