<svg width="200" height="100" viewBox="0 0 200 100" fill="none" xmlns="http://www.w3.org/2000/svg">
<path d="M97.775 30.475H101.075C101.45 30.475 101.75 30.175 101.75 29.8C101.75 29.425 101.45 29.125 101.075 29.125H97.775V30.475ZM97.775 33.625H101.15C101.6 33.625 101.9 33.325 101.9 32.875C101.9 32.425 101.6 32.125 101.15 32.125H97.775V33.625ZM103.1 31.225C103.55 31.675 103.85 32.275 103.85 32.95C103.85 34.3 102.8 35.35 101.45 35.35H95.975V27.475H101.375C102.65 27.475 103.7 28.525 103.7 29.8C103.625 30.325 103.4 30.85 103.1 31.225ZM104.375 44.725H102.35L101.75 43.375H97.325L96.725 44.725H94.7L98.6 36.85H100.4L104.375 44.725ZM99.5 38.875L98.15 41.725H100.85L99.5 38.875ZM102.2 46.45H104.45L100.475 51.55V54.325H98.6V51.55L94.625 46.45H96.875L99.575 50.05L102.2 46.45ZM112.625 46.45V48.175H107.375V49.525H112.475V51.25H107.375V52.75H112.625V54.475H105.5V46.45H112.625ZM118.4 51.325H116.975V54.325H115.1V46.45H119.9C121.25 46.45 122.3 47.575 122.3 48.925C122.3 50.05 121.55 50.95 120.575 51.25L122.9 54.325H120.65L118.4 51.325ZM119.75 48.1H117.05V49.6H119.75C120.2 49.6 120.5 49.225 120.5 48.85C120.5 48.475 120.125 48.1 119.75 48.1ZM95.45 54.325H93.425L92.825 52.975H88.4L87.8 54.325H85.775L89.75 46.45H91.55L95.45 54.325ZM90.575 48.475L89.225 51.325H92L90.575 48.475ZM78.65 49.45H81.95C82.325 49.45 82.625 49.15 82.625 48.775C82.625 48.4 82.325 48.1 81.95 48.1H78.65V49.45ZM78.65 52.6H82.025C82.475 52.6 82.775 52.3 82.775 51.85C82.775 51.4 82.475 51.1 82.025 51.1H78.65V52.6ZM83.975 50.2C84.425 50.65 84.725 51.25 84.725 51.925C84.725 53.275 83.675 54.325 82.325 54.325H76.775V46.45H82.175C83.45 46.45 84.5 47.5 84.5 48.775C84.5 49.3 84.275 49.825 83.975 50.2ZM103.1 55.975V57.7H97.85V59.05H102.95V60.775H97.85V62.275H103.1V64H95.975V55.975H103.1ZM101.75 68.2C101.75 67.75 101.45 67.45 101 67.45H97.775V68.95H101C101.45 68.95 101.75 68.65 101.75 68.2ZM95.9 73.675V65.8H101.15C102.5 65.8 103.55 66.925 103.55 68.275C103.55 69.325 102.95 70.15 102.05 70.525L104.45 73.675H102.2L99.95 70.675H97.775V73.675H95.9Z" fill="#101010"/>
<path d="M127.925 48.7C127.025 33.85 114.65 22 99.5 22C84.35 22 71.975 33.85 71.075 48.7C71.075 49.3 71.15 49.9 71.225 50.5C71.825 55.45 73.7 60.025 76.55 63.85C81.725 70.9 90.05 75.475 99.5 75.475C86.3 75.475 75.5 65.2 74.6 52.3C74.525 51.7 74.525 51.1 74.525 50.5C74.525 49.9 74.525 49.3 74.6 48.7C75.5 35.8 86.3 25.525 99.5 25.525C108.95 25.525 117.275 30.1 122.45 37.15C125.3 40.975 127.175 45.55 127.775 50.5C127.85 51.1 127.925 51.7 127.925 52.225C127.925 51.625 128 51.025 128 50.425C128 49.9 128 49.3 127.925 48.7Z" fill="#101010"/>
<path d="M71.075 52.3C71.975 67.15 84.35 79 99.5 79C114.65 79 127.025 67.15 127.925 52.3C127.925 51.7 127.85 51.1 127.775 50.5C127.175 45.55 125.3 40.975 122.45 37.15C117.275 30.1 108.95 25.525 99.5 25.525C112.7 25.525 123.5 35.8 124.4 48.7C124.475 49.3 124.475 49.9 124.475 50.5C124.475 51.1 124.475 51.7 124.4 52.3C123.5 65.275 112.7 75.475 99.5 75.475C90.05 75.475 81.725 70.9 76.55 63.85C73.7 60.025 71.825 55.45 71.225 50.5C71.15 49.9 71.075 49.3 71.075 48.775C71.075 49.375 71 49.975 71 50.575C71 51.1 71 51.7 71.075 52.3Z" fill="#101010"/>
</svg>
