<svg width="200" height="100" viewBox="0 0 200 100" fill="none" xmlns="http://www.w3.org/2000/svg">
<path d="M54.0446 56.4028H41.9804C41.6453 56.4876 41.3102 56.5724 40.975 56.7421C40.6399 56.9117 40.3048 57.2509 40.1373 57.5053L37.7077 61.7456H57.1444L54.0446 56.4028Z" fill="black"/>
<path d="M47.2585 54.7067C47.5936 54.8763 48.0125 55.0459 48.4314 55.0459H53.2906L43.5722 38L40.4724 43.4276L46.4207 53.7739C46.5882 54.1131 46.9234 54.4523 47.2585 54.7067Z" fill="black"/>
<path d="M42.3993 50.212C42.3993 49.788 42.3155 49.364 42.148 49.0247L39.7184 44.7845L30 61.7456H36.1996L42.0642 51.4841C42.2317 51.1449 42.3993 50.636 42.3993 50.212Z" fill="black"/>
<path d="M71.0517 49.1943C71.0517 48.9399 71.2193 40.8834 71.2193 40.8834L69.041 49.1943H67.3654L65.1872 40.8834C65.1872 40.8834 65.3547 48.8551 65.3547 49.1943H63.5116V39.0177H66.1925L68.1194 46.5654L70.0463 39.0177H72.7273V49.1095H71.0517V49.1943Z" fill="black"/>
<path d="M83.2834 49.1943H81.4403V42.5795L77 48.0071V49.1943H75.1569V39.0177H77V45.6325L81.4403 40.2049V39.0177H83.2834V49.1943Z" fill="black"/>
<path d="M91.7451 49.1943V44.53H87.4724V49.1095H85.6292V39.0177H87.4724V42.8339H91.7451V39.0177H93.672V49.1095H91.7451V49.1943Z" fill="black"/>
<path d="M103.809 39.0177V49.1095H101.966V40.7986H97.7772V49.1943H95.934V39.0177H103.809Z" fill="black"/>
<path d="M110.009 39.0177C112.103 39.0177 113.528 40.2898 113.528 42.4099C113.528 44.2756 112.439 45.7173 109.841 45.7173H107.914V49.1943H106.071V39.0177H110.009ZM107.998 44.1908H109.674C111.014 44.1908 111.684 43.5972 111.684 42.3251C111.684 40.7138 110.344 40.629 109.506 40.629H108.082V44.1908H107.998Z" fill="black"/>
<path d="M119.308 38.7633C122.324 38.7633 124.084 41.3074 124.084 44.0212C124.084 46.311 122.827 49.364 119.225 49.364C116.292 49.364 114.449 46.9046 114.449 44.0212C114.449 41.1378 116.376 38.7633 119.308 38.7633ZM119.308 47.6678C120.816 47.6678 122.157 46.4806 122.157 44.1908C122.157 42.4099 121.235 40.5442 119.225 40.5442C117.549 40.5442 116.376 41.8163 116.376 44.106C116.376 45.6325 117.13 47.6678 119.308 47.6678Z" fill="black"/>
<path d="M133.299 49.1943C133.299 48.9399 133.467 40.8834 133.467 40.8834L131.289 49.1943H129.613L127.435 40.8834C127.435 40.8834 127.602 48.8551 127.602 49.1943H125.759V39.0177H128.44L130.367 46.5654L132.294 39.0177H134.975V49.1095H133.299V49.1943Z" fill="black"/>
<path d="M141.091 40.7138V49.1095H139.248V40.7138H136.567V39.0177H143.939V40.7138H141.091Z" fill="black"/>
<path d="M149.636 38.7633C152.652 38.7633 154.412 41.3074 154.412 44.0212C154.412 46.311 153.155 49.364 149.553 49.364C146.62 49.364 144.777 46.9046 144.777 44.0212C144.861 41.1378 146.704 38.7633 149.636 38.7633ZM149.636 47.6678C151.144 47.6678 152.485 46.4806 152.485 44.1908C152.485 42.4099 151.563 40.5442 149.553 40.5442C147.877 40.5442 146.704 41.8163 146.704 44.106C146.788 45.6325 147.542 47.6678 149.636 47.6678Z" fill="black"/>
<path d="M160.109 39.0177C162.203 39.0177 163.627 40.2898 163.627 42.4099C163.627 44.2756 162.622 45.7173 159.941 45.7173H158.014V49.1943H156.171V39.0177H160.109ZM158.098 44.1908H159.774C161.114 44.1908 161.784 43.5972 161.784 42.3251C161.784 40.7138 160.444 40.629 159.606 40.629H158.182V44.1908H158.098Z" fill="black"/>
<path d="M171 39.0177V40.7138H166.895V49.1095H165.052V39.0177H171Z" fill="black"/>
<path d="M67.4492 51.6537C69.5437 51.6537 70.9679 52.9258 70.9679 55.0459C70.9679 56.9117 69.9626 58.3534 67.2816 58.3534H65.3547V61.7456H63.5116V51.6537H67.4492ZM65.4385 56.8269H67.1141C68.4545 56.8269 69.1248 56.2332 69.1248 55.0459C69.1248 53.4346 67.7843 53.3498 66.9465 53.3498H65.5223V56.8269H65.4385Z" fill="black"/>
<path d="M76.7487 51.3993C79.7647 51.3993 81.5241 53.9435 81.5241 56.6572C81.5241 58.947 80.2674 62 76.6649 62C73.7326 62 71.8895 59.5406 71.8895 56.6572C71.8895 53.7739 73.8164 51.3993 76.7487 51.3993ZM76.7487 60.3039C78.2567 60.3039 79.5971 59.1166 79.5971 56.8269C79.5971 55.0459 78.6756 53.1802 76.6649 53.1802C74.9893 53.1802 73.8164 54.4523 73.8164 56.7421C73.8164 58.2686 74.5704 60.3039 76.7487 60.3039Z" fill="black"/>
<path d="M91.6613 58.947C91.3262 59.7951 90.2371 62 87.3886 62C85.0428 62 82.697 60.3887 82.697 56.5724C82.697 54.2827 83.9537 51.3145 87.4724 51.3145C90.0695 51.3145 91.0749 53.0106 91.5775 54.4523L89.7344 54.9611C89.6506 53.8587 88.7291 53.0954 87.5561 53.0954C85.9643 53.0954 84.7914 54.3675 84.7914 56.5724C84.7914 57.9293 85.3779 60.1343 87.5561 60.1343C88.8128 60.1343 89.6506 59.1166 89.9857 58.0989L91.6613 58.947Z" fill="black"/>
<path d="M101.715 58.947C101.38 59.7951 100.291 62 97.3583 62C95.0125 62 92.6667 60.3887 92.6667 56.5724C92.6667 54.2827 93.9234 51.3145 97.4421 51.3145C100.039 51.3145 101.045 53.0106 101.463 54.4523L99.6203 54.9611C99.5365 53.8587 98.615 53.0954 97.4421 53.0954C95.8503 53.0954 94.6774 54.3675 94.6774 56.5724C94.6774 57.9293 95.2638 60.1343 97.4421 60.1343C98.6988 60.1343 99.5365 59.1166 99.8717 58.0989L101.715 58.947Z" fill="black"/>
<path d="M111.266 61.7456H109.422V55.1307L104.982 60.5583V61.7456H103.139V51.6537H104.982V58.1837L109.422 52.7562V51.5689H111.266V61.7456Z" fill="black"/>
<path d="M121.738 61.7456H119.895V55.1307L115.455 60.5583V61.7456H113.611V51.6537H115.455V58.1837L119.895 52.7562V51.5689H121.738V61.7456Z" fill="black"/>
</svg>
