<svg width="200" height="100" viewBox="0 0 200 100" fill="none" xmlns="http://www.w3.org/2000/svg">
<path d="M68.607 39L78.9646 64V39H68.607ZM51 39V64L61.3576 39H51ZM60.4695 58.9018H65.1992L67.2748 63.9896H71.5604L64.91 48.1308L60.4695 58.9018Z" fill="#101010"/>
<path d="M96.3237 55.1304L95.1878 58.5884C95.1465 58.7137 95.0845 58.7555 94.9606 58.7555H92.8849C92.761 58.7555 92.7197 58.6929 92.7404 58.5466L97.0156 46.2503C97.0982 46.0414 97.1602 45.8324 97.2015 45.122C97.2015 45.0384 97.2428 44.9758 97.3254 44.9758H100.207C100.31 44.9758 100.33 44.9967 100.351 45.1011L105.143 58.5779C105.163 58.7033 105.143 58.766 105.019 58.766H102.695C102.592 58.766 102.53 58.7242 102.489 58.6406L101.281 55.1408H96.3237V55.1304ZM100.62 52.8425C100.186 51.453 99.2048 48.5382 98.7918 47.0756H98.7711C98.4407 48.486 97.6042 50.9411 96.9846 52.8425H100.62Z" fill="#101010"/>
<path d="M105.886 53.6782C105.886 50.6381 108.127 48.2039 111.783 48.2039C112.072 48.2039 112.32 48.2248 112.671 48.2666V43.9624C112.671 43.8579 112.712 43.8161 112.795 43.8161H115.056C115.16 43.8161 115.16 43.8579 115.16 43.9415V56.6139C115.16 57.0318 115.201 57.575 115.242 57.9616C115.242 58.066 115.221 58.1078 115.118 58.1496C113.765 58.7346 112.444 58.9645 111.194 58.9645C108.189 58.9749 105.886 57.2094 105.886 53.6782ZM112.671 50.471C112.402 50.3665 112.072 50.3247 111.7 50.3247C109.852 50.3247 108.468 51.5261 108.468 53.5529C108.468 55.8408 109.821 56.781 111.473 56.781C111.886 56.781 112.299 56.7392 112.681 56.6139V50.471H112.671Z" fill="#101010"/>
<path d="M127.128 53.532C127.128 56.781 125.073 58.9645 122.151 58.9645C118.681 58.9645 117.153 56.2587 117.153 53.5947C117.153 50.6172 119.084 48.2039 122.192 48.2039C125.393 48.2039 127.128 50.659 127.128 53.532ZM119.683 53.5529C119.683 55.4856 120.612 56.8228 122.192 56.8228C123.483 56.8228 124.577 55.7572 124.577 53.5947C124.577 51.85 123.834 50.3247 122.068 50.3247C120.684 50.3247 119.683 51.5575 119.683 53.5529Z" fill="#101010"/>
<path d="M131.403 43.8161C131.548 43.8161 131.589 43.837 131.589 43.9833L131.61 48.4964C132.168 48.3084 132.818 48.2039 133.5 48.2039C136.484 48.2039 138.395 50.3456 138.395 53.1559C138.395 57.0422 135.41 58.9645 132.333 58.9645C131.259 58.9645 130.216 58.8182 129.224 58.5048C129.142 58.4839 129.08 58.3794 129.08 58.3168V43.9624C129.08 43.8579 129.142 43.8161 129.224 43.8161H131.403ZM133.066 50.3665C132.343 50.3665 131.951 50.471 131.61 50.5963V56.7288C131.899 56.8124 132.209 56.8333 132.56 56.8333C134.264 56.8333 135.834 55.7468 135.834 53.417C135.844 51.4112 134.708 50.3665 133.066 50.3665Z" fill="#101010"/>
<path d="M142.401 54.1692C142.463 55.6423 143.413 56.8124 145.53 56.8124C146.46 56.8124 147.317 56.6452 148.102 56.3109C148.164 56.2691 148.226 56.29 148.226 56.3945V58.1392C148.226 58.2645 148.184 58.3272 148.102 58.369C147.317 58.7451 146.398 58.9749 144.993 58.9749C141.214 58.9749 139.871 56.29 139.871 53.7096C139.871 50.7948 141.616 48.2144 144.745 48.2144C147.812 48.2144 149 50.6486 149 52.644C149 53.229 148.979 53.7096 148.917 53.9499C148.897 54.0334 148.855 54.0752 148.752 54.0961C148.463 54.1588 147.637 54.1797 146.615 54.1797H142.401V54.1692ZM145.489 52.3619C146.274 52.3619 146.542 52.3619 146.625 52.341C146.625 52.2783 146.625 52.1947 146.625 52.1738C146.625 51.5679 146.212 50.2202 144.632 50.2202C143.196 50.2202 142.556 51.3276 142.391 52.3619H145.489Z" fill="#101010"/>
</svg>
