<svg width="141" height="40" viewBox="0 0 141 40" fill="none" xmlns="http://www.w3.org/2000/svg">
<path fill-rule="evenodd" clip-rule="evenodd" d="M55.7461 12.9609C54.8117 12.9609 54.0384 13.122 53.3618 13.412C52.6851 13.7019 52.1052 14.1208 51.6541 14.6364V13.3475H47.5298V32.5834H51.6541V25.7848C52.1052 26.3003 52.6851 26.7192 53.3618 27.0092C54.0384 27.2992 54.8439 27.4603 55.7461 27.4603C56.6483 27.4603 57.486 27.2669 58.2916 26.9125C59.0649 26.5581 59.7737 26.0426 60.3859 25.3659C60.9981 24.7215 61.4492 23.9482 61.8036 23.0782C62.1581 22.2083 62.3192 21.2416 62.3192 20.2106C62.3192 19.1795 62.1258 18.2129 61.8036 17.3429C61.4492 16.4729 60.9981 15.6996 60.3859 15.0552C59.7737 14.4108 59.0971 13.8953 58.2916 13.5086C57.5183 13.1542 56.6483 12.9609 55.7461 12.9609ZM54.9406 23.5615C54.2962 23.5615 53.7484 23.4327 53.2651 23.1427C52.7818 22.8849 52.3951 22.4983 52.1052 21.9827C51.8152 21.4994 51.6863 20.8872 51.6863 20.2106C51.6863 19.5339 51.8474 18.9217 52.1052 18.4384C52.3951 17.9551 52.7818 17.5685 53.2651 17.2785C53.7484 17.0207 54.3284 16.8596 54.9406 16.8596C55.585 16.8596 56.1328 16.9885 56.6161 17.2785C57.0994 17.5362 57.486 17.9229 57.776 18.4384C58.066 18.9217 58.1949 19.5339 58.1949 20.2106C58.1949 20.8872 58.0338 21.4994 57.776 21.9827C57.486 22.466 57.0994 22.8527 56.6161 23.1427C56.1328 23.4004 55.5528 23.5615 54.9406 23.5615ZM71.2444 27.4603C72.2754 27.4603 73.2098 27.2669 74.0798 26.9125C74.9498 26.5581 75.7231 26.0426 76.3997 25.3659C77.0763 24.7215 77.5919 23.9482 77.9463 23.0782C78.333 22.2083 78.4941 21.2416 78.5263 20.2106C78.5263 19.1795 78.333 18.2129 77.9463 17.3429C77.5597 16.4729 77.0441 15.6996 76.3997 15.0552C75.7231 14.4108 74.9498 13.8953 74.0798 13.5086C73.2098 13.1542 72.2432 12.9609 71.2444 12.9609C70.2133 12.9609 69.2789 13.1542 68.4089 13.5086C67.539 13.8631 66.7657 14.3786 66.089 15.0552C65.4124 15.6996 64.8968 16.4729 64.5424 17.3429C64.1558 18.2129 63.9947 19.1795 63.9624 20.2106C63.9624 21.2416 64.1558 22.2083 64.5424 23.0782C64.9291 23.9482 65.4446 24.7215 66.089 25.3659C66.7657 26.0103 67.539 26.5259 68.4089 26.9125C69.2789 27.2669 70.2133 27.4603 71.2444 27.4603ZM71.2444 23.4327C70.6322 23.4327 70.1166 23.3038 69.6333 23.0138C69.15 22.756 68.7956 22.3694 68.5056 21.8861C68.2156 21.4027 68.0867 20.8228 68.0867 20.1783C68.0867 19.5339 68.2478 18.954 68.5056 18.4706C68.7956 17.9873 69.15 17.6007 69.6333 17.3429C70.1166 17.0851 70.6322 16.924 71.2444 16.924C71.8566 16.924 72.3721 17.0529 72.8554 17.3429C73.3387 17.6007 73.6932 17.9873 73.9831 18.4706C74.2731 18.954 74.402 19.5339 74.402 20.1783C74.402 20.8228 74.2409 21.4027 73.9831 21.8861C73.6932 22.3694 73.3387 22.756 72.8554 23.0138C72.3721 23.3038 71.8566 23.4327 71.2444 23.4327ZM80.8462 27.0736H84.9705V7H80.8462V27.0736V27.0736ZM96.6666 13.3475L94.089 21.7572L91.028 13.3475H86.4848L91.9624 26.4614C91.7691 27.0092 91.5113 27.4603 91.2213 27.7825C90.9313 28.1047 90.5769 28.3625 90.1258 28.4913C89.6747 28.6524 89.1592 28.7169 88.5148 28.7169V32.5512C89.8036 32.6156 90.9313 32.4545 91.898 32.0679C92.8968 31.6812 93.7345 31.0368 94.4756 30.1668C95.2167 29.2646 95.8289 28.1047 96.3444 26.6547L101.049 13.3153H96.6666V13.3475ZM102.563 27.0736H106.687V7H102.563V27.0736ZM116.289 27.4603C117.32 27.4603 118.255 27.2669 119.125 26.9125C119.995 26.5581 120.768 26.0426 121.445 25.3659C122.121 24.7215 122.637 23.9482 122.991 23.0782C123.378 22.2083 123.539 21.2416 123.571 20.2106C123.571 19.1795 123.378 18.2129 122.991 17.3429C122.604 16.4729 122.089 15.6996 121.445 15.0552C120.768 14.4108 119.995 13.8953 119.125 13.5086C118.255 13.1542 117.288 12.9609 116.289 12.9609C115.258 12.9609 114.324 13.1542 113.454 13.5086C112.584 13.8631 111.81 14.3786 111.134 15.0552C110.457 15.6996 109.942 16.4729 109.587 17.3429C109.201 18.2129 109.039 19.1795 109.007 20.2106C109.007 21.2416 109.201 22.2083 109.587 23.0782C109.974 23.9482 110.489 24.7215 111.134 25.3659C111.81 26.0103 112.584 26.5259 113.454 26.9125C114.324 27.2669 115.29 27.4603 116.289 27.4603ZM116.289 23.4327C115.677 23.4327 115.161 23.3038 114.678 23.0138C114.195 22.756 113.84 22.3694 113.55 21.8861C113.26 21.4027 113.132 20.8228 113.132 20.1783C113.132 19.5339 113.293 18.954 113.55 18.4706C113.84 17.9873 114.195 17.6007 114.678 17.3429C115.161 17.0851 115.677 16.924 116.289 16.924C116.901 16.924 117.417 17.0529 117.9 17.3429C118.384 17.6007 118.738 17.9873 119.028 18.4706C119.318 18.954 119.447 19.5339 119.447 20.1783C119.447 20.8228 119.286 21.4027 119.028 21.8861C118.738 22.3694 118.384 22.756 117.9 23.0138C117.449 23.3038 116.901 23.4327 116.289 23.4327ZM136.008 13.3475V14.733C135.557 14.153 135.01 13.7342 134.333 13.412C133.656 13.0898 132.883 12.9609 132.013 12.9286C131.046 12.9286 130.144 13.122 129.306 13.4764C128.501 13.8308 127.76 14.3464 127.18 14.9908C126.568 15.6352 126.117 16.3763 125.762 17.214C125.44 18.0518 125.247 18.954 125.247 19.8884C125.247 20.855 125.408 21.725 125.762 22.5627C126.084 23.4004 126.568 24.1415 127.18 24.7859C127.792 25.4304 128.501 25.9459 129.306 26.3003C130.112 26.6547 131.014 26.8481 132.013 26.8481C132.915 26.8481 133.688 26.687 134.333 26.3648C135.01 26.0425 135.557 25.6237 136.008 25.0437V26.3003C136.008 26.9447 135.879 27.4925 135.622 27.9436C135.364 28.3947 135.01 28.7169 134.558 28.9102C134.107 29.1358 133.56 29.2324 132.915 29.2324C132.303 29.2324 131.82 29.1358 131.401 29.0069C130.982 28.8458 130.66 28.6524 130.402 28.3947C130.144 28.1369 129.919 27.8469 129.758 27.5247L126.245 29.5546C126.664 30.2957 127.212 30.9079 127.856 31.4234C128.501 31.9068 129.242 32.2934 130.08 32.5189C130.917 32.7767 131.787 32.8734 132.754 32.8734C133.495 32.8734 134.204 32.8089 134.913 32.6478C135.622 32.4867 136.266 32.229 136.878 31.9068C137.491 31.5845 138.038 31.1335 138.489 30.6179C138.94 30.1024 139.327 29.4902 139.585 28.7813C139.843 28.0725 139.972 27.2347 140.004 26.3325V13.3475H136.008ZM132.657 23.1104C132.013 23.1104 131.433 22.9816 130.917 22.6916C130.434 22.4338 130.047 22.0472 129.758 21.5638C129.468 21.0805 129.339 20.5328 129.339 19.8884C129.339 19.2439 129.5 18.6962 129.758 18.2129C130.047 17.7296 130.434 17.3751 130.917 17.0851C131.401 16.8274 131.981 16.6985 132.657 16.6663C133.302 16.6663 133.882 16.7952 134.397 17.0851C134.881 17.3429 135.267 17.7296 135.557 18.2129C135.847 18.6962 135.976 19.2439 135.976 19.8884C135.976 20.5328 135.815 21.0805 135.557 21.5638C135.267 22.0472 134.881 22.4016 134.397 22.6916C133.914 22.9816 133.334 23.1104 132.657 23.1104Z" fill="black"/>
<path fill-rule="evenodd" clip-rule="evenodd" d="M20 40C31.0164 40 40 31.0164 40 20C40 8.98361 31.0164 0 20 0C8.98361 0 0 9.01639 0 20.0328C0 31.0492 8.98361 40 20 40Z" fill="#E63410"/>
<path fill-rule="evenodd" clip-rule="evenodd" d="M10.6016 10.634C13.5337 8.89411 16.9813 7.86304 20.6545 7.86304C24.3277 7.86304 27.7431 8.86188 30.7074 10.634C32.4473 13.5661 33.4784 17.0138 33.4784 20.687C33.4784 24.3601 32.4796 27.7755 30.7074 30.7399C27.7753 32.4798 24.3277 33.5109 20.6545 33.5109C16.9813 33.5109 13.5337 32.512 10.6016 30.7399C8.82941 27.7755 7.83057 24.3279 7.83057 20.687C7.83057 17.0138 8.86163 13.5661 10.6016 10.634Z" fill="#EB5B32"/>
<path d="M26.6156 14.7261H14.6938V26.6478H26.6156V14.7261Z" fill="white"/>
</svg>
