<svg width="200" height="100" viewBox="0 0 200 100" fill="none" xmlns="http://www.w3.org/2000/svg">
<path fill-rule="evenodd" clip-rule="evenodd" d="M78.8889 29C83.1652 29 87.0627 30.5818 89.9858 33.2L87.4957 35.6C85.1681 33.6364 82.1367 32.4364 78.8889 32.4364C71.4729 32.4364 65.4644 38.4909 65.4644 45.9636C65.4644 53.4364 71.4729 59.5455 78.8889 59.5455C80.8917 59.5455 82.7863 59.1091 84.4644 58.3455L79.5926 53.4364L81.9202 51.0909L89.7151 59C89.2279 59.4364 88.6866 59.8182 88.1453 60.2C85.4929 61.9455 82.2991 62.9818 78.8889 62.9818C69.5783 62.9818 62 55.3455 62 45.9636C62 36.5818 69.5783 29 78.8889 29Z" fill="black"/>
<path fill-rule="evenodd" clip-rule="evenodd" d="M97.7265 45.6364L89.2279 37.0727L91.7721 34.6182L100.217 43.1273L109.148 34.1273L111.692 36.5818L102.707 45.6364L111.584 54.5818L109.04 56.9818L100.217 48.1455L91.8262 56.6L89.3362 54.0909L97.7265 45.6364Z" fill="black"/>
<path fill-rule="evenodd" clip-rule="evenodd" d="M121.111 29C130.422 29 138 36.6364 138 46.0182C138 55.4 130.422 63.0364 121.111 63.0364C118.892 63.0364 116.726 62.6 114.778 61.7818V70.7818H111.422V59.5455L113.749 57.3091C115.86 58.7273 118.405 59.5455 121.111 59.5455C128.527 59.5455 134.536 53.4909 134.536 46.0182C134.536 38.5455 128.527 32.4909 121.111 32.4909C118.188 32.4909 115.481 33.4182 113.316 35L110.772 32.6C113.641 30.3091 117.214 29 121.111 29Z" fill="black"/>
<path d="M95.453 70.9455H94.8575V67.2909H95.453V70.0182L97.4558 67.2909H98.0513V70.9455H97.4017V68.2182L95.453 70.9455ZM101.462 68.7091V71H100.812V65.8727H101.462V68.1091H103.627V65.8727H104.276V71H103.627V68.7091H101.462ZM106.279 66.4727V70.9455H105.63V65.8182H109.094V70.9455H108.444V66.4727H106.279Z" fill="black"/>
<path d="M91.5014 60.2V64.7273H90.8518V59.5455H93.5043V60.2H91.5014ZM97.7806 60.6909L95.1823 64.6727H94.5328V59.5455H95.2365V63.5273L97.8348 59.5455H98.4843V64.6727H97.7806V60.6909ZM101.624 60.4182L100.162 64.7273H99.4046L101.245 59.6H101.895L103.735 64.7273H103.031L101.624 60.4182ZM108.336 63.4727H109.202C108.769 64.3455 108.011 64.7818 106.929 64.7818C106.171 64.7818 105.575 64.5091 105.088 63.9636C104.601 63.4182 104.33 62.8182 104.33 62.0545C104.33 61.3455 104.601 60.6909 105.088 60.2C105.575 59.6545 106.225 59.4364 106.929 59.4364C107.416 59.4364 107.903 59.5455 108.282 59.7636C108.715 59.9818 108.986 60.3636 109.202 60.8H108.39C108.066 60.3091 107.578 60.0909 106.929 60.0909C106.442 60.0909 105.954 60.3091 105.575 60.6909C105.197 61.0727 105.034 61.5636 105.034 62.0545C105.034 62.6 105.197 63.0364 105.575 63.4727C105.954 63.9091 106.387 64.0727 106.929 64.0727C107.578 64.1273 108.011 63.9091 108.336 63.4727Z" fill="black"/>
</svg>
