<svg width="200" height="100" viewBox="0 0 200 100" fill="none" xmlns="http://www.w3.org/2000/svg">
<path d="M64.747 40.948V41.7498H71.7562C72.2235 41.7498 72.9244 41.7498 73.3917 42.2083C73.8589 42.6667 73.8589 43.3543 73.8589 43.8126V50.6873C73.8589 51.1459 73.8589 51.8333 73.3917 52.2917C72.9244 52.7501 72.2235 52.7501 71.7562 52.7501H68.3685C67.7844 52.7501 67.0249 52.7501 66.733 52.1199C66.441 51.4896 66.8497 50.9167 67.2003 50.4584L71.7562 44.5002H64.747L61.9433 48.1667C61.4737 48.7807 61.0672 49.3125 61.0672 50.0001C61.0672 50.6873 61.4456 51.1826 61.9433 51.8333L62.6443 52.7501C63.3451 53.6667 64.046 54.5833 64.9807 55.0417C65.9152 55.5 67.0249 55.5 68.5437 55.5H71.581C73.3333 55.5 75.9618 55.5 77.7141 53.7813C79.4664 52.0625 79.4664 49.5418 79.4664 48.625V45.875C79.4664 44.9584 79.4664 42.4375 77.7141 40.7188C75.9618 39 73.3333 39.0021 71.581 39.0015L66.733 39C66.2656 38.9999 65.6815 39 65.2143 39.4586C64.747 39.9169 64.747 40.4898 64.747 40.948Z" fill="#101010"/>
<path d="M56.336 44.5H63.3452L54.9341 55.5H47.925L56.336 44.5Z" fill="#101010"/>
<path d="M29 46.4479C29 45.9896 29 45.4167 29.4673 44.9584C29.9345 44.5001 30.5186 44.5001 30.986 44.5001H42.7264C44.245 44.5001 45.3549 44.5001 46.2894 44.9584C47.2239 45.4167 47.9249 46.3332 48.6258 47.2501L49.3268 48.1667C49.8243 48.8176 50.2029 49.3125 50.2029 50.0001C50.2029 50.6873 49.7963 51.2191 49.3268 51.8333L46.5231 55.4999H39.5139L44.0698 49.5416C44.4202 49.0833 44.8291 48.5103 44.5371 47.8801C44.245 47.2501 43.4857 47.2501 42.9016 47.2501H37.4111V61H31.8037V47.2502H29V46.4479Z" fill="#101010"/>
<path d="M86.1263 53.5201C85.7056 54.0812 85.2767 54.6339 84.8562 55.1866V55.5002H86.0421C86.6225 54.7412 86.9254 54.3452 86.9254 53.8913H88.0861V55.5002H89.1963V53.8912H90.357C90.357 54.345 90.6598 54.7411 91.2401 55.5H92.4262V55.1865L91.1476 53.52C92.2243 52.728 92.2243 52.728 92.2243 51.6883V51.3419H91.0131V51.6884C91.0131 52.9507 91.0131 52.9507 89.7514 52.9507H89.1963V51.3419H88.0861V52.9507H87.531C86.2692 52.9507 86.2692 52.9507 86.2692 51.6884V51.3419H85.058V51.6884C85.058 52.728 85.058 52.728 86.1263 53.5201Z" fill="#101010"/>
<path fill-rule="evenodd" clip-rule="evenodd" d="M94.5289 53.05C94.5289 52.1339 94.5289 52.1339 95.5634 52.1339C96.598 52.1339 96.598 52.1339 96.598 53.05H94.5289ZM94.5289 53.7924H95.5634C96.6485 53.7841 96.9681 53.8007 97.3299 53.7181L97.7587 53.6192V53.215C97.7587 52.5301 97.7587 51.2432 95.7654 51.2432H95.3616C93.3682 51.2432 93.3682 52.5303 93.3682 53.2231V53.6193C93.3682 54.3618 93.3849 55.5992 95.5802 55.5992C95.9083 55.5992 96.6485 55.5992 97.4561 55.4013V54.5103H97.2289L96.4214 54.7083H95.5634C94.5289 54.708 94.5289 54.708 94.5289 53.7924Z" fill="#101010"/>
<path d="M99.6344 51.3422C99.6344 51.9693 99.584 53.8582 98.5746 55.1783V55.5H99.811C100.543 54.543 100.543 53.2973 100.543 52.2577H102.284V55.5H103.394V51.3421L99.6344 51.3422Z" fill="#101010"/>
<path fill-rule="evenodd" clip-rule="evenodd" d="M105.951 53.05C105.951 52.1339 105.951 52.1339 106.986 52.1339C108.02 52.1339 108.02 52.1339 108.02 53.05H105.951ZM105.951 53.7924H106.986C108.07 53.7841 108.39 53.8007 108.752 53.7181L109.181 53.6192V53.215C109.181 52.5301 109.181 51.2432 107.188 51.2432H106.784C104.79 51.2432 104.79 52.5303 104.79 53.2231V53.6193C104.79 54.3618 104.807 55.5992 107.002 55.5992C107.33 55.5992 108.07 55.5992 108.878 55.4013V54.5103H108.651L107.843 54.7083H106.986C105.951 54.708 105.951 54.708 105.951 53.7924Z" fill="#101010"/>
<path d="M113.26 53.487V53.3633C114.118 53.1488 114.118 52.6291 114.118 52.4311C114.118 52.0349 114.118 51.2429 112.074 51.2429C111.771 51.2429 111.065 51.2429 110.257 51.441V52.332H110.484L111.292 52.1339H112.225C112.873 52.1339 112.907 52.1339 112.907 52.5958C112.907 53.0499 112.907 53.0499 112.225 53.0499H111.292V53.7923H112.225C112.873 53.7923 112.907 53.7923 112.907 54.2461C112.907 54.7082 112.907 54.7082 112.225 54.7082H111.292L110.484 54.5101H110.257V55.4011C111.065 55.5989 111.771 55.599 112.074 55.599C114.11 55.599 114.118 54.8071 114.118 54.411C114.118 54.2132 114.118 53.6935 113.26 53.487Z" fill="#101010"/>
<path d="M118.735 51.3422V52.9508H116.515V51.3422H115.405V55.5H116.515V53.8913H118.735V55.5H119.846V51.3422H118.735Z" fill="#101010"/>
<path fill-rule="evenodd" clip-rule="evenodd" d="M123.353 53.4212C124.236 53.4212 124.236 53.4212 124.236 54.0647C124.236 54.7083 124.236 54.7083 123.353 54.7083H122.47V53.4212H123.353ZM127.315 51.3422H126.205V55.5002H127.315V51.3422ZM123.505 55.5C124.842 55.5 125.397 55.2112 125.397 54.0893C125.397 53.4705 125.397 52.5795 123.656 52.5795C123.404 52.5795 122.974 52.6045 122.47 52.7281V51.3421H121.36V55.5H123.505Z" fill="#101010"/>
<path fill-rule="evenodd" clip-rule="evenodd" d="M129.821 53.05C129.821 52.1339 129.821 52.1339 130.856 52.1339C131.89 52.1339 131.89 52.1339 131.89 53.05H129.821ZM129.821 53.7924H130.856C131.941 53.7841 132.26 53.8007 132.622 53.7181L133.051 53.6192V53.215C133.051 52.5301 133.051 51.2432 131.058 51.2432H130.654C128.66 51.2432 128.66 52.5303 128.66 53.2231V53.6193C128.66 54.3618 128.677 55.5992 130.872 55.5992C131.2 55.5992 131.941 55.5992 132.748 55.4013V54.5103H132.521L131.714 54.7083H130.856C129.821 54.708 129.821 54.708 129.821 53.7924Z" fill="#101010"/>
<path fill-rule="evenodd" clip-rule="evenodd" d="M137.677 53.2725C137.677 52.1588 137.677 52.1837 139.182 52.1837C139.384 52.1837 139.662 52.2083 139.998 52.2826V54.0645L138.922 54.3284C137.677 54.3285 137.677 54.3285 137.677 53.2725ZM137.021 56.1435V57.084C137.828 57.2821 138.484 57.2821 138.737 57.2821C141.024 57.2821 141.1 56.3087 141.109 55.203V51.3422H140.747L140.208 51.7383C139.838 51.2679 138.938 51.2514 138.652 51.2514C136.516 51.2514 136.516 52.5714 136.516 53.1736V53.3717C136.516 54.0647 136.516 55.2032 138.333 55.2032C138.88 55.2032 139.527 55.0548 139.998 54.7082V55.0546C139.998 56.3334 139.973 56.3418 138.636 56.3418H138.055L137.248 56.1437L137.021 56.1435Z" fill="#101010"/>
<path fill-rule="evenodd" clip-rule="evenodd" d="M144.481 51.243C142.337 51.243 142.337 52.4805 142.337 53.2231V53.6192C142.337 54.3617 142.337 55.5991 144.481 55.5991H144.885C147.03 55.5991 147.03 54.3617 147.03 53.6192V53.2231C147.03 52.4805 147.03 51.243 144.885 51.243H144.481ZM144.683 52.1589C145.869 52.1589 145.869 52.1589 145.869 53.4212C145.869 54.6834 145.869 54.6834 144.683 54.6834C143.497 54.6834 143.497 54.6834 143.497 53.4212C143.497 52.1589 143.497 52.1589 144.683 52.1589Z" fill="#101010"/>
<path fill-rule="evenodd" clip-rule="evenodd" d="M151.69 53.4212C151.69 54.6586 151.69 54.6586 150.453 54.6586C150.15 54.6586 149.763 54.6586 149.368 54.5595V52.4805L150.445 52.2167C151.69 52.2167 151.69 52.2331 151.69 53.4212ZM148.258 51.3422V57.1832H149.368V55.3764C149.873 55.5002 150.277 55.5991 150.882 55.5991C152.85 55.5991 152.85 54.1885 152.85 53.6193V53.2231C152.85 52.5301 152.85 51.243 151.008 51.243C150.067 51.243 149.52 51.6474 149.217 51.8701L148.813 51.3422H148.258Z" fill="#101010"/>
<path fill-rule="evenodd" clip-rule="evenodd" d="M156.189 51.243C154.045 51.243 154.045 52.4805 154.045 53.2231V53.6192C154.045 54.3617 154.045 55.5991 156.189 55.5991H156.593C158.738 55.5991 158.738 54.3617 158.738 53.6192V53.2231C158.738 52.4805 158.738 51.243 156.593 51.243H156.189ZM156.391 52.1589C157.577 52.1589 157.577 52.1589 157.577 53.4212C157.577 54.6834 157.577 54.6834 156.391 54.6834C155.205 54.6834 155.205 54.6834 155.205 53.4212C155.205 52.1589 155.205 52.1589 156.391 52.1589Z" fill="#101010"/>
<path d="M161.942 51.243C161.538 51.243 161.009 51.243 160.201 51.4411V52.332H160.428L161.236 52.1341H162.27C162.826 52.1341 162.826 52.1341 162.826 52.4476C162.826 52.6623 162.826 52.7282 162.397 52.8024L161.387 53.05C160.807 53.1902 160 53.4047 160 54.2626C160 54.8318 160 55.599 162.043 55.599C162.447 55.599 162.977 55.5989 163.784 55.4011V54.5101H163.557C163.221 54.6008 162.901 54.675 162.775 54.7082H161.715C161.16 54.7082 161.16 54.7082 161.16 54.3945C161.16 54.2049 161.16 54.1636 161.396 54.0976L161.959 53.9491L162.599 53.7923C163.179 53.6521 163.986 53.4459 163.986 52.5796C163.986 52.0103 163.986 51.243 161.942 51.243Z" fill="#101010"/>
<path d="M169.176 55.6158L170 55.0134C169.697 54.6173 169.697 54.6173 169.697 53.9162V51.3422H168.587V54.3616L167.51 54.6255C166.366 54.6255 166.366 54.6255 166.366 53.4788V51.3422H165.256V53.6437C165.256 54.4605 165.256 55.599 166.947 55.599C167.83 55.599 168.377 55.1948 168.679 54.9721L169.176 55.6158Z" fill="#101010"/>
<path fill-rule="evenodd" clip-rule="evenodd" d="M85.0738 41.4092V47.2501H86.2849V45.6414H87.2437C88.8839 45.6414 90.1708 45.6414 90.1708 43.5293C90.1708 41.4092 88.8839 41.4092 87.2437 41.4092H85.0738ZM86.2849 44.6018V42.4485H87.7484C88.8335 42.4485 88.8839 42.4485 88.8839 43.5292C88.8839 44.5769 88.8839 44.6018 87.7484 44.6018H86.2849Z" fill="#101010"/>
<path fill-rule="evenodd" clip-rule="evenodd" d="M93.2409 42.9929C91.0959 42.9929 91.0959 44.2305 91.0959 44.973V45.3691C91.0959 46.1116 91.0959 47.349 93.2409 47.349H93.6445C95.7894 47.349 95.7894 46.1116 95.7894 45.3691V44.973C95.7894 44.2305 95.7894 42.9929 93.6445 42.9929H93.2409ZM93.4427 43.9087C94.6287 43.9087 94.6287 43.9087 94.6287 45.171C94.6287 46.4332 94.6287 46.4332 93.4427 46.4332C92.2566 46.4332 92.2566 46.4332 92.2566 45.171C92.2566 43.9087 92.2566 43.9087 93.4427 43.9087Z" fill="#101010"/>
<path d="M99.0948 47.3491C99.3977 47.3491 100.18 47.3491 100.987 47.151V46.2603H100.76L99.9443 46.4582H99.4649C98.0601 46.4582 98.0601 46.4582 98.0601 45.1711C98.0601 43.884 98.0601 43.884 99.0948 43.884C99.9695 43.884 99.9695 43.884 100.18 44.7009L101.189 44.4533C101.189 44.0574 101.189 42.9931 99.2966 42.9931H98.893C96.8994 42.9931 96.8994 44.2306 96.8994 44.973V45.3692C96.8994 46.1116 96.8994 47.3491 99.0948 47.3491Z" fill="#101010"/>
<path d="M104.427 47.3491C104.73 47.3491 105.512 47.3491 106.32 47.151V46.2603H106.093L105.277 46.4582H104.797C103.393 46.4582 103.393 46.4582 103.393 45.1711C103.393 43.884 103.393 43.884 104.427 43.884C105.302 43.884 105.302 43.884 105.512 44.7009L106.522 44.4533C106.522 44.0574 106.522 42.9931 104.629 42.9931H104.226C102.232 42.9931 102.232 44.2306 102.232 44.973V45.3692C102.232 46.1116 102.232 47.3491 104.427 47.3491Z" fill="#101010"/>
<path d="M111.577 47.3657L112.401 46.7632C112.098 46.3672 112.098 46.3672 112.098 45.6661V43.092H110.988V46.1115L109.911 46.3753C108.767 46.3753 108.767 46.3753 108.767 45.2286V43.092H107.657V45.3937C107.657 46.2104 107.657 47.3489 109.348 47.3489C110.231 47.3489 110.778 46.9447 111.08 46.7219L111.577 47.3657Z" fill="#101010"/>
<path fill-rule="evenodd" clip-rule="evenodd" d="M115.479 41.607C114.933 41.607 114.933 41.607 114.663 41.3099L114.176 41.6814C114.706 42.3496 114.975 42.3992 115.748 42.3992H115.933C116.699 42.3992 116.976 42.3496 117.498 41.6814L117.01 41.3099C116.749 41.607 116.749 41.607 116.194 41.607H115.479ZM117.532 47.3657L118.356 46.7632C118.053 46.3672 118.053 46.3672 118.053 45.6661V43.092H116.943V46.1115L115.866 46.3753C114.747 46.3753 114.722 46.3753 114.722 45.2286V43.092H113.612V45.3937C113.612 46.2104 113.612 47.3489 115.303 47.3489C116.186 47.3489 116.732 46.9447 117.035 46.7219L117.532 47.3657Z" fill="#101010"/>
<path d="M121.67 47.3491C121.973 47.3491 122.755 47.3491 123.562 47.151V46.2603H123.335L122.519 46.4582H122.04C120.635 46.4582 120.635 46.4582 120.635 45.1711C120.635 43.884 120.635 43.884 121.67 43.884C122.544 43.884 122.544 43.884 122.755 44.7009L123.764 44.4533C123.764 44.0574 123.764 42.9931 121.871 42.9931H121.468C119.474 42.9931 119.474 44.2306 119.474 44.973V45.3692C119.474 46.1116 119.474 47.3491 121.67 47.3491Z" fill="#101010"/>
<path d="M125.009 43.092V47.2501H126.119V45.6414H127.482C127.482 46.0951 127.785 46.491 128.365 47.2501H129.551V46.9365L128.272 45.27C129.349 44.4782 129.349 44.4782 129.349 43.4385V43.092H128.138V43.4385C128.138 44.7007 128.138 44.7007 126.876 44.7007H126.119V43.092H125.009Z" fill="#101010"/>
<path d="M134.589 47.3657L135.413 46.7632C135.11 46.3672 135.11 46.3672 135.11 45.6661V43.092H134V46.1115L132.923 46.3753C131.779 46.3753 131.779 46.3753 131.779 45.2286V43.092H130.669V45.3937C130.669 46.2104 130.669 47.3489 132.36 47.3489C133.243 47.3489 133.79 46.9447 134.093 46.7219L134.589 47.3657Z" fill="#101010"/>
<path fill-rule="evenodd" clip-rule="evenodd" d="M137.608 44.7999C137.608 43.884 137.608 43.884 138.643 43.884C139.678 43.884 139.678 43.884 139.678 44.7999H137.608ZM137.608 45.5424H138.643C139.728 45.5341 140.048 45.5508 140.409 45.4681L140.838 45.3692V44.9651C140.838 44.2801 140.838 42.9932 138.845 42.9932H138.441C136.448 42.9932 136.448 44.2802 136.448 44.9731V45.3693C136.448 46.1119 136.465 47.3493 138.66 47.3493C138.988 47.3493 139.728 47.3493 140.536 47.1512V46.2604H140.308L139.501 46.4584H138.643C137.608 46.4582 137.608 46.4582 137.608 45.5424Z" fill="#101010"/>
</svg>
