<svg width="200" height="100" viewBox="0 0 200 100" fill="none" xmlns="http://www.w3.org/2000/svg">
<path d="M67.9422 53.4219C68.5152 54.016 69.2091 54.4842 69.9785 54.7956C70.9149 55.1396 71.9087 55.307 72.9079 55.2891C73.4795 55.2891 74.0141 55.219 74.4529 55.1825C74.8912 55.1265 75.3222 55.0244 75.7384 54.8779C76.1308 54.7712 76.4522 54.5946 76.7735 54.491C77.0278 54.3481 77.2898 54.2189 77.5584 54.1042L77.1598 53.2787C76.9466 53.3853 76.7303 53.4889 76.48 53.5833C76.2471 53.6889 76.0089 53.7824 75.7662 53.8635C75.4773 53.9595 75.1772 54.0188 74.8731 54.0402C74.4831 54.1032 74.0876 54.1267 73.6927 54.1103C72.9805 54.1364 72.2751 53.9655 71.6564 53.6168C71.1353 53.2968 70.6956 52.8633 70.3709 52.3497C70.0645 51.7522 69.856 51.1107 69.7529 50.449C69.6361 49.6561 69.5762 48.856 69.5737 48.0548C69.5737 47.3847 69.6448 46.6811 69.6819 45.9775C69.7359 45.3395 69.9088 44.7169 70.1917 44.1407C70.4463 43.6038 70.8252 43.1332 71.298 42.767C71.8965 42.3932 72.5918 42.1975 73.3003 42.2035C74.0151 42.1942 74.7147 42.4074 75.2996 42.8127C75.8712 43.1995 76.1926 43.8331 76.3347 44.6799H77.2278V41.9781C76.9435 41.8715 76.6561 41.7679 76.3347 41.6735C75.9985 41.5664 75.6514 41.4959 75.2996 41.4633C74.9071 41.3932 74.5858 41.3932 74.1933 41.3567C73.8843 41.3567 73.5135 41.2866 73.2663 41.2866C72.2087 41.2697 71.1564 41.4368 70.1577 41.7801C69.3439 42.0766 68.6159 42.5646 68.037 43.2017C67.4581 43.8387 67.0458 44.6054 66.8359 45.4353C66.5512 46.4078 66.4189 47.4175 66.4435 48.4295C66.4208 49.3953 66.5533 50.3586 66.8359 51.2836C67.0217 52.0748 67.4015 52.809 67.9422 53.4219Z" fill="#101010"/>
<path d="M122.139 54.8322C122.779 54.7678 123.399 54.5761 123.962 54.2687C124.528 53.9572 124.978 53.4759 125.247 52.8949C125.613 52.1253 125.785 51.2799 125.748 50.4307C125.771 49.7834 125.666 49.1378 125.439 48.53C125.221 48.0104 124.863 47.5595 124.404 47.2263C123.826 46.8698 123.182 46.6306 122.509 46.5227C121.579 46.3527 120.634 46.2823 119.688 46.3125H118.508V43.0685C118.492 42.9483 118.504 42.8262 118.54 42.7106C118.577 42.5949 118.639 42.4885 118.721 42.3984C119.005 42.2912 119.312 42.2545 119.614 42.2918H121.292C121.722 42.2758 122.152 42.2993 122.577 42.3619C122.862 42.3784 123.134 42.4769 123.362 42.6451C123.587 42.8205 123.76 43.0519 123.863 43.3153C124.026 43.6907 124.157 44.0789 124.255 44.4758H124.947V41.4481H114.75V41.8715C114.821 41.8715 114.858 41.9415 115.035 41.9415C115.214 42.0116 115.322 42.0481 115.344 42.1182C115.417 42.2111 115.478 42.3136 115.523 42.4228C115.523 42.5995 115.594 42.7274 115.594 42.9863V53.4097C115.61 53.6003 115.586 53.7922 115.523 53.9732C115.523 54.1499 115.452 54.2534 115.344 54.2778C115.267 54.3735 115.157 54.4368 115.035 54.4545C114.947 54.4999 114.849 54.524 114.75 54.5245V54.9479H119.895C120.645 54.9477 121.393 54.909 122.139 54.8322ZM118.767 53.8453C118.711 53.7976 118.665 53.7383 118.634 53.6714C118.603 53.6046 118.588 53.5319 118.588 53.4584C118.588 53.2818 118.517 53.0716 118.517 52.7883V47.1197H119.697C120.733 47.1197 121.521 47.3999 121.984 47.9299C122.448 48.4599 122.664 49.3372 122.664 50.5373C122.683 51.1776 122.611 51.8173 122.451 52.438C122.335 52.8444 122.123 53.218 121.833 53.5285C121.579 53.7233 121.303 53.8888 121.011 54.0219C120.682 54.0921 120.346 54.1279 120.01 54.1285C119.701 54.0585 119.392 54.0585 119.225 54.0219C119.055 54.0216 118.892 53.9585 118.767 53.8453Z" fill="#101010"/>
<path d="M107.563 54.5154C107.492 54.5154 107.455 54.4453 107.279 54.4453C107.099 54.3753 106.991 54.3387 106.97 54.2687C106.948 54.1986 106.861 54.092 106.79 53.9641C106.79 53.7874 106.719 53.6595 106.719 53.4005V49.654H108.113C108.795 49.6506 109.477 49.5915 110.149 49.4773C110.755 49.3825 111.337 49.1758 111.864 48.8681C112.38 48.5583 112.791 48.1046 113.045 47.5644C113.361 46.8556 113.508 46.0843 113.474 45.3104C113.485 44.599 113.352 43.8927 113.082 43.233C112.807 42.7601 112.426 42.3549 111.969 42.0481C111.479 41.7644 110.929 41.5956 110.362 41.5547C109.734 41.4821 109.101 41.4465 108.468 41.4481H103.027V41.8715C103.098 41.8715 103.135 41.9415 103.314 41.9415C103.493 42.0116 103.598 42.0481 103.623 42.1182C103.697 42.211 103.757 42.3135 103.802 42.4228C103.802 42.5995 103.873 42.7274 103.873 42.9863V53.3762C103.89 53.5668 103.866 53.7588 103.802 53.9397C103.802 54.1164 103.731 54.2199 103.623 54.2443C103.547 54.34 103.436 54.4032 103.314 54.421C103.225 54.4669 103.127 54.491 103.027 54.491V54.8779H107.529L107.563 54.491V54.5154ZM106.812 42.965C106.804 42.8587 106.828 42.7524 106.883 42.6604C106.886 42.62 106.897 42.5806 106.916 42.5446C106.934 42.5085 106.96 42.4764 106.991 42.4502C107.076 42.3767 107.187 42.3385 107.3 42.3436C107.479 42.3436 107.609 42.2735 107.918 42.2735C108.254 42.2915 108.588 42.3271 108.919 42.3801C109.224 42.4887 109.504 42.6565 109.741 42.8736C109.976 43.1492 110.169 43.457 110.313 43.7874C110.434 44.2468 110.495 44.7199 110.492 45.1946C110.492 46.3552 110.313 47.2019 109.992 47.802C109.67 48.4021 109.065 48.7158 108.206 48.7158H106.812V42.965Z" fill="#101010"/>
<path d="M101.241 51.838H100.348C100.27 52.266 100.167 52.6891 100.039 53.1051C99.9786 53.3801 99.8275 53.6277 99.609 53.8087C99.5045 53.9057 99.3809 53.9805 99.2459 54.0287C99.111 54.0769 98.9674 54.0974 98.8242 54.0889C98.3629 54.1556 97.8963 54.179 97.4305 54.159C97.0007 54.1797 96.5699 54.1562 96.1451 54.0889C95.8964 54.0609 95.6548 53.9898 95.4313 53.8788C95.3526 53.8362 95.2856 53.7754 95.2361 53.7017C95.1866 53.6279 95.156 53.5434 95.147 53.4554C95.0811 53.203 95.057 52.9417 95.0759 52.6817V48.3868H97.446C97.6592 48.3868 97.8755 48.4569 98.1258 48.4569C98.3545 48.4777 98.5816 48.5134 98.8056 48.5635C99.0036 48.6121 99.1954 48.6826 99.3773 48.7737V47.0131C99.2052 47.1248 99.0098 47.1966 98.8056 47.2233C98.3569 47.3054 97.9041 47.3643 97.4491 47.3999H95.0543V42.9223C95.055 42.7147 95.0915 42.5087 95.1624 42.3131C95.2706 42.2065 95.4498 42.2065 95.7341 42.2065H97.2359C97.6656 42.1906 98.096 42.214 98.5213 42.2766C98.8037 42.2987 99.0749 42.3956 99.3062 42.5568C99.5307 42.7322 99.7035 42.9636 99.8068 43.2269C99.97 43.6034 100.101 43.9926 100.199 44.3905H100.913V41.4481H91.3802V41.8715C91.4513 41.8715 91.4884 41.9415 91.6645 41.9415C91.8437 42.0116 91.9488 42.0481 91.9735 42.1182C92.0473 42.211 92.1076 42.3135 92.1527 42.4228C92.1527 42.5995 92.2238 42.7274 92.2238 42.9863V53.3762C92.2402 53.5668 92.216 53.7588 92.1527 53.9397C92.1527 54.1164 92.0816 54.2199 91.9735 54.2443C91.8973 54.34 91.7866 54.4032 91.6645 54.421C91.5768 54.4664 91.4793 54.4905 91.3802 54.491V54.8779H101.241V51.838Z" fill="#101010"/>
<path d="M86.1642 54.8322C86.8043 54.7678 87.4246 54.5761 87.9873 54.2687C88.5558 53.9492 89.0159 53.4712 89.3099 52.8949C89.6761 52.1254 89.8479 51.2799 89.8105 50.4307C89.8336 49.7834 89.7286 49.1378 89.5015 48.53C89.2837 48.0104 88.9257 47.5595 88.4663 47.2263C87.8887 46.8698 87.2447 46.6306 86.5721 46.5227C85.6421 46.3527 84.6962 46.2822 83.7509 46.3125H82.5705V43.0685C82.5553 42.9483 82.5665 42.8263 82.6033 42.7107C82.6401 42.5951 82.7016 42.4886 82.7837 42.3984C83.068 42.2912 83.3747 42.2545 83.6767 42.2918H85.3546C85.7844 42.2758 86.2147 42.2993 86.6401 42.3619C86.9228 42.3849 87.194 42.4828 87.4249 42.6451C87.6494 42.8205 87.8222 43.0519 87.9255 43.3153C88.089 43.6906 88.2203 44.0788 88.318 44.4758H89.0318V41.4481H78.8037V41.8715C78.8748 41.8715 78.9118 41.9415 79.0911 41.9415C79.2703 42.0116 79.3754 42.0481 79.4001 42.1182C79.4738 42.2111 79.5341 42.3136 79.5793 42.4228C79.5793 42.5995 79.6504 42.7274 79.6504 42.9863V53.3762C79.6641 53.5668 79.64 53.7582 79.5793 53.9397C79.5793 54.1164 79.5082 54.2199 79.4001 54.2443C79.3238 54.34 79.2132 54.4032 79.0911 54.421C79.0024 54.4669 78.9038 54.491 78.8037 54.491V54.9845H83.9486C84.7768 54.9388 85.4473 54.9388 86.1642 54.8322ZM82.8053 53.8453C82.7486 53.7976 82.7031 53.7383 82.6721 53.6714C82.6412 53.6046 82.6255 53.5319 82.6261 53.4584C82.6261 53.2818 82.555 53.0716 82.555 52.7883V47.1197H83.7354C84.7706 47.1197 85.5585 47.3999 86.0221 47.9299C86.4856 48.4599 86.7019 49.3372 86.7019 50.5373C86.7204 51.1776 86.6487 51.8172 86.4887 52.438C86.3726 52.8444 86.1609 53.218 85.8706 53.5285C85.6166 53.7233 85.3409 53.8889 85.0487 54.0219C84.7197 54.0922 84.3841 54.1279 84.0475 54.1285C83.7385 54.0585 83.4759 54.0585 83.2626 54.0219C83.1782 54.0249 83.0941 54.0107 83.0154 53.9803C82.9367 53.9499 82.8652 53.904 82.8053 53.8453Z" fill="#101010"/>
<path d="M166.907 58.7737H66.3724V60.0774H166.907V58.7737Z" fill="#101010"/>
<path d="M158.867 49.8672C159.154 50.254 159.368 50.5708 159.652 50.8876C159.865 51.1922 160.152 51.5577 160.366 51.8745C160.58 52.2196 160.818 52.5494 161.079 52.8614C161.342 53.2083 161.581 53.5727 161.793 53.9519C162.006 54.2565 162.186 54.6555 162.365 54.9723L167 55.0423C166.499 54.5489 166.073 54.0554 165.572 53.562C165.143 53.0685 164.75 52.6482 164.463 52.3649C164.034 51.8715 163.641 51.4511 163.286 51.0612C162.93 50.6713 162.572 50.251 162.251 49.8641C161.919 49.4823 161.61 49.0827 161.324 48.6671C161.073 48.2802 160.706 47.7868 160.431 47.3634L160.644 47.0832C160.953 46.6598 161.358 46.2029 161.824 45.6759C162.25 45.116 162.716 44.5867 163.218 44.092C163.67 43.5756 164.149 43.0835 164.655 42.6177C165.06 42.2502 165.489 41.9093 165.94 41.5973H162.723C162.578 41.9367 162.411 42.2663 162.223 42.5842C161.997 43.0224 161.734 43.4411 161.438 43.8361C161.154 44.2595 160.82 44.7499 160.545 45.2434C160.27 45.7368 159.927 46.1572 159.618 46.6171C159.309 47.0771 159 47.4974 158.725 47.8142C158.441 48.201 158.224 48.4843 158.045 48.728C158.295 49.0905 158.58 49.4804 158.867 49.8672Z" fill="#101010"/>
<path d="M158.475 54.5154C158.403 54.5154 158.366 54.4453 158.187 54.4453C158.008 54.3753 157.903 54.3387 157.878 54.2687C157.804 54.1758 157.744 54.0733 157.699 53.9641C157.699 53.7874 157.628 53.6595 157.628 53.4005V43.0442C157.611 42.8535 157.636 42.6615 157.699 42.4807C157.699 42.304 157.77 42.2004 157.878 42.1761C157.972 42.1033 158.076 42.0438 158.187 41.9994C158.276 41.9534 158.374 41.9294 158.475 41.9293V41.4724H153.972V41.8958C154.043 41.8958 154.08 41.9659 154.26 41.9659C154.439 42.0359 154.544 42.0725 154.569 42.1426C154.643 42.2353 154.703 42.3379 154.748 42.4472C154.748 42.6238 154.819 42.7518 154.819 43.0107V53.4005C154.836 53.5912 154.811 53.7832 154.748 53.9641C154.748 54.1407 154.677 54.2443 154.569 54.2687C154.493 54.3646 154.382 54.4279 154.26 54.4453C154.171 54.4913 154.072 54.5153 153.972 54.5154V54.9022H158.475V54.5154Z" fill="#101010"/>
<path d="M128.656 53.3183C128.835 52.5446 129.156 51.4511 129.583 50.0774H133.977L134.595 51.838C134.853 52.4779 135.059 53.1369 135.213 53.8087C135.362 54.1933 135.457 54.596 135.497 55.0058H138.998C138.819 54.7256 138.689 54.3357 138.426 53.9153C138.126 53.2979 137.864 52.6632 137.641 52.0146L134.465 43.1386C134.334 42.8207 134.237 42.4898 134.177 42.1517C134.106 41.8715 134.106 41.6582 134.069 41.4816H130.142V41.905C130.213 41.905 130.25 41.975 130.426 41.975C130.605 42.0451 130.71 42.0816 130.735 42.1517C130.809 42.2445 130.869 42.347 130.914 42.4563V42.7365C130.917 43.039 130.856 43.3389 130.735 43.6168L128.52 48.9686C128.127 49.9555 127.735 50.8358 127.484 51.4694C127.234 52.103 126.913 52.7365 126.771 53.1599C126.557 53.5833 126.378 53.9701 126.199 54.2504C126.056 54.478 125.925 54.7129 125.806 54.954H128.306C128.39 54.4024 128.506 53.8562 128.656 53.3183ZM131.801 43.6686L133.6 49.127H129.82L131.801 43.6686Z" fill="#101010"/>
<path d="M144.217 54.5154H144.106C144.035 54.5154 143.998 54.4453 143.818 54.4453C143.639 54.3753 143.534 54.3387 143.509 54.2687C143.436 54.1758 143.375 54.0733 143.33 53.9641C143.33 53.7874 143.259 53.6595 143.259 53.4005V48.2224H148.583V53.364C148.6 53.5547 148.576 53.7466 148.512 53.9275C148.512 54.1042 148.441 54.2077 148.333 54.2321C148.257 54.3278 148.146 54.3911 148.024 54.4088C147.936 54.4543 147.839 54.4783 147.74 54.4788V54.9022H152.242V54.4788C152.171 54.4788 152.134 54.4088 151.958 54.4088C151.778 54.3387 151.67 54.3022 151.649 54.2321C151.575 54.1395 151.514 54.0369 151.469 53.9275C151.469 53.7508 151.398 53.6229 151.398 53.364V42.9223C151.382 42.7317 151.406 42.5397 151.469 42.3588C151.469 42.1822 151.54 42.0786 151.649 42.0542C151.743 41.9815 151.847 41.922 151.958 41.8776C152.045 41.8321 152.143 41.808 152.242 41.8075V41.4481H147.814V41.8715C147.885 41.8715 147.922 41.9415 148.098 41.9415C148.277 42.0116 148.386 42.0481 148.407 42.1182C148.481 42.211 148.541 42.3135 148.586 42.4228C148.586 42.5995 148.657 42.7274 148.657 42.9863V47.3299H143.398V42.965C143.382 42.7743 143.406 42.5824 143.469 42.4015C143.469 42.2248 143.54 42.1212 143.648 42.0969C143.743 42.024 143.847 41.9645 143.957 41.9202C144.044 41.8713 144.142 41.8471 144.242 41.8501V41.4481H139.752V41.8715C139.823 41.8715 139.86 41.9415 140.036 41.9415C140.215 42.0116 140.32 42.0481 140.345 42.1182C140.419 42.2111 140.479 42.3136 140.524 42.4228C140.524 42.5995 140.595 42.7274 140.595 42.9863V53.4097C140.609 53.6003 140.585 53.7917 140.524 53.9732C140.524 54.1499 140.453 54.2534 140.345 54.2778C140.269 54.3735 140.158 54.4368 140.036 54.4545C139.949 54.4999 139.851 54.524 139.752 54.5245V54.9479H144.254L144.217 54.491V54.5154Z" fill="#101010"/>
<path d="M57.2258 42.8584C56.9385 42.4715 56.6542 42.0847 56.4039 41.6948L41.0401 50.3942L33.624 46.2029C33.4538 46.6551 33.3498 47.129 33.315 47.6101L41.1112 52.0603L57.2258 42.8584Z" fill="#101010"/>
<path d="M41.0401 53.6686L33.074 49.1605C33.015 49.4378 32.9912 49.7212 33.0029 50.0043C33.0029 53.4509 34.3919 56.7565 36.8643 59.1936C39.3368 61.6308 42.6901 63 46.1866 63C49.6832 63 53.0365 61.6308 55.5089 59.1936C57.9813 56.7565 59.3703 53.4509 59.3703 50.0043C59.3851 47.9479 58.8953 45.9185 57.9427 44.0889L41.0401 53.6686Z" fill="#101010"/>
<path d="M55.3316 40.6043C54.9562 40.255 54.5622 39.9256 54.1512 39.6174L41.0401 47.1197L34.7179 43.562C34.5047 43.9488 34.2884 44.3722 34.0381 44.8291L40.9691 48.7737L55.3316 40.6043Z" fill="#101010"/>
<path d="M52.8658 38.7737C52.3696 38.4809 51.8533 38.2223 51.3208 38L41.0401 43.8361L36.4329 41.2744C36.1239 41.579 35.8149 41.9781 35.5059 42.3649L41.0061 45.4657L52.8658 38.7737Z" fill="#101010"/>
</svg>
