<svg width="200" height="100" viewBox="0 0 200 100" fill="none" xmlns="http://www.w3.org/2000/svg">
<path d="M71.2739 44.6721H76.5798C77.1994 44.6721 77.7369 44.7564 78.1923 44.9252C78.653 45.0939 79.0343 45.3392 79.3361 45.6608C79.6379 45.9825 79.863 46.3728 80.0112 46.8315C80.1595 47.2903 80.2337 47.8124 80.2337 48.3978C80.2337 48.9409 80.1463 49.4419 79.9715 49.9007C79.7968 50.3542 79.5426 50.7471 79.209 51.0793C78.8807 51.4062 78.4782 51.662 78.0017 51.8466C77.5251 52.0312 76.9849 52.1234 76.3813 52.1234H73.7124V56.3H71.2739V44.6721ZM73.7124 50.1143H76.0238C76.5745 50.1143 77.0061 49.9798 77.3186 49.7108C77.6363 49.4419 77.7951 49.0042 77.7951 48.3978C77.7951 48.0919 77.7528 47.8309 77.668 47.6146C77.5886 47.3984 77.4721 47.2218 77.3186 47.0847C77.1703 46.9423 76.9849 46.8395 76.7625 46.7762C76.5454 46.7076 76.2992 46.6733 76.0238 46.6733H73.7124V50.1143Z" fill="black"/>
<path d="M81.5046 50.486C81.5046 49.6159 81.621 48.8091 81.854 48.0655C82.087 47.322 82.4365 46.6786 82.9025 46.1354C83.3685 45.587 83.9537 45.1572 84.658 44.8461C85.3622 44.535 86.183 44.3794 87.1203 44.3794C87.9835 44.3794 88.7619 44.535 89.4556 44.8461C90.1493 45.1572 90.737 45.587 91.2189 46.1354C91.7061 46.6786 92.0794 47.322 92.3389 48.0655C92.5984 48.8091 92.7281 49.6159 92.7281 50.486C92.7281 51.3509 92.5984 52.1577 92.3389 52.9065C92.0794 53.6501 91.7061 54.2961 91.2189 54.8445C90.737 55.3877 90.1493 55.8148 89.4556 56.126C88.7619 56.4371 87.9835 56.5927 87.1203 56.5927C86.183 56.5927 85.3622 56.4371 84.658 56.126C83.9537 55.8148 83.3685 55.3877 82.9025 54.8445C82.4365 54.2961 82.087 53.6501 81.854 52.9065C81.621 52.1577 81.5046 51.3509 81.5046 50.486ZM87.1203 54.4886C87.6181 54.4886 88.0629 54.3884 88.4547 54.188C88.8466 53.9876 89.1776 53.7107 89.4476 53.3574C89.723 52.9988 89.9322 52.577 90.0751 52.0918C90.2181 51.6014 90.2896 51.0661 90.2896 50.486C90.2896 49.906 90.2181 49.3733 90.0751 48.8882C89.9322 48.3978 89.723 47.9759 89.4476 47.6226C89.1776 47.264 88.8466 46.9845 88.4547 46.7841C88.0629 46.5837 87.6181 46.4835 87.1203 46.4835C86.6225 46.4835 86.1777 46.5837 85.7859 46.7841C85.394 46.9845 85.0604 47.264 84.785 47.6226C84.515 47.9759 84.3058 48.3978 84.1575 48.8882C84.0146 49.3733 83.9431 49.906 83.9431 50.486C83.9431 51.0661 84.0146 51.6014 84.1575 52.0918C84.3058 52.577 84.515 52.9988 84.785 53.3574C85.0604 53.7107 85.394 53.9876 85.7859 54.188C86.1777 54.3884 86.6225 54.4886 87.1203 54.4886Z" fill="black"/>
<path d="M102.141 48.4927C102.109 48.3819 102.069 48.2554 102.022 48.113C101.974 47.9653 101.908 47.8177 101.823 47.67C101.743 47.5224 101.64 47.3773 101.513 47.235C101.391 47.0926 101.238 46.966 101.052 46.8553C100.867 46.7445 100.645 46.6549 100.385 46.5863C100.126 46.5178 99.8213 46.4835 99.4718 46.4835C99.3235 46.4835 99.1488 46.502 98.9475 46.5389C98.7463 46.5758 98.5398 46.647 98.328 46.7524C98.1162 46.8526 97.907 46.995 97.7005 47.1796C97.494 47.3642 97.3086 47.6067 97.1445 47.9073C96.9856 48.2026 96.8559 48.5612 96.7552 48.9831C96.6546 49.405 96.6043 49.906 96.6043 50.486C96.6043 51.1136 96.6705 51.6752 96.8029 52.1709C96.9353 52.6666 97.1259 53.0858 97.3748 53.4286C97.6237 53.7714 97.9229 54.0351 98.2724 54.2196C98.6272 54.3989 99.027 54.4886 99.4718 54.4886C99.9854 54.4886 100.404 54.4095 100.727 54.2513C101.05 54.0931 101.307 53.9006 101.497 53.6738C101.693 53.4471 101.839 53.2098 101.934 52.9619C102.029 52.7141 102.104 52.4979 102.157 52.3133H104.579C104.447 53.041 104.227 53.6738 103.92 54.2117C103.613 54.7443 103.239 55.1873 102.8 55.5406C102.36 55.8939 101.865 56.1576 101.315 56.3316C100.769 56.5057 100.187 56.5927 99.5671 56.5927C98.6987 56.5927 97.9282 56.4503 97.2557 56.1655C96.5884 55.8755 96.0245 55.4642 95.5638 54.9315C95.1084 54.3989 94.7615 53.7582 94.5232 53.0094C94.285 52.2553 94.1658 51.4142 94.1658 50.486C94.1658 49.7688 94.2346 49.1202 94.3723 48.5401C94.51 47.9601 94.7006 47.4459 94.9442 46.9977C95.1931 46.5441 95.4844 46.1539 95.818 45.827C96.1516 45.4947 96.5143 45.2231 96.9062 45.0122C97.3033 44.796 97.719 44.6378 98.1532 44.5376C98.5875 44.4321 99.027 44.3794 99.4718 44.3794C100.107 44.3794 100.671 44.4453 101.164 44.5771C101.656 44.709 102.088 44.8856 102.458 45.1071C102.829 45.3286 103.144 45.5817 103.404 45.8665C103.668 46.1513 103.883 46.4466 104.047 46.7524C104.216 47.053 104.341 47.3562 104.42 47.6621C104.505 47.9627 104.558 48.2395 104.579 48.4927H102.141Z" fill="black"/>
<path d="M105.405 44.6721H114.969V46.6733H111.402V56.3H108.964V46.6733H105.405V44.6721Z" fill="black"/>
<path d="M117.296 54.0931C117.45 54.1933 117.627 54.2724 117.828 54.3304C118.029 54.3884 118.257 54.4174 118.511 54.4174C118.845 54.4174 119.107 54.3198 119.298 54.1247C119.488 53.9296 119.621 53.6844 119.695 53.3891L115.557 44.6721H118.305L120.958 50.9211L123.285 44.6721H125.906L122.181 53.2546C121.694 54.3884 121.178 55.2295 120.632 55.7779C120.087 56.3211 119.478 56.5927 118.805 56.5927C118.593 56.5927 118.408 56.5821 118.249 56.561C118.096 56.5399 117.961 56.5136 117.844 56.4819C117.733 56.4503 117.632 56.4187 117.542 56.387C117.458 56.3554 117.375 56.3264 117.296 56.3V54.0931Z" fill="black"/>
<path d="M127.352 44.6721H132.658C133.278 44.6721 133.815 44.7564 134.27 44.9252C134.731 45.0939 135.112 45.3392 135.414 45.6608C135.716 45.9825 135.941 46.3728 136.089 46.8315C136.238 47.2903 136.312 47.8124 136.312 48.3978C136.312 48.9409 136.224 49.4419 136.05 49.9007C135.875 50.3542 135.621 50.7471 135.287 51.0793C134.959 51.4062 134.556 51.662 134.08 51.8466C133.603 52.0312 133.063 52.1234 132.459 52.1234H129.79V56.3H127.352V44.6721ZM129.79 50.1143H132.102C132.653 50.1143 133.084 49.9798 133.397 49.7108C133.714 49.4419 133.873 49.0042 133.873 48.3978C133.873 48.0919 133.831 47.8309 133.746 47.6146C133.667 47.3984 133.55 47.2218 133.397 47.0847C133.248 46.9423 133.063 46.8395 132.841 46.7762C132.624 46.7076 132.377 46.6733 132.102 46.6733H129.79V50.1143Z" fill="black"/>
<path d="M138.004 44.6721H140.347V52.5901H140.379L145.001 44.6721H147.472V56.3H145.129V48.4294H145.097L140.482 56.3H138.004V44.6721Z" fill="black"/>
<path d="M152.444 49.4261L154.462 49.434C154.689 49.434 154.904 49.4023 155.105 49.3391C155.312 49.2758 155.489 49.1809 155.637 49.0543C155.791 48.9225 155.913 48.7616 156.003 48.5718C156.093 48.3819 156.138 48.1604 156.138 47.9073C156.138 47.5856 156.074 47.3193 155.947 47.1084C155.82 46.8975 155.656 46.7313 155.455 46.6101C155.253 46.4888 155.028 46.4044 154.779 46.3569C154.531 46.3095 154.282 46.2857 154.033 46.2857C153.71 46.2857 153.426 46.32 153.183 46.3886C152.945 46.4519 152.738 46.5362 152.563 46.6417C152.394 46.7472 152.251 46.8658 152.134 46.9977C152.023 47.1242 151.936 47.2534 151.872 47.3853C151.809 47.5118 151.764 47.6331 151.737 47.7491C151.711 47.8599 151.697 47.9495 151.697 48.0181H149.45C149.45 47.8546 149.468 47.6516 149.505 47.409C149.548 47.1664 149.627 46.9106 149.743 46.6417C149.86 46.3728 150.024 46.1038 150.236 45.8349C150.453 45.5659 150.739 45.3233 151.094 45.1071C151.449 44.8909 151.88 44.7169 152.389 44.5851C152.902 44.4479 153.514 44.3794 154.223 44.3794C154.97 44.3794 155.611 44.4796 156.146 44.68C156.686 44.8751 157.128 45.1282 157.472 45.4394C157.816 45.7452 158.07 46.088 158.235 46.4677C158.399 46.8474 158.481 47.2191 158.481 47.583C158.481 47.7887 158.454 48.0049 158.401 48.2316C158.354 48.4584 158.261 48.6799 158.123 48.8961C157.991 49.1123 157.808 49.3127 157.575 49.4973C157.348 49.6818 157.051 49.8321 156.686 49.9481V49.9798C156.802 50.0114 156.937 50.051 157.091 50.0984C157.244 50.1459 157.401 50.2145 157.559 50.3041C157.724 50.3885 157.883 50.4992 158.036 50.6363C158.195 50.7734 158.335 50.9448 158.457 51.1505C158.579 51.3562 158.677 51.604 158.751 51.894C158.83 52.1788 158.87 52.5137 158.87 52.8986C158.87 53.4049 158.762 53.8821 158.544 54.3304C158.327 54.7786 158.01 55.1715 157.591 55.509C157.178 55.8412 156.665 56.1049 156.05 56.3C155.441 56.4951 154.742 56.5927 153.953 56.5927C153.551 56.5927 153.151 56.5689 152.754 56.5215C152.357 56.4793 151.978 56.4028 151.618 56.2921C151.263 56.1813 150.932 56.0363 150.625 55.857C150.318 55.6725 150.051 55.4457 149.823 55.1768C149.601 54.9025 149.426 54.5809 149.299 54.2117C149.172 53.8373 149.108 53.4049 149.108 52.9145H151.356C151.356 53.1096 151.401 53.3126 151.491 53.5235C151.586 53.7292 151.737 53.919 151.944 54.0931C152.15 54.2618 152.42 54.4016 152.754 54.5123C153.088 54.623 153.493 54.6784 153.969 54.6784C154.414 54.6784 154.793 54.6283 155.105 54.5281C155.418 54.4227 155.672 54.2855 155.868 54.1168C156.064 53.9428 156.207 53.7477 156.297 53.5314C156.387 53.31 156.432 53.0832 156.432 52.8512C156.432 52.4873 156.368 52.1973 156.241 51.9811C156.119 51.7596 155.963 51.5908 155.772 51.4748C155.582 51.3588 155.375 51.285 155.153 51.2533C154.93 51.2164 154.721 51.1979 154.525 51.1979H152.444V49.4261Z" fill="black"/>
<path d="M160.721 44.6721H164.287L166.337 53.7213H166.368L168.418 44.6721H172V56.3H169.752V46.5784H169.72L167.504 56.3H165.129L163 46.5784H162.969V56.3H160.721V44.6721Z" fill="black"/>
<path d="M44.2688 68C44.2417 68 44.2145 68 44.1874 68C43.8431 67.811 43.5611 67.5508 43.3713 67.2029C43.3116 67.096 43.2628 67.0851 43.1625 67.1399C42.368 67.5644 41.4949 67.1234 41.1777 66.5126C41.1208 66.4057 41.0801 66.4139 40.9987 66.4797C40.7873 66.6523 40.5378 66.7317 40.2667 66.7153C39.6105 66.6742 39.1143 66.1948 39.0275 65.5319C39.0248 65.5045 39.0302 65.4661 38.9814 65.4552C38.9272 65.5675 38.9163 65.6908 38.8838 65.8086C38.816 66.0688 38.6669 66.2551 38.412 66.3509C38.3415 66.3783 38.2954 66.3729 38.3171 66.277C38.3713 66.0222 38.2873 65.814 38.1056 65.6332C37.9728 65.499 37.8724 65.3429 37.8345 65.1539C37.7396 64.68 37.867 64.2855 38.2602 63.9979C38.3605 63.9239 38.393 63.8773 38.2819 63.7869C38.1924 63.713 38.1409 63.6089 38.111 63.4966C37.9863 62.998 38.2168 62.4009 38.8458 62.2639C38.9191 62.2475 39.014 62.2173 39.0628 62.2803C39.1089 62.3379 39.0194 62.3872 38.9923 62.4419C38.9299 62.5734 38.9082 62.7022 38.9841 62.8337C39.0601 62.9624 39.1794 62.998 39.3204 62.9926C39.4559 62.9871 39.5752 62.9323 39.6891 62.8665C39.8626 62.7652 40.0172 62.6392 40.169 62.5077C40.5486 62.1735 40.9771 61.927 41.4461 61.7489C41.7715 61.6256 42.0915 61.4887 42.3843 61.2942C42.425 61.2668 42.4738 61.2531 42.4928 61.1983C42.4846 61.1901 42.4792 61.1819 42.4711 61.1791C42.4629 61.1764 42.4521 61.1737 42.444 61.1737C42.1565 61.1928 41.8935 61.275 41.6848 61.4859C41.6549 61.5161 41.6278 61.5763 41.5817 61.5572C41.5275 61.5352 41.5492 61.4695 41.5519 61.4202C41.5682 61.1024 41.7336 60.8723 41.9776 60.6915C42.1349 60.5765 42.3003 60.4751 42.4602 60.3628C42.6934 60.1985 42.7829 59.9684 42.7531 59.6862C42.7124 59.3191 42.528 59.0288 42.2867 58.7631C41.9857 58.4316 41.6115 58.3248 41.1804 58.4042C40.6707 58.4974 40.3697 58.9986 40.5188 59.4999C40.5839 59.7136 40.7249 59.8259 40.9418 59.8424C41.0909 59.8533 41.2401 59.8341 41.3811 59.7848C41.4272 59.7684 41.4814 59.7246 41.5194 59.7629C41.5627 59.8067 41.5383 59.8752 41.5248 59.9327C41.4407 60.2752 41.0964 60.5491 40.7276 60.5683C40.4565 60.582 40.4456 60.6011 40.592 60.8449C40.6191 60.8915 40.6544 60.9353 40.6842 60.9819C40.7384 61.0668 40.8008 61.1463 40.8442 61.2339C40.9228 61.3901 40.8849 61.5243 40.7412 61.6284C40.6788 61.6749 40.6083 61.7051 40.5324 61.7215C40.3344 61.7653 40.1365 61.7544 39.9386 61.7325C39.1278 61.6421 38.3361 61.6804 37.5823 62.0448C36.9966 62.3269 36.4896 62.7378 35.931 63.0665C35.8876 63.0912 35.8605 63.1323 35.8768 63.1816C35.9256 63.324 35.9012 63.4884 36.0286 63.6089C36.1046 63.6801 36.1235 63.7952 36.11 63.9047C36.0802 64.1211 36.11 64.3376 36.1235 64.554C36.1398 64.8087 35.9636 65.0005 35.7385 64.9128C35.5568 64.8443 35.3806 64.7402 35.2532 64.5841C35.2044 64.5238 35.1555 64.4718 35.0823 64.4362C34.8519 64.3211 34.7895 64.1759 34.86 63.9239C34.8708 63.8856 34.879 63.85 34.8383 63.8308C34.6675 63.7513 34.5346 63.6007 34.3421 63.5568C34.1821 63.5185 34.052 63.4254 34.0005 63.2555C33.9761 63.1706 33.9245 63.135 33.8405 63.1158C33.5992 63.0638 33.4663 62.9186 33.4528 62.6721C33.4473 62.5515 33.4148 62.4803 33.3063 62.431C33.2304 62.3954 33.1952 62.3159 33.1708 62.2338C33.1192 62.0639 33.1572 61.9078 33.2358 61.7599C33.3036 61.6311 33.3958 61.5161 33.4853 61.4038C33.5341 61.3435 33.5639 61.2777 33.5422 61.201C33.4799 60.9764 33.4528 60.76 33.2819 60.5518C33.1003 60.3299 32.9891 60.0204 32.9782 59.7054C32.9755 59.6342 32.9999 59.5602 32.9999 59.489C33.0026 59.4013 32.962 59.3328 32.8644 59.3411C32.7505 59.3493 32.7559 59.2945 32.7857 59.2178C32.8074 59.163 32.7939 59.1219 32.7532 59.0836C32.6556 58.9904 32.6312 58.8726 32.6474 58.7439C32.6583 58.659 32.6447 58.5823 32.6122 58.5028C31.9994 57.0072 31.3866 55.5088 30.7738 54.0131C30.7521 53.9638 30.7359 53.909 30.6789 53.8844C30.5406 53.8268 30.4783 53.7227 30.4268 53.5748C30.3834 53.4516 30.199 53.3995 30.1583 53.2461C30.1556 53.2379 30.1529 53.2297 30.1502 53.2187C30.1393 53.1228 30.096 53.0735 29.9902 53.09C29.917 53.1009 29.8438 53.0681 29.795 53.0105C29.7001 52.8955 29.5699 52.8325 29.4479 52.753C29.2961 52.6572 29.1388 52.5668 28.9951 52.4572C28.6535 52.1942 28.5938 51.8162 28.5992 51.4163C28.5992 51.3505 28.6372 51.3286 28.6996 51.3505C28.7809 51.3806 28.8595 51.4135 28.9409 51.4409C28.9897 51.4573 29.0412 51.5039 29.09 51.4519C29.1415 51.4026 29.1442 51.3396 29.1144 51.2738C29.0493 51.1259 29.0819 50.9971 29.1714 50.8657C29.2527 50.7424 29.334 50.6164 29.3828 50.4712C29.391 50.4438 29.4072 50.4191 29.4371 50.4164C29.6567 50.3972 29.757 50.1863 29.9468 50.1151C29.9062 50.0932 29.8736 50.0822 29.8384 50.0795C29.2879 50.0384 28.8406 49.7891 28.4745 49.3782C28.3877 49.2796 28.3959 49.2139 28.4826 49.1262C28.7999 48.8057 29.1903 48.6276 29.6187 48.5236C29.6675 48.5126 29.7136 48.5016 29.7625 48.4879C29.7136 48.4523 29.6703 48.4414 29.6269 48.4277C29.2663 48.3263 28.93 48.1729 28.6372 47.9346C28.3905 47.7346 28.1925 47.4936 28.0976 47.1813C28.0352 46.9758 28.0515 46.9402 28.244 46.8581C28.6047 46.7074 28.9843 46.6663 29.372 46.6636C29.4344 46.6636 29.4967 46.6636 29.5591 46.6636C28.846 46.2746 28.2305 45.8171 28 44.9898C28 44.9268 28 44.8611 28 44.7981C28.4962 44.6748 28.9924 44.7104 29.5238 44.8228C29.3557 44.6721 29.2147 44.557 29.0873 44.4283C28.705 44.0503 28.4121 43.6175 28.3606 43.0586C28.3281 42.7272 28.32 42.6642 28.724 42.6943C29.1009 42.7217 29.4588 42.8368 29.814 42.9628C29.8302 42.9682 29.8465 42.9792 29.8655 42.9819C29.879 42.9847 29.8953 43.0039 29.9062 42.9737C29.5537 42.708 29.2798 42.3766 29.0981 41.9766C28.8189 41.363 28.7375 40.7357 29.0168 40.0975C29.1307 39.8372 29.1524 39.8345 29.3639 40.0153C29.8221 40.407 30.2505 40.8371 30.6816 41.2589C30.8958 41.4671 31.11 41.6726 31.3215 41.8807C31.3161 41.8479 31.2998 41.8287 31.2836 41.8068C30.8552 41.2726 30.4593 40.7193 30.1692 40.0947C29.9007 39.5195 29.7408 38.9223 29.8384 38.2786C29.9062 37.8293 30.0716 37.4349 30.4593 37.1691C30.6084 37.065 30.622 37.0733 30.706 37.2404C31.4652 38.7689 32.3438 40.2262 33.3334 41.6123C33.4473 41.7712 33.45 41.7684 33.5992 41.6479C33.7158 41.5548 33.7429 41.5602 33.7998 41.6999C34.0466 42.3136 34.4126 42.8477 34.8763 43.3107C35.0742 43.5079 35.0769 43.5079 35.2098 43.2723C35.2586 43.1874 35.2965 43.1655 35.3616 43.2586C35.6463 43.6558 35.988 44.001 36.3323 44.3461C36.7201 44.7351 37.1105 45.1213 37.4955 45.5158C37.726 45.7541 37.9402 46.0089 38.0785 46.3184C38.2358 46.6636 38.2032 46.9923 37.9944 47.3046C37.9321 47.395 37.8589 47.4744 37.783 47.5538C37.6664 47.6744 37.5471 47.7949 37.4576 47.9373C37.3112 48.1784 37.3084 48.4195 37.4549 48.6605C37.6718 49.0139 37.989 49.2303 38.3903 49.3043C38.8323 49.3837 39.2363 49.3015 39.5563 48.9564C39.6647 48.8413 39.6566 48.8249 39.502 48.7783C38.8269 48.5674 38.6696 47.6963 39.0736 47.1731C39.1306 47.0991 39.1658 47.1292 39.2065 47.1868C39.3312 47.3648 39.4993 47.4826 39.7108 47.5292C40.1501 47.6251 40.4754 47.3895 40.8279 47.1621C40.752 47.1238 40.6978 47.1429 40.6463 47.1457C40.1528 47.1868 39.7406 46.806 39.7623 46.3266C39.765 46.2362 39.784 46.1924 39.8789 46.2554C40.2016 46.4636 40.5215 46.428 40.8144 46.2061C41.2374 45.8801 41.3567 45.4199 41.297 44.9104C41.2021 44.1051 40.79 43.4586 40.2639 42.8751C40.2016 42.8039 40.1446 42.782 40.0579 42.8505C39.9521 42.9354 39.8274 42.9436 39.7 42.8888C39.5969 42.8422 39.4939 42.7929 39.3881 42.7573C39.014 42.634 38.656 42.6806 38.3171 42.8778C38.046 43.0367 37.8968 43.2696 37.9321 43.6038C37.9402 43.6668 37.905 43.6887 37.848 43.6531C37.5064 43.4531 37.3681 43.0833 37.6555 42.7655C37.7748 42.6341 37.924 42.5409 38.0812 42.4615C37.9673 42.4752 37.867 42.5245 37.7667 42.5765C37.5471 42.6916 37.3654 42.8559 37.1729 43.0093C36.5492 43.5051 35.5704 43.149 35.4077 42.3711C35.3914 42.2889 35.386 42.2095 35.4104 42.1273C35.4186 42.0971 35.4294 42.0588 35.4674 42.0588C35.4972 42.0588 35.508 42.0917 35.5189 42.1163C35.6545 42.4313 35.912 42.5245 36.2266 42.5135C36.533 42.5026 36.8231 42.4094 37.0997 42.2834C37.3979 42.1465 37.7097 42.0561 38.0324 42.0067C38.1246 41.9931 38.2222 42.0122 38.3117 41.9711C38.3036 41.9547 38.3008 41.9437 38.2954 41.9383C38.2683 41.9246 38.2385 41.9109 38.2087 41.8999C37.8724 41.7794 37.5281 41.7547 37.181 41.8232C36.9695 41.867 36.7689 41.9465 36.6279 42.1191C36.5303 42.2369 36.4679 42.204 36.3811 42.1191C35.8307 41.5876 36.0341 40.5686 36.7553 40.2509C36.9316 40.1742 37.1159 40.1385 37.3057 40.1139C37.3545 40.1084 37.4142 40.1112 37.4305 40.0509C37.4711 39.8975 37.5606 39.8208 37.7233 39.8235C37.7884 39.8235 37.8046 39.7523 37.8046 39.7003C37.8046 39.64 37.745 39.6619 37.707 39.6564C37.5823 39.6373 37.4549 39.6263 37.3329 39.6016C36.8475 39.5112 36.3866 39.3633 35.9961 39.0428C35.6924 38.7935 35.5921 38.4758 35.6599 38.0923C35.7114 37.8129 35.8171 37.5499 35.8958 37.2787C35.9527 37.0787 35.9907 36.8788 35.9554 36.6706C35.9256 36.5008 35.8904 36.4871 35.7412 36.5638C35.443 36.7172 35.1447 36.8706 34.8085 36.9226C34.757 36.9308 34.7163 36.9582 34.7 37.013C34.5861 37.402 34.5129 37.7882 34.7597 38.158C34.822 38.2512 34.8817 38.3498 34.9359 38.4511C35.1474 38.8264 35.1339 39.199 34.9142 39.566C34.8492 39.6756 34.7732 39.7797 34.7082 39.8893C34.5211 40.2015 34.4831 40.5111 34.7326 40.8152C34.7488 40.8343 34.7732 40.859 34.7597 40.8864C34.7461 40.9165 34.7136 40.911 34.6892 40.911C34.2906 40.9275 33.9218 40.5714 33.9056 40.1714C33.8974 39.9632 33.9517 39.777 34.0683 39.6044C34.1469 39.4921 34.2337 39.3798 34.2581 39.2291C34.1984 39.2373 34.1767 39.2839 34.1469 39.314C33.9544 39.4893 33.7347 39.5523 33.4826 39.5003C33.385 39.4811 33.2874 39.4565 33.1924 39.4318C32.9837 39.377 32.8915 39.4647 32.9321 39.6811C32.9457 39.755 32.9891 39.8208 32.9782 39.9057C32.7261 39.7961 32.5064 39.4017 32.539 39.136C32.5797 38.8045 32.8183 38.6347 33.1464 38.7031C33.2385 38.7223 33.328 38.7552 33.4202 38.7771C33.5314 38.8018 33.5937 38.7552 33.6073 38.6429C33.6263 38.495 33.5666 38.3744 33.4663 38.2731C33.3823 38.1854 33.2874 38.106 33.2033 38.0183C32.8291 37.6211 32.9023 37.0541 33.366 36.7665C33.5775 36.635 33.8107 36.5501 34.052 36.5281C34.2797 36.5062 34.437 36.3939 34.5699 36.2241C34.6241 36.1529 34.6756 36.0762 34.7271 36.0022C34.8492 35.8159 34.9847 35.6379 35.1583 35.4954C35.4348 35.2763 35.6246 35.2571 35.9283 35.4379C36.2239 35.6132 36.514 35.7967 36.8258 35.9447C37.0915 36.0707 37.2054 36.3364 37.1675 36.6405C37.1241 36.9856 36.9885 37.2979 36.8421 37.6074C36.7553 37.7882 36.674 37.9718 36.6224 38.1662C36.5275 38.5306 36.6279 38.8237 36.9261 39.0456C37.2135 39.262 37.5416 39.3852 37.8887 39.4702C37.9809 39.4921 38.0189 39.4428 38.0026 39.3578C37.9944 39.3085 37.97 39.2647 37.9484 39.2181C37.8101 38.9196 37.6609 38.6264 37.5932 38.3032C37.5091 37.8978 37.6501 37.5992 38.008 37.3992C38.2087 37.2869 38.431 37.2376 38.6425 37.1637C38.7184 37.1363 38.8079 37.1363 38.8404 37.2458C38.8458 37.2678 38.8594 37.2897 38.8892 37.2842C38.9163 37.2787 38.9191 37.2513 38.9163 37.2294C38.9109 37.1664 38.9001 37.1061 38.8757 37.0459C38.797 36.8623 38.873 36.6898 38.8974 36.5144C38.8621 36.5199 38.835 36.6131 38.7862 36.5857C38.7238 36.5528 38.7537 36.4706 38.7509 36.4076C38.7482 36.2761 38.7482 36.1419 38.7509 36.0104C38.7537 35.8488 38.7618 35.8433 38.8974 35.9173C38.8269 35.7803 38.8269 35.7803 38.976 35.7803C39.1306 35.7803 39.2824 35.7803 39.4369 35.7803C39.4776 35.7803 39.5318 35.7639 39.5535 35.7967C39.5888 35.8515 39.502 35.868 39.4993 35.92C39.54 35.9145 39.5617 35.8488 39.6051 35.8762C39.643 35.9008 39.624 35.9529 39.6267 35.9912C39.6295 36.1063 39.6403 36.2213 39.624 36.3337C39.6105 36.4213 39.7081 36.5473 39.5481 36.5911C39.5779 36.7993 39.5563 37.0048 39.4912 37.2048C39.4858 37.2267 39.4803 37.2623 39.5237 37.2787C39.5535 37.1719 39.6349 37.1308 39.7298 37.1637C39.9738 37.2458 40.2287 37.2979 40.4483 37.4403C40.7384 37.6266 40.8632 37.9088 40.8008 38.2484C40.7845 38.3416 40.7601 38.4374 40.7303 38.5251C40.6463 38.7716 40.5459 39.01 40.4239 39.2401C40.4022 39.2839 40.3561 39.3332 40.3914 39.377C40.4348 39.4318 40.4944 39.3825 40.5378 39.3633C40.7276 39.2784 40.9201 39.1935 41.1018 39.0949C41.6007 38.8237 42.086 38.5306 42.4901 38.1224C42.7124 37.8978 42.7504 37.5198 42.5931 37.2458C42.3057 36.75 42.0888 36.2241 41.9559 35.6653C41.8149 35.0599 42.0372 34.6106 42.5877 34.334C42.8697 34.1915 43.1815 34.1449 43.4743 34.0381C43.5774 33.9998 43.7048 34.0025 43.7346 34.1696C43.74 34.208 43.7644 34.2381 43.8078 34.2353C43.8458 34.2326 43.8946 34.2271 43.9 34.1915C43.9136 34.0929 43.9678 33.9943 43.9 33.8957C43.7753 33.7094 43.7617 33.5149 43.8593 33.3122C43.8729 33.2875 43.9081 33.2519 43.8702 33.2273C43.7861 33.1752 43.8485 33.1369 43.8756 33.0985C43.9326 33.0191 44.003 32.9506 44.0275 32.8465C43.9353 32.904 43.8539 32.9725 43.7726 33.041C43.7129 33.0931 43.675 33.0848 43.675 32.9999C43.675 32.7397 43.675 32.4795 43.675 32.2192C43.675 32.1288 43.7156 32.1179 43.7834 32.1699C43.8621 32.2274 43.9271 32.3069 44.0464 32.3534C44.0058 32.2411 43.9353 32.1836 43.881 32.1151C43.8621 32.0905 43.8295 32.0658 43.8404 32.0329C43.8539 31.9864 43.9 32.0028 43.9353 32.0028C44.1847 32.0001 44.4315 32.0028 44.6809 32.0028C44.7107 32.0028 44.746 31.9919 44.765 32.0412C44.6945 32.1425 44.5833 32.2247 44.5182 32.3699C44.643 32.3151 44.7162 32.2411 44.7948 32.1754C44.8626 32.1179 44.9033 32.1288 44.9033 32.2192C44.906 32.4795 44.906 32.7397 44.9033 32.9999C44.9033 33.0848 44.8653 33.0903 44.8029 33.041C44.7243 32.978 44.6592 32.8931 44.5481 32.8547C44.5453 32.9232 44.5969 32.9534 44.6104 32.9972C44.6402 33.0848 44.8463 33.1177 44.6945 33.2629C44.6918 33.2656 44.708 33.2958 44.7162 33.3095C44.8355 33.5149 44.8084 33.7094 44.6782 33.8984C44.6131 33.997 44.6538 34.1011 44.6836 34.1943C44.708 34.2682 44.8328 34.2545 44.8517 34.1751C44.887 34.0244 45.0009 34.0107 45.1039 34.0436C45.4211 34.1449 45.7519 34.2052 46.0529 34.3641C46.5572 34.6325 46.7715 35.0626 46.6521 35.6269C46.5301 36.1939 46.2807 36.7117 46.0122 37.2212C45.8496 37.528 45.8631 37.9498 46.1831 38.2156C46.766 38.6949 47.3951 39.0921 48.0892 39.3825C48.1272 39.3989 48.176 39.4373 48.2112 39.3907C48.2411 39.3524 48.2031 39.314 48.1841 39.2784C48.0431 39.0127 47.9238 38.736 47.8343 38.4484C47.6717 37.9334 47.8398 37.5636 48.3305 37.3499C48.4634 37.2924 48.6044 37.2541 48.74 37.2048C48.805 37.1801 48.8647 37.1582 48.9352 37.1582C49.022 37.1609 49.0382 37.2431 49.106 37.2869C49.0789 37.0377 48.9596 36.7966 49.0653 36.5446C48.9406 36.6131 48.9325 36.6103 48.9325 36.4734C48.9298 36.3227 48.9325 36.172 48.9325 36.0214C48.9325 35.8543 48.9325 35.8543 49.0843 35.9255C49.0789 35.8789 49.003 35.8598 49.0247 35.8132C49.0518 35.7584 49.1142 35.7858 49.1602 35.7831C49.3284 35.7803 49.4938 35.7831 49.6619 35.7803C49.7595 35.7776 49.7785 35.8132 49.708 35.9063C49.8218 35.8241 49.8381 35.8844 49.8381 35.9693C49.8381 36.1118 49.8408 36.2515 49.8381 36.3939C49.8354 36.4597 49.8707 36.5501 49.8056 36.5857C49.7405 36.6213 49.7188 36.5117 49.6727 36.5035C49.7513 36.6815 49.8029 36.8651 49.7161 37.065C49.6836 37.139 49.6619 37.213 49.7242 37.3088C49.7486 37.1746 49.8327 37.1308 49.9249 37.1637C50.177 37.2486 50.4428 37.2951 50.6678 37.454C50.9417 37.6458 51.0474 37.9088 50.9932 38.2375C50.9471 38.5141 50.8332 38.7689 50.7221 39.0236C50.6787 39.125 50.6244 39.2181 50.5865 39.3222C50.5458 39.4318 50.5919 39.4975 50.6922 39.4729C51.08 39.3798 51.446 39.2428 51.747 38.9716C51.9476 38.7908 52.0208 38.5634 51.9747 38.2923C51.9314 38.032 51.8202 37.7964 51.7144 37.5609C51.5789 37.2623 51.446 36.9637 51.4081 36.6295C51.3755 36.3391 51.4948 36.0679 51.7524 35.9447C52.0751 35.7885 52.3842 35.6077 52.6852 35.416C52.9156 35.2681 53.1298 35.3009 53.3413 35.4516C53.5474 35.5968 53.7074 35.7913 53.8402 36.0049C53.9324 36.1529 54.0463 36.2816 54.1683 36.4049C54.2253 36.4624 54.2876 36.4925 54.369 36.5062C54.6645 36.5501 54.9574 36.6158 55.2149 36.7802C55.6732 37.0705 55.741 37.643 55.3641 38.0375C55.2827 38.1224 55.1905 38.1991 55.1092 38.284C55.0143 38.3827 54.9546 38.4977 54.9709 38.6401C54.9845 38.7689 55.0495 38.8155 55.1743 38.7853C55.2393 38.7689 55.3044 38.747 55.3695 38.7278C55.7925 38.6155 56.0718 38.8511 56.023 39.2894C55.9904 39.5715 55.8386 39.7797 55.5918 39.9221C55.5891 39.8674 55.6054 39.8208 55.6162 39.7742C55.6434 39.6674 55.6813 39.5523 55.5973 39.4619C55.5132 39.3715 55.4102 39.4428 55.318 39.4619C55.3098 39.4647 55.3017 39.4674 55.2909 39.4702C54.9411 39.5797 54.6211 39.5551 54.3554 39.2674C54.3527 39.2647 54.3391 39.2674 54.3229 39.2702C54.3608 39.4154 54.453 39.5277 54.5289 39.6509C54.8679 40.2043 54.5533 40.8535 53.9134 40.922C53.8755 40.9247 53.8267 40.9439 53.805 40.9001C53.786 40.8617 53.8294 40.8343 53.8484 40.8069C54.0409 40.533 54.0571 40.2509 53.889 39.9605C53.824 39.8454 53.7508 39.7359 53.6775 39.6263C53.5393 39.4181 53.4796 39.1907 53.4823 38.9415C53.4877 38.6703 53.6125 38.4484 53.7616 38.2402C54.0246 37.8677 54.0111 37.4732 53.8863 37.065C53.8673 37.0048 53.8402 36.9527 53.7724 36.9418C53.42 36.8815 53.1027 36.7226 52.7909 36.5583C52.696 36.509 52.6472 36.5391 52.6228 36.635C52.5875 36.7939 52.593 36.9527 52.6228 37.1116C52.6824 37.4212 52.818 37.7088 52.8885 38.0156C53.0024 38.5059 52.8804 38.8401 52.4737 39.136C52.3462 39.2291 52.2079 39.3058 52.0615 39.3715C51.6846 39.5386 51.2887 39.6181 50.882 39.6701C50.8386 39.6756 50.7573 39.6427 50.7654 39.7359C50.7709 39.8071 50.8142 39.8482 50.8929 39.8454C50.9824 39.8427 51.0718 39.8756 51.0935 39.9578C51.1369 40.1303 51.2643 40.1303 51.3945 40.1468C52.0019 40.2344 52.5984 40.6535 52.4709 41.5109C52.433 41.7602 52.3571 41.9876 52.1618 42.1629C52.0913 42.2259 52.0425 42.2423 51.9747 42.1574C51.8663 42.0232 51.7172 41.9437 51.5572 41.8862C51.2833 41.7876 50.9986 41.7849 50.7139 41.826C50.5567 41.8479 50.4021 41.8807 50.2394 41.9794C50.2936 41.9931 50.3208 42.004 50.3452 42.004C50.7383 42.0259 51.1098 42.1328 51.4677 42.2944C51.7172 42.4067 51.9747 42.4834 52.2459 42.5217C52.593 42.5683 52.8777 42.4533 53.0132 42.2095C53.0404 42.1629 53.0376 42.0643 53.1054 42.0807C53.1732 42.0999 53.1651 42.193 53.1678 42.2615C53.1678 42.2889 53.1624 42.3163 53.1597 42.3437C53.0214 43.1545 52.0046 43.5353 51.3647 43.0148C51.1749 42.8614 50.9905 42.6998 50.7709 42.5847C50.6732 42.5354 50.5756 42.4861 50.4672 42.4752C50.5811 42.5409 50.6976 42.6039 50.798 42.6888C51.1478 42.9819 51.1315 43.3737 50.7546 43.6339C50.7193 43.6585 50.6814 43.7051 50.6353 43.6777C50.5973 43.6558 50.6109 43.6038 50.6136 43.5627C50.6271 43.3134 50.5241 43.1216 50.3343 42.971C50.1255 42.8039 49.8842 42.7272 49.6212 42.7108C49.3528 42.6916 49.1142 42.7792 48.881 42.8943C48.7508 42.9573 48.6125 42.9682 48.4959 42.8778C48.401 42.8066 48.3414 42.8203 48.2682 42.9025C47.7449 43.4778 47.3354 44.1133 47.2487 44.9131C47.2053 45.3268 47.2731 45.713 47.5388 46.05C47.8127 46.3979 48.2682 46.5019 48.618 46.3047C48.6586 46.2828 48.6993 46.2225 48.7481 46.2581C48.7969 46.2938 48.7806 46.3568 48.7752 46.4115C48.7264 46.8663 48.4119 47.1512 47.9564 47.1566C47.8832 47.1566 47.8072 47.1375 47.7096 47.1786C47.9509 47.3511 48.1841 47.4881 48.4526 47.5484C48.7996 47.6251 49.0843 47.5127 49.3094 47.2388C49.4124 47.1128 49.4206 47.1128 49.5127 47.2553C49.8679 47.8059 49.6673 48.6386 49.0003 48.8057C48.8972 48.8304 48.9027 48.8769 48.9623 48.9481C49.0572 49.0632 49.1684 49.1509 49.3012 49.2166C49.8002 49.4686 50.4536 49.3618 50.8739 48.9591C51.305 48.5455 51.3159 48.1428 50.901 47.7155C50.7871 47.5977 50.6705 47.4826 50.5756 47.3484C50.3452 47.0169 50.3153 46.6663 50.4862 46.2992C50.5675 46.1239 50.676 45.9678 50.7953 45.8171C51.1017 45.4364 51.4541 45.1022 51.7985 44.7597C52.254 44.3105 52.7204 43.8695 53.1163 43.3627C53.2681 43.1655 53.2681 43.1655 53.3793 43.3901C53.4471 43.5271 53.4579 43.5325 53.5691 43.4284C54.0843 42.9463 54.4774 42.3793 54.7404 41.7191C54.8001 41.5712 54.8408 41.5602 54.9601 41.6671C55.0929 41.7849 55.0929 41.7849 55.1933 41.6479C55.2177 41.615 55.2421 41.5822 55.2665 41.5493C56.2345 40.1796 57.0967 38.7442 57.8424 37.2404C57.9156 37.0924 57.9291 37.087 58.0728 37.1801C58.3738 37.3746 58.5528 37.6595 58.6477 37.9991C58.7697 38.4292 58.767 38.8675 58.6585 39.2976C58.4768 40.0208 58.1189 40.659 57.6878 41.2562C57.5387 41.4644 57.3787 41.6671 57.2241 41.8725C57.6092 41.5137 57.9861 41.1466 58.3657 40.7823C58.6612 40.5001 58.9513 40.2125 59.2713 39.955C59.3554 39.8865 59.4069 39.8947 59.4611 39.9906C59.6319 40.2865 59.7051 40.6124 59.697 40.9494C59.6807 41.5575 59.4638 42.0971 59.0788 42.5656C58.9459 42.7272 58.7914 42.8642 58.6341 43.0011C58.7371 42.9737 58.832 42.9381 58.9296 42.9052C59.2659 42.7929 59.6048 42.6943 59.96 42.7025C60.1525 42.708 60.1932 42.7601 60.1823 42.9545C60.1661 43.3134 60.0522 43.6421 59.857 43.9434C59.6563 44.2502 59.396 44.505 59.1167 44.7378C59.0896 44.7597 59.0435 44.7734 59.0435 44.8337C59.5424 44.7187 60.0386 44.7022 60.5348 44.8145C60.5348 44.8693 60.5348 44.9241 60.5348 44.9789C60.3125 45.8473 59.659 46.2965 58.889 46.6718C59.0544 46.6718 59.1791 46.6663 59.3065 46.6718C59.6563 46.691 59.998 46.7375 60.3233 46.8827C60.4372 46.9348 60.4806 46.995 60.4399 47.1265C60.3803 47.3265 60.2854 47.5073 60.1525 47.6661C59.8136 48.0716 59.3662 48.3017 58.87 48.4386C58.8266 48.4496 58.7832 48.4633 58.7398 48.4742C58.7995 48.5099 58.851 48.5208 58.9025 48.5345C59.3391 48.6413 59.7431 48.8139 60.0576 49.1536C60.1254 49.2248 60.1362 49.2823 60.0685 49.3645C59.7729 49.7261 59.4014 49.9589 58.9459 50.0603C58.8266 50.085 58.6992 50.0713 58.5663 50.1288C58.9188 50.3205 59.1927 50.5753 59.3852 50.9095C59.4963 51.1012 59.4909 51.1122 59.3147 51.2327C58.851 51.5477 58.3467 51.5724 57.8179 51.4656C57.7203 51.4464 57.6254 51.4245 57.5278 51.4026C57.601 51.4683 57.6797 51.5121 57.7583 51.556C58.1542 51.7669 58.4172 52.0764 58.466 52.5421C58.4741 52.6188 58.4931 52.6955 58.5175 52.7695C58.5419 52.8516 58.5121 52.8927 58.4443 52.9338C57.8993 53.2708 57.3678 53.2461 56.8418 52.8927C56.7523 52.8325 56.6629 52.7695 56.5707 52.7092C56.7198 52.8517 56.8798 52.9804 57.0289 53.1174C57.2377 53.3091 57.3218 53.5502 57.2675 53.8351C57.2404 53.9693 57.2187 54.1035 57.2024 54.2405C57.1916 54.3281 57.1509 54.3665 57.0669 54.3774C56.9421 54.3939 56.8174 54.4158 56.6927 54.4377C56.3022 54.5062 55.9877 54.4048 55.7437 54.0679C55.5159 53.7556 55.2583 53.4653 55.0143 53.1667C54.754 52.8517 54.4937 52.5366 54.2361 52.2243C54.331 52.3997 54.4476 52.5613 54.5615 52.7229C54.9058 53.1968 55.261 53.6652 55.562 54.172C55.665 54.3473 55.7166 54.5281 55.665 54.7335C55.6054 54.9637 55.4671 55.1527 55.3749 55.3663C55.3532 55.4156 55.3153 55.4102 55.2719 55.4074C55.0821 55.3965 54.8923 55.3882 54.7025 55.3745C54.491 55.3581 54.3229 55.2622 54.2171 55.0705C54.1195 54.9006 54.0273 54.7281 53.9324 54.5555C53.645 54.0268 53.3684 53.4954 53.0566 52.9804C53.0973 53.09 53.1434 53.1968 53.1922 53.3036C53.4227 53.8104 53.6531 54.3144 53.8836 54.8212C54.0138 55.1088 53.9785 55.3691 53.748 55.5964C53.645 55.6978 53.542 55.8019 53.4633 55.9251C53.4308 55.9745 53.3956 55.9909 53.3386 55.9608C53.2003 55.8895 53.0458 55.8676 52.8966 55.8348C52.5984 55.7663 52.3977 55.5937 52.3137 55.2896C52.1808 54.8157 52.0425 54.3418 51.9042 53.8707C51.869 53.7474 51.8256 53.6296 51.7877 53.5063C51.8256 53.9474 51.8907 54.3774 51.9585 54.8102C51.9991 55.0623 51.9097 55.2458 51.7009 55.38C51.549 55.4759 51.3809 55.5526 51.2481 55.6786C51.2183 55.706 51.1857 55.717 51.1505 55.6923C51.0122 55.6046 50.8549 55.5581 50.7058 55.4869C50.4997 55.3882 50.3885 55.2266 50.3614 54.9993C50.3045 54.5473 50.2828 54.0898 50.2774 53.6351C50.2774 53.5885 50.2964 53.5365 50.2448 53.4844C50.1526 53.6187 50.0577 53.5858 49.9547 53.4954C49.914 53.4598 49.8598 53.4433 49.811 53.4214C49.6727 53.3584 49.5236 53.3036 49.4205 53.1804C49.3853 53.1393 49.3501 53.1502 49.3148 53.1776C49.266 53.216 49.2416 53.2708 49.2172 53.3228C48.9569 53.92 48.8918 54.5336 49.0626 55.1664C49.1196 55.38 49.2253 55.5663 49.3961 55.7389C49.285 55.7663 49.2009 55.7498 49.1169 55.7526C49.0653 55.7553 48.9976 55.6923 48.9704 55.7581C48.946 55.8156 49.0165 55.8594 49.0545 55.9032C49.1413 56.0046 49.247 56.084 49.3663 56.1388C49.6429 56.2648 49.9276 56.2566 50.215 56.1854C50.3913 56.1416 50.4021 56.1498 50.356 56.3223C50.3343 56.4018 50.3479 56.4401 50.4346 56.4566C50.5268 56.473 50.619 56.5031 50.7085 56.5305C51.2915 56.7086 51.7741 57.3441 51.7361 57.9714C51.7199 58.2179 51.6873 58.4617 51.6629 58.7055C51.6575 58.7466 51.6521 58.7877 51.6494 58.8288C51.6358 59.2041 51.8717 59.3958 52.235 59.3082C52.2676 59.3 52.3083 59.2726 52.3381 59.3C52.3733 59.3328 52.3462 59.3767 52.3327 59.415C52.2486 59.6424 52.0913 59.7985 51.8609 59.8725C51.5409 59.9738 51.2454 59.9163 50.9796 59.7054C50.9552 59.6862 50.939 59.6451 50.9037 59.6588C50.863 59.6725 50.8658 59.7163 50.8658 59.7547C50.8549 60.004 50.8793 60.2478 51.0176 60.4642C51.0339 60.4888 51.0664 60.5162 51.042 60.5491C51.0203 60.5765 50.9851 60.571 50.9525 60.5683C50.7437 60.5464 50.5594 60.4751 50.4048 60.3272C50.3777 60.3026 50.3614 60.2532 50.3099 60.2669C50.2584 60.4888 50.2503 60.4916 50.0605 60.3546C50.0116 60.319 49.9628 60.2231 49.9113 60.2642C49.849 60.3135 49.8896 60.4066 49.914 60.4806C49.9249 60.5107 49.9384 60.5409 49.9493 60.5683C50.0496 60.7929 50.2313 60.9299 50.4455 61.0339C50.7926 61.2038 51.1586 61.3243 51.5219 61.4476C51.9476 61.5928 52.3788 61.7051 52.8343 61.6859C53.0946 61.6749 53.2735 61.5435 53.4172 61.3407C53.4633 61.2777 53.4606 61.2147 53.4335 61.1353C53.363 60.9326 53.1786 60.8066 53.1 60.6066C53.0268 60.4203 52.9129 60.2615 53.0404 60.0451C53.0973 59.9464 53.1488 59.8287 53.1813 59.7081C53.3928 58.9274 53.8755 58.4042 54.6347 58.1412C54.8381 58.07 54.9302 57.8865 55.0224 57.7057C54.9031 57.7523 54.8164 57.8372 54.7188 57.9111C54.6943 57.9303 54.6699 57.9604 54.6347 57.9413C54.6022 57.9248 54.6103 57.8865 54.6103 57.8536C54.6103 57.5715 54.6103 57.2866 54.6103 57.0044C54.6103 56.9743 54.6022 56.9332 54.632 56.9168C54.6699 56.8921 54.6998 56.9277 54.7269 56.9496C54.8218 57.0209 54.9085 57.1085 55.0414 57.1743C54.9845 57.0318 54.9004 56.9442 54.8218 56.851C54.8028 56.8264 54.7648 56.8045 54.7757 56.7716C54.7892 56.7305 54.8353 56.736 54.8706 56.736C55.1553 56.736 55.44 56.736 55.7247 56.736C55.7545 56.736 55.7952 56.7332 55.8088 56.7661C55.825 56.8017 55.7898 56.8209 55.7708 56.8456C55.6922 56.9414 55.5973 57.0236 55.5566 57.1715C55.684 57.1085 55.7681 57.0236 55.8603 56.9551C55.8874 56.9332 55.9145 56.8976 55.9552 56.9168C55.9931 56.936 55.9823 56.9798 55.9823 57.0154C55.9823 57.2893 55.985 57.5632 55.9823 57.8372C55.9823 57.8755 55.9958 57.9276 55.947 57.944C55.9091 57.9577 55.882 57.9221 55.8521 57.9002C55.7599 57.8317 55.6786 57.7468 55.562 57.7112C55.6759 57.892 55.7708 58.0865 55.9904 58.1686C56.7279 58.4426 57.197 58.963 57.3923 59.7328C57.4221 59.8506 57.46 59.9711 57.5224 60.0752C57.6037 60.2149 57.6824 60.3519 57.6173 60.5107C57.5604 60.6504 57.4817 60.7874 57.3895 60.9052C57.3407 60.9682 57.2838 61.023 57.2513 61.0997C57.113 61.412 56.915 61.6832 56.652 61.9023C56.5897 61.9544 56.549 62.0119 56.5408 62.0941C56.5273 62.2447 56.4378 62.3433 56.305 62.4036C56.2046 62.4474 56.1016 62.4803 55.9986 62.5159C55.8955 62.5515 55.7871 62.5899 55.7193 62.6748C55.5159 62.9268 55.2502 62.9789 54.9519 62.946C54.7513 62.9241 54.5669 62.9734 54.3988 63.0829C54.3446 63.1186 54.293 63.1514 54.2388 63.1843C54.0599 63.2911 53.8809 63.2994 53.7047 63.1733C53.6504 63.135 53.5908 63.0884 53.5284 63.0747C53.2356 63.0035 52.9943 62.8337 52.7448 62.6803C52.4438 62.494 52.1239 62.3707 51.7741 62.3187C51.2291 62.2365 50.6814 62.1708 50.1554 61.9954C49.7459 61.8585 49.3284 61.779 48.8918 61.7708C48.6396 61.7653 48.3875 61.7544 48.138 61.6969C47.8669 61.6339 47.8127 61.5188 47.9564 61.2805C48.073 61.086 48.1489 60.8806 48.1733 60.6532C48.1868 60.5299 48.1489 60.519 48.0513 60.5464C47.9536 60.5737 47.856 60.5792 47.7557 60.5737C47.3409 60.5518 46.9829 60.2642 46.9097 59.8889C46.8826 59.7602 46.9043 59.7383 47.0318 59.7848C47.1429 59.8259 47.2568 59.8506 47.3734 59.8643C47.6445 59.9026 47.8669 59.7574 47.9482 59.4945C48.0675 59.1055 47.9021 58.6836 47.5442 58.5028C47.1917 58.3275 46.8257 58.3357 46.4922 58.533C46.0882 58.7713 45.8333 59.1411 45.7303 59.604C45.6543 59.941 45.7736 60.2176 46.061 60.4066C46.1966 60.497 46.3349 60.5847 46.4678 60.6806C46.6088 60.7819 46.7308 60.9025 46.8148 61.0586C46.9016 61.2175 46.9369 61.3873 46.8989 61.5681C46.8528 61.5736 46.8338 61.5435 46.8148 61.5215C46.6169 61.3134 46.3729 61.2093 46.0936 61.1873C46.0583 61.1846 46.0122 61.1627 45.996 61.2038C45.977 61.2504 46.0285 61.2613 46.0556 61.2805C46.2454 61.4065 46.4407 61.5215 46.6549 61.5982C47.349 61.8503 47.9916 62.1954 48.542 62.7022C48.5854 62.7433 48.6369 62.7734 48.683 62.8063C48.7942 62.8857 48.9135 62.9515 49.0491 62.9816C49.2443 63.0282 49.4151 62.9706 49.4883 62.8255C49.567 62.6721 49.5344 62.5241 49.4422 62.3872C49.4205 62.3543 49.3745 62.3269 49.4043 62.2803C49.4314 62.242 49.4775 62.2502 49.5182 62.2529C49.8788 62.2913 50.1554 62.4639 50.3018 62.8008C50.4536 63.1514 50.4699 63.5048 50.1852 63.8061C50.1011 63.8938 50.1228 63.9239 50.2069 63.9869C50.5512 64.2417 50.6976 64.5868 50.6624 65.0224C50.6407 65.3018 50.5051 65.5127 50.3235 65.7045C50.1798 65.8551 50.112 66.0304 50.1499 66.2414C50.1581 66.2797 50.1798 66.329 50.1445 66.3564C50.1038 66.3865 50.0577 66.3537 50.0171 66.3345C49.7649 66.2194 49.6375 66.0085 49.5859 65.7428C49.5643 65.636 49.5453 65.5291 49.4829 65.4196C49.4694 65.447 49.4666 65.4524 49.4639 65.4552C49.3121 66.5728 48.3685 67.0358 47.4276 66.4523C47.3707 66.4167 47.349 66.4331 47.3246 66.4824C47.2812 66.5728 47.2297 66.6577 47.1646 66.7372C46.7715 67.2193 46.0204 67.5261 45.3046 67.1563C45.2422 67.1234 45.1825 67.0714 45.1256 67.1782C44.9277 67.5316 44.6294 67.8 44.2688 68ZM34.2364 52.3284C34.2309 52.3257 34.2282 52.3202 34.2228 52.3175C34.1903 52.3531 34.1577 52.3887 34.1279 52.4271C33.6453 53.0133 33.1653 53.5995 32.6854 54.1884C32.5525 54.35 32.3871 54.4322 32.1838 54.4514C31.9913 54.4678 31.8069 54.4377 31.6198 54.4048C31.5764 54.3966 31.5249 54.372 31.4924 54.4131C31.4652 54.4487 31.5059 54.4898 31.5222 54.5254C32.1079 55.7444 32.6935 56.9633 33.2792 58.1823C33.3036 58.2316 33.3226 58.2837 33.3768 58.3083C33.5395 58.3905 33.5883 58.533 33.629 58.7028C33.6588 58.8206 33.7754 58.9055 33.6968 59.0589C33.667 59.1164 33.7727 59.1931 33.8405 59.2397C33.9734 59.3328 34.0628 59.4506 34.0872 59.615C34.0954 59.6698 34.1279 59.7136 34.1686 59.752C34.2852 59.856 34.334 59.9985 34.3096 60.1464C34.2906 60.2642 34.3421 60.3409 34.3882 60.4368C34.4533 60.5737 34.5455 60.5409 34.6458 60.5135C34.6621 60.508 34.6838 60.5107 34.7 60.5162C34.8003 60.5546 34.8817 60.5162 34.9685 60.4697C35.1257 60.3875 35.2749 60.4149 35.4104 60.5272C35.508 60.6066 35.5731 60.7107 35.6084 60.8312C35.7494 61.2997 36.27 61.5462 36.7282 61.4503C37.3545 61.3188 37.9321 61.0696 38.4825 60.7436C38.6588 60.6395 38.7049 60.5053 38.6533 60.308C38.6344 60.2395 38.6127 60.2368 38.5639 60.2779C38.5096 60.3245 38.4527 60.3683 38.393 60.4121C38.3225 60.4642 38.2683 60.4614 38.2547 60.3573C38.2385 60.2368 38.1897 60.2669 38.1273 60.3299C37.9863 60.4697 37.8155 60.5436 37.6203 60.5655C37.5796 60.571 37.5335 60.582 37.5091 60.5409C37.4874 60.5025 37.5254 60.4724 37.5416 60.445C37.6745 60.2231 37.6881 59.9793 37.6718 59.73C37.6664 59.6533 37.642 59.6232 37.5742 59.6862C37.5416 59.7163 37.5064 59.7465 37.4684 59.7711C37.0237 60.0642 36.4272 59.9163 36.2293 59.4643C36.2076 59.415 36.1642 59.3575 36.2022 59.3109C36.2374 59.2671 36.2944 59.3109 36.3405 59.3219C36.6685 59.3876 36.8963 59.1986 36.8827 58.8617C36.88 58.7521 36.8583 58.6453 36.8421 58.5357C36.8014 58.2426 36.7418 57.9468 36.8204 57.6536C36.9912 57.0154 37.3979 56.6155 38.0405 56.4703C38.149 56.4456 38.2195 56.4237 38.1626 56.2867C38.1246 56.1936 38.1544 56.1361 38.271 56.1772C38.4581 56.2402 38.6533 56.2539 38.8458 56.2319C39.1766 56.1963 39.4234 56.0265 39.6105 55.7224C39.4803 55.7361 39.3746 55.7498 39.2688 55.7581C39.2363 55.7608 39.1902 55.7745 39.1712 55.7334C39.155 55.7005 39.1929 55.6759 39.2119 55.654C39.3529 55.4923 39.4369 55.3006 39.4858 55.0951C39.5807 54.6979 39.5725 54.298 39.4966 53.9008C39.4559 53.6789 39.3881 53.468 39.2797 53.2708C39.2038 53.1365 39.1712 53.1338 39.0601 53.2297C39.0221 53.2625 38.9814 53.2927 38.938 53.3173C38.7862 53.405 38.6127 53.4543 38.4744 53.5693C38.4337 53.605 38.3985 53.5803 38.3659 53.5529C38.2764 53.479 38.2547 53.5173 38.2547 53.6132C38.252 53.9912 38.2331 54.3692 38.1978 54.7472C38.1788 54.95 38.1788 55.1636 38.0297 55.328C37.8399 55.5362 37.5633 55.5827 37.3247 55.6923C37.2298 55.7361 37.1295 55.5553 37.0129 55.506C36.9749 55.4896 36.9424 55.4649 36.9072 55.443C36.5764 55.2431 36.5086 55.0869 36.5682 54.7062C36.6306 54.3117 36.6875 53.9145 36.7472 53.52C36.7119 53.5611 36.6929 53.605 36.6794 53.6515C36.5167 54.2021 36.354 54.7527 36.1967 55.3061C36.1127 55.5992 35.9256 55.769 35.6355 55.8402C35.4782 55.8786 35.3155 55.9005 35.1664 55.9717C35.1149 55.9964 35.0823 55.9772 35.0525 55.9334C34.9739 55.8101 34.8681 55.7087 34.7651 55.6074C34.5373 55.38 34.494 55.1225 34.6268 54.8322C34.7407 54.5829 34.8546 54.3364 34.9685 54.0871C35.1339 53.7255 35.2993 53.3612 35.4674 52.9996C35.3779 53.1091 35.3074 53.2324 35.2396 53.3529C34.9332 53.9118 34.6268 54.4706 34.3231 55.0321C34.2092 55.2403 34.0438 55.3636 33.808 55.38C33.6181 55.3937 33.4283 55.3992 33.2413 55.4156C33.1816 55.4211 33.1518 55.4019 33.1274 55.3472C33.0623 55.2075 32.9918 55.0677 32.9213 54.9308C32.7749 54.6486 32.7884 54.3774 32.9647 54.1172C33.1301 53.8734 33.2955 53.6269 33.4663 53.3858C33.7212 53.0297 33.9788 52.6791 34.2364 52.3284ZM44.2281 45.2254C44.2769 44.8255 44.3528 44.4557 44.4613 44.0941C44.6836 43.3517 45.0198 42.6614 45.4266 42.004C45.4808 41.9136 45.4916 41.878 45.3642 41.8698C45.1419 41.8533 44.9439 41.7684 44.7758 41.6178C44.7541 41.5986 44.7189 41.5767 44.7351 41.5411C44.7514 41.5027 44.7894 41.5164 44.8192 41.5219C44.9656 41.5465 45.1093 41.5192 45.2503 41.5027C45.676 41.4507 46.0638 41.3027 46.3946 41.0179C46.5735 40.8645 46.5708 40.8645 46.3647 40.7521C46.1532 40.6344 45.9824 40.4755 45.8658 40.2509C46.1939 40.3549 46.5193 40.4234 46.8691 40.3878C46.8311 40.3358 46.7796 40.3358 46.7416 40.3221C46.4352 40.207 46.1451 40.0646 45.8929 39.8482C45.8062 39.7742 45.7302 39.6893 45.6787 39.5852C45.6652 39.5551 45.6353 39.5167 45.6652 39.4839C45.6896 39.4565 45.7248 39.4839 45.7547 39.4921C46.2373 39.629 46.7335 39.6153 47.2297 39.64C47.1972 39.6208 47.1646 39.6099 47.1321 39.5989C46.3268 39.3578 45.5784 39.0072 44.9466 38.4347C44.8951 38.3881 44.8382 38.3744 44.7731 38.3744C44.4152 38.3744 44.06 38.3717 43.7021 38.3662C43.6262 38.3662 43.5638 38.3854 43.5041 38.4374C42.8697 38.9963 42.1294 39.3551 41.3295 39.5962C41.2943 39.6071 41.2618 39.6181 41.2265 39.629C41.7336 39.6099 42.2433 39.629 42.7341 39.4811C42.81 39.4592 42.829 39.4839 42.8019 39.5523C42.7856 39.5934 42.7639 39.6345 42.7368 39.6729C42.6121 39.8454 42.4385 39.9632 42.2596 40.0728C42.0508 40.1988 41.8257 40.2892 41.5709 40.3796C41.9423 40.4152 42.2704 40.3632 42.6039 40.2344C42.5958 40.3193 42.5578 40.3549 42.528 40.3933C42.3843 40.5741 42.2108 40.7193 41.9966 40.8069C41.9152 40.8398 41.9125 40.8727 41.9722 40.9302C42.0996 41.0507 42.2352 41.1521 42.387 41.2343C42.7639 41.4425 43.1706 41.5301 43.599 41.5192C43.6397 41.5192 43.7021 41.4972 43.7183 41.552C43.7319 41.6013 43.675 41.626 43.6424 41.6561C43.4879 41.7849 43.3089 41.8643 43.1137 41.878C42.9754 41.8862 42.9917 41.93 43.0486 42.0232C43.1733 42.2341 43.2954 42.4478 43.412 42.6642C43.8322 43.4586 44.1251 44.3023 44.2281 45.2254ZM45.7791 49.507C45.6353 49.5398 45.4889 49.5508 45.3642 49.6357C45.4022 49.6795 45.4645 49.6248 45.4944 49.6987C45.3046 49.748 45.329 50.0247 45.0903 50.0548C45.2097 50.074 45.1988 50.1151 45.1446 50.1754C45.1147 50.2082 45.0659 50.263 45.0768 50.2877C45.131 50.4137 45.0036 50.4328 44.9683 50.5013C44.9439 50.5452 44.906 50.5369 44.8843 50.4986C44.8409 50.4301 44.7867 50.4027 44.7135 50.4438C44.6321 50.4904 44.6348 50.5698 44.6375 50.6493C44.6375 50.6821 44.6484 50.7177 44.689 50.7177C44.7243 50.7177 44.7189 50.6821 44.727 50.6575C44.7731 50.526 44.8192 50.5123 44.9331 50.5862C45.3018 50.8273 45.695 51.0218 46.0936 51.2081C46.1885 51.2519 46.202 51.2355 46.1966 51.1314C46.1831 50.8903 46.1722 50.6465 46.2183 50.4082C46.2292 50.3561 46.2264 50.2931 46.2861 50.263C46.3186 50.3041 46.3051 50.3397 46.2997 50.3753C46.2536 50.7479 46.2942 50.8246 46.625 50.9862C46.7308 51.0382 46.804 51.104 46.8419 51.23C46.8718 51.3313 46.9314 51.4546 47.0724 51.4436C47.2622 51.4245 47.3653 51.2848 47.3246 51.0985C47.2704 50.8492 47.1917 50.6054 47.1077 50.3644C47.0806 50.2877 47.0318 50.2493 46.9531 50.274C46.8664 50.3041 46.8419 50.2548 46.8203 50.1863C46.8013 50.1206 46.7769 50.0576 46.7552 49.9918C46.7281 49.9179 46.6955 49.8494 46.6711 49.7754C46.644 49.6878 46.7579 49.6549 46.7606 49.57C46.6711 49.5563 46.5898 49.6248 46.4813 49.5891C46.5166 49.5645 46.5328 49.5453 46.5518 49.5398C46.6928 49.4987 46.6657 49.4275 46.5979 49.3289C46.4623 49.1344 46.2753 49.0988 46.061 49.1125C45.9607 49.118 45.939 49.1509 45.9905 49.2385C46.0502 49.3371 46.0122 49.3782 45.9038 49.381C45.8306 49.3837 45.7547 49.3727 45.6842 49.4138C45.7058 49.4522 45.7655 49.4412 45.7791 49.507ZM44.0681 53.6077C44.3176 53.6104 44.3176 53.6104 44.2444 53.4351C44.2335 53.4105 44.2254 53.3831 44.2227 53.3557C44.2118 53.2708 44.1684 53.2516 44.0898 53.268C43.9488 53.2982 43.8051 53.3201 43.6641 53.3447C43.5529 53.3666 43.5014 53.3338 43.4987 53.205C43.4933 52.9229 43.4743 52.6407 43.4716 52.3586C43.4716 52.2134 43.4445 52.0682 43.4282 51.923C43.4201 51.8463 43.3794 51.8107 43.2981 51.8217C42.8968 51.8682 42.4928 52.2709 42.4304 52.6736C42.3924 52.9256 42.4385 53.1639 42.5009 53.4023C42.5741 53.6844 42.5497 53.7447 42.2975 53.8898C42.227 53.9309 42.1891 53.9775 42.1891 54.0624C42.1809 54.5445 42.1186 55.0184 41.9098 55.4595C41.8773 55.5307 41.8773 55.58 41.9613 55.6074C42.0291 55.6293 42.0318 55.6786 42.0101 55.7389C41.9939 55.78 41.983 55.8265 41.9749 55.8704C41.9695 55.895 41.964 55.9279 42.0074 55.9306C42.0942 55.9361 42.2406 55.7827 42.2243 55.695C42.1647 55.3691 42.2352 55.0623 42.3382 54.7555C42.4196 54.5199 42.5578 54.3391 42.791 54.2405C42.8832 54.2021 42.97 54.1528 43.0567 54.1035C43.2872 53.9748 43.4391 53.7858 43.4716 53.5146C43.4852 53.4077 43.5204 53.4077 43.6018 53.4598C43.7617 53.5639 43.9407 53.6022 44.0681 53.6077ZM43.9624 49.4796C43.9326 49.5481 43.9841 49.5891 44.0139 49.6384C44.0871 49.7562 44.1413 49.8822 44.1278 50.0247C44.1224 50.085 44.0925 50.1425 44.0193 50.1452C43.9542 50.1507 43.9217 50.1069 43.9081 50.0493C43.8919 49.9863 43.8783 49.9261 43.8648 49.8631C43.8295 49.6932 43.7238 49.5919 43.5557 49.5617C43.4038 49.5344 43.2628 49.5974 43.1137 49.6083C43.0812 49.6111 43.0784 49.6412 43.0812 49.6741C43.0974 49.8439 43.2167 49.9617 43.3794 49.9699C43.4147 49.9726 43.4499 49.9781 43.4879 49.9836C43.6153 50.0028 43.6723 50.0767 43.6668 50.2055C43.618 50.2027 43.6126 50.1644 43.5882 50.1452C43.5313 50.0959 43.5014 50.1123 43.4906 50.1863C43.458 50.4246 43.4445 50.6575 43.5557 50.8821C43.6506 51.0711 43.7455 51.2629 43.8187 51.4546C43.9 51.6628 43.9786 51.8792 44.0519 52.0929C44.079 52.175 44.1115 52.238 44.1874 52.1257C44.2064 52.0956 44.2362 52.0573 44.2905 52.0956C44.2715 52.1367 44.2552 52.1778 44.2389 52.2216C44.2308 52.2408 44.2173 52.2819 44.2417 52.2791C44.3935 52.2709 44.2905 52.3613 44.2796 52.3914C44.2444 52.4928 44.2498 52.5859 44.2905 52.6846C44.4613 53.1009 44.6294 53.52 44.8002 53.9392C44.8165 53.9775 44.8328 54.0131 44.8544 54.0487C44.8761 54.0843 44.9168 54.0843 44.9521 54.0789C44.99 54.0734 45.0117 54.0487 45.0063 54.0131C44.9982 53.9255 45.0117 53.8323 44.9439 53.7529C44.8328 53.6241 44.7975 53.4653 44.7731 53.3009C44.7379 53.0598 44.7568 52.8188 44.7379 52.5777C44.7107 52.2682 44.5562 51.997 44.4776 51.7011C44.426 51.5039 44.3745 51.3231 44.144 51.2766C44.1413 51.2766 44.144 51.2683 44.1413 51.2601C44.1874 51.2272 44.2362 51.2601 44.2823 51.2574C44.3718 51.2519 44.3989 51.2026 44.3935 51.1204C44.3908 51.0903 44.3799 51.0656 44.3501 51.0601C44.3122 51.0519 44.304 51.0821 44.304 51.1095C44.3094 51.1862 44.2606 51.1862 44.2091 51.1889C44.1468 51.1916 44.0844 51.1944 43.9895 51.2026C44.0681 51.1533 44.1088 51.1067 44.1712 51.0903C44.201 51.0821 44.2227 51.0656 44.2118 51.0328C44.201 50.9999 44.1712 51.0026 44.144 51.0026C44.098 50.9999 44.0573 51.0574 43.9949 51.0081C44.0708 50.9725 44.1359 50.9369 44.2118 50.9314C44.2579 50.9287 44.2878 50.9067 44.2986 50.8602C44.3094 50.8054 44.2715 50.7917 44.2308 50.7753C44.2145 50.7698 44.1983 50.7588 44.1983 50.7314C44.2362 50.6986 44.3257 50.7533 44.3366 50.6629C44.342 50.6246 44.3366 50.5917 44.304 50.5643C44.2145 50.4958 43.9976 50.5808 43.9705 50.6903C43.9434 50.7999 43.9488 50.9232 43.8702 51.0191C43.8756 50.8821 43.881 50.7479 43.9109 50.6164C43.938 50.4822 43.8078 50.3671 43.8702 50.2164C43.9488 50.2931 43.9136 50.4137 44.0003 50.4548C44.0979 50.5041 44.1603 50.4383 44.2118 50.3397C44.22 50.463 44.2633 50.526 44.3827 50.4958C44.3935 50.4931 44.4125 50.5095 44.426 50.5205C44.5291 50.6219 44.5372 50.5424 44.5399 50.4575C44.5399 50.4027 44.5399 50.3479 44.5372 50.2931C44.5372 50.2712 44.5291 50.2438 44.5047 50.2384C44.4748 50.2301 44.4694 50.2603 44.4559 50.2767C44.4423 50.2959 44.4532 50.3342 44.3935 50.3288C44.4532 49.9452 44.2173 49.7097 43.9624 49.4796ZM46.2427 53.0187C46.2617 53.1119 46.2725 53.1721 46.2834 53.2324C46.2888 53.2571 46.2807 53.2927 46.3132 53.3009C46.3512 53.3091 46.3702 53.2762 46.3837 53.2488C46.4 53.216 46.4163 53.1831 46.4244 53.1475C46.4759 52.9283 46.4569 52.7119 46.3918 52.501C46.3458 52.3504 46.2509 52.2517 46.099 52.2052C45.8143 52.1148 45.5296 52.1285 45.2422 52.1723C45.1283 52.1887 45.0985 52.2517 45.1392 52.3558C45.1825 52.4709 45.2259 52.5859 45.2747 52.6982C45.3154 52.7914 45.3018 52.8599 45.1961 52.8845C45.0768 52.9147 45.0415 52.9804 45.0822 53.0954C45.1039 53.1585 45.112 53.2297 45.131 53.2954C45.1473 53.3529 45.1771 53.3968 45.2449 53.3858C45.3154 53.3749 45.2856 53.3173 45.291 53.2762C45.2937 53.2543 45.2883 53.2297 45.329 53.2105C45.3778 53.3173 45.4428 53.4105 45.5486 53.4844C45.8577 53.6926 46.0665 53.9802 46.137 54.3528C46.1614 54.4843 46.202 54.6075 46.2617 54.7253C46.4163 55.0376 46.6061 55.3362 46.6359 55.7005C46.644 55.8101 46.7064 55.8238 46.7959 55.7635C46.8636 55.7197 46.8501 55.6731 46.8257 55.6129C46.6657 55.2211 46.4949 54.8322 46.484 54.3966C46.484 54.361 46.4678 54.3254 46.4515 54.2925C46.3241 54.0323 46.2644 53.7501 46.221 53.4653C46.202 53.3338 46.1587 53.1913 46.2427 53.0187ZM43.9271 60.9244C43.8566 61.3079 43.7726 61.6859 43.6723 62.0612C43.5204 62.62 43.3252 63.1624 43.1028 63.6993C42.8778 64.2417 42.7259 64.8032 42.7368 65.3977C42.7422 65.6661 42.7992 65.9236 42.989 66.1291C43.0188 66.1619 43.054 66.214 43.0974 66.1975C43.1489 66.1784 43.1218 66.1181 43.1218 66.0743C43.1218 65.0909 43.271 64.1321 43.5421 63.1898C43.6885 62.683 43.8431 62.1762 43.9244 61.653C43.9597 61.4092 43.9895 61.1654 43.9271 60.9244ZM44.5101 60.9025C44.464 60.9819 44.4694 61.0476 44.4667 61.1161C44.4613 61.6612 44.5996 62.1817 44.7541 62.6967C45.0876 63.8116 45.3262 64.9375 45.3073 66.1099C45.3073 66.14 45.2937 66.1811 45.3262 66.1975C45.3669 66.2167 45.3913 66.1756 45.4157 66.1537C45.6272 65.9428 45.6869 65.6716 45.6923 65.3894C45.7004 64.7813 45.5404 64.2088 45.31 63.6527C45.0931 63.135 44.906 62.609 44.7595 62.0667C44.6565 61.6886 44.5725 61.3079 44.5101 60.9025ZM41.8691 53.5091C41.9667 53.3173 41.9939 53.1776 41.9884 52.9722C41.9857 52.8133 41.9749 52.6517 41.9884 52.4928C42.0074 52.2791 42.1647 52.186 42.3518 52.2627C42.387 52.2764 42.4196 52.3175 42.4548 52.2627C42.4873 52.2161 42.4901 52.1723 42.4548 52.1257C42.303 51.9285 42.105 51.7943 41.8556 51.8025C41.6061 51.8107 41.4651 51.9888 41.3702 52.2052C41.3512 52.2517 41.335 52.2983 41.3241 52.3476C41.2563 52.6736 41.3133 53.0078 41.2591 53.3721C41.3512 53.2379 41.3106 53.0954 41.4109 53.0078C41.4272 53.3612 41.1696 53.6734 41.2509 54.0515C41.4624 53.8159 41.5194 53.5365 41.5682 53.2516C41.6522 53.4077 41.5573 53.5721 41.5871 53.7255C41.8339 53.4762 41.7363 53.1475 41.7851 52.8489C41.8746 53.0461 41.861 53.2598 41.8691 53.5091ZM46.4 52.0846C46.5328 52.0874 46.5708 52.0189 46.5193 51.9011C46.4759 51.8025 46.4081 51.7477 46.3078 51.7066C45.8062 51.5121 45.3425 51.2546 44.9439 50.8876C44.8653 50.8136 44.8328 50.8163 44.8111 50.9287C44.7514 51.2355 44.8165 51.5231 44.9114 51.8135C44.9575 51.9614 45.0334 52.0079 45.1744 51.9888C45.4076 51.9559 45.6408 51.9559 45.8767 51.986C46.0529 52.0107 46.2292 52.0545 46.4 52.0846ZM42.9835 61.6667C42.6473 61.9872 42.2813 62.2694 41.9261 62.5652C41.7281 62.7296 41.5302 62.8994 41.3621 63.0994C41.2102 63.2829 41.137 63.4911 41.156 63.7322C41.1641 63.839 41.2075 63.9267 41.3024 63.9787C41.3675 64.0171 41.419 64.0143 41.4516 63.9321C41.701 63.2994 42.1132 62.7734 42.5416 62.2584C42.6988 62.0694 42.8561 61.8804 42.9835 61.6667ZM45.4618 61.6969C45.4862 61.7325 45.5079 61.7708 45.535 61.8037C45.6923 62.0037 45.8523 62.2009 46.0122 62.3981C46.3837 62.8556 46.7254 63.3295 46.9531 63.8773C47.0155 64.0253 47.1023 64.039 47.2053 63.913C47.2487 63.8582 47.2676 63.7924 47.2731 63.7239C47.2893 63.4993 47.227 63.2966 47.086 63.1268C46.9992 63.0227 46.9043 62.9241 46.804 62.8309C46.3729 62.4337 45.8929 62.0968 45.4618 61.6969ZM43.6424 53.5557C43.6018 53.5529 43.5801 53.5666 43.5719 53.5967C43.534 53.7145 43.4608 53.8268 43.5204 53.9638C43.5801 54.098 43.5855 54.2377 43.5367 54.3774C43.5014 54.4788 43.5367 54.5391 43.618 54.5966C43.816 54.7335 44.003 54.887 44.1603 55.0677C44.2796 55.2047 44.3799 55.3554 44.5806 55.3828C44.6077 55.3855 44.6375 55.4129 44.6565 55.4376C44.7135 55.5088 44.7867 55.506 44.83 55.4485C44.8897 55.3745 44.7921 55.3499 44.7541 55.3225C44.5806 55.191 44.4016 55.0705 44.2281 54.939C44.0979 54.8404 43.9759 54.7336 43.8892 54.5884C43.7997 54.4404 43.8051 54.3994 43.938 54.2898C44.0844 54.1693 44.201 54.0296 44.2579 53.8433C44.2986 53.7036 44.2932 53.6871 44.1549 53.6871C44.003 53.6871 43.8593 53.6515 43.7238 53.5913C43.6939 53.5776 43.6641 53.5666 43.6424 53.5557ZM43.9488 49.1125C43.9461 49.2549 43.9814 49.3864 44.0573 49.5042C44.0925 49.5563 44.1386 49.6275 44.2064 49.5864C44.2688 49.548 44.3555 49.4987 44.3338 49.4001C44.3203 49.3399 44.3447 49.2933 44.361 49.244C44.3718 49.2084 44.3935 49.1782 44.4396 49.181C44.4748 49.1837 44.5047 49.1974 44.5128 49.233C44.5345 49.3316 44.5941 49.3426 44.6755 49.3125C44.7704 49.2769 44.8084 49.2029 44.7921 49.107C44.7568 48.8769 44.6375 48.7016 44.426 48.5975C44.3176 48.5455 44.1983 48.4989 44.0871 48.5537C43.9027 48.6441 43.7048 48.7208 43.5421 48.855C43.496 48.8934 43.4418 48.9399 43.4716 49.0029C43.5041 49.0742 43.599 49.1645 43.6343 49.1536C43.7373 49.107 43.8458 49.1673 43.9488 49.1125ZM46.5681 53.2982C46.6549 53.3009 46.7064 53.2735 46.7606 53.2571C46.9179 53.205 47.0697 53.1311 47.2378 53.1119C47.3165 53.1037 47.3924 53.1037 47.4466 53.1776C47.5035 53.2598 47.4439 53.6789 47.3734 53.7529C47.2649 53.8679 47.2243 54.0131 47.2053 54.1665C47.2026 54.1912 47.2026 54.224 47.2297 54.2405C47.2649 54.2597 47.2893 54.235 47.3137 54.2158C47.4086 54.1419 47.4493 54.035 47.4819 53.9255C47.5659 53.6515 47.6364 53.3721 47.7422 53.1064C47.7557 53.0735 47.7611 53.0352 47.7638 52.9996C47.7774 52.7969 47.6933 52.7202 47.4954 52.764C47.2704 52.8133 47.048 52.8681 46.823 52.9174C46.785 52.9256 46.7498 52.9393 46.7362 52.9749C46.6982 53.0818 46.6277 53.1776 46.5681 53.2982ZM42.7937 48.8057C42.6853 48.7893 42.6663 48.7098 42.6338 48.655C42.6066 48.6085 42.5795 48.5509 42.5334 48.5674C42.4304 48.603 42.3626 48.6605 42.3735 48.7865C42.3816 48.8824 42.3789 48.9783 42.3762 49.0742C42.3707 49.3481 42.3762 49.6193 42.4196 49.8932C42.4358 49.9973 42.4873 50.0384 42.5822 50.0274C42.6934 50.0165 42.8073 50.0028 42.9185 49.9891C42.9456 49.9863 42.9781 49.9754 42.9781 49.9425C42.9727 49.8494 42.9212 49.7699 42.8859 49.6878C42.8588 49.6248 42.8019 49.6494 42.7558 49.6549C42.7015 49.6604 42.6717 49.6439 42.6609 49.5864C42.6338 49.433 42.585 49.2851 42.5741 49.1317C42.5633 48.9646 42.5931 48.8468 42.7937 48.8057ZM44.9195 50.6931C44.9304 50.715 44.9331 50.7287 44.9412 50.7369C45.3479 51.1697 45.8523 51.4436 46.4027 51.6409C46.4922 51.6737 46.5274 51.6025 46.5572 51.545C46.5979 51.4628 46.5166 51.4573 46.4732 51.4409C45.9716 51.2245 45.4645 51.0163 45.0063 50.7123C44.9846 50.6986 44.9629 50.6821 44.9195 50.6931ZM43.5448 52.3558C43.5448 52.638 43.5719 52.8845 43.5963 53.1338C43.6045 53.2187 43.637 53.2461 43.7156 53.2324C43.8187 53.2132 43.9217 53.2078 44.022 53.1831C44.3528 53.1064 44.2715 53.1146 44.1874 52.8626C44.144 52.7311 44.0871 52.6818 43.9434 52.7229C43.7807 52.7695 43.6939 52.7174 43.6207 52.5613C43.5936 52.5038 43.5773 52.4435 43.5448 52.3558ZM48.0269 64.8306C48.0269 64.7649 48.0269 64.6909 47.9753 64.6553C47.9211 64.6197 47.8859 64.6964 47.8452 64.7238C47.7503 64.7868 47.6473 64.8306 47.5361 64.8553C47.4954 64.8635 47.4466 64.8662 47.4358 64.9101C47.4086 65.0142 47.4249 65.1237 47.4683 65.2141C47.5063 65.2881 47.593 65.2306 47.6554 65.2169C47.8859 65.1676 48.0269 65.0142 48.0269 64.8306ZM41.0042 65.0415C41.034 64.9238 40.9716 64.8635 40.8388 64.8416C40.7303 64.8251 40.6354 64.7676 40.5541 64.6909C40.4727 64.6142 40.4429 64.6471 40.4266 64.7375C40.3805 64.9785 40.5215 65.1593 40.8035 65.2223C40.9933 65.2662 41.0042 65.258 41.0042 65.0415ZM31.2646 53.9501C31.0911 53.3639 31.5059 53.0872 31.8638 52.7777C31.6361 52.9119 31.43 53.0653 31.1697 53.1174C31.026 53.1475 31.0151 53.1941 31.11 53.3091C31.1778 53.3913 31.2321 53.4844 31.1833 53.583C31.11 53.731 31.186 53.8323 31.2646 53.9501ZM45.0198 52.2271C44.9304 52.3586 44.9493 52.7311 45.0415 52.8243C45.0876 52.8736 45.1419 52.838 45.1907 52.8215C45.2368 52.8078 45.2395 52.775 45.2232 52.7339C45.1581 52.5695 45.0903 52.4024 45.0198 52.2271ZM45.0063 52.9256C45.0361 53.2817 45.0985 53.6324 45.0958 53.9885C45.0958 54.046 45.0659 54.1446 45.1554 54.1419C45.2395 54.1391 45.2178 54.0378 45.2069 53.983C45.1446 53.6269 45.0741 53.2762 45.0063 52.9256ZM46.9667 50.148C47.0155 50.1288 47.0914 50.1343 47.0616 50.0493C47.0209 49.9261 46.9531 49.8192 46.8501 49.7371C46.8203 49.7124 46.7823 49.7015 46.7606 49.748C46.747 49.7782 46.8962 50.1288 46.926 50.1425C46.9396 50.1452 46.9558 50.1452 46.9667 50.148Z" fill="black"/>
<path d="M44.0519 48.9482C44.1278 48.7756 44.163 48.7591 44.3067 48.8276C44.3799 48.8632 44.4504 48.8988 44.5345 48.8988C44.5969 48.8988 44.6375 48.9345 44.6294 49.0029C44.624 49.0632 44.6592 49.1536 44.5942 49.1755C44.5345 49.1974 44.5372 49.1016 44.5074 49.0605C44.4504 48.9838 44.361 48.9591 44.2905 48.9043C44.201 48.8331 44.1359 48.9235 44.0519 48.9482Z" fill="black"/>
</svg>
