<svg width="200" height="100" viewBox="0 0 200 100" fill="none" xmlns="http://www.w3.org/2000/svg">
<path d="M156.926 57.2457H43V64H156.926V57.2457Z" fill="#101010"/>
<path d="M149.271 47.8452V39.4023H151.607V41.8722H153.592C155.663 41.8722 157 43.0378 157 44.8524C157 45.7156 156.716 46.4275 156.137 47.0009C155.558 47.5617 154.744 47.8452 153.703 47.8452H149.271ZM151.601 45.9991H153.222C154.134 45.9991 154.664 45.577 154.664 44.8335C154.664 44.09 154.134 43.649 153.222 43.649H151.601V45.9991Z" fill="#101010"/>
<path d="M134.172 47.8452L137.728 43.3465L134.535 39.4023H137.167L139.682 42.5842V39.4023H141.98V42.5842L144.476 39.4023H147.108L143.916 43.3465L147.49 47.8452H144.711L141.98 44.2412V47.8452H139.682V44.2412L136.933 47.8452H134.172Z" fill="#101010"/>
<path d="M125.987 46.8434C125.112 46.0306 124.662 44.9469 124.662 43.6112C124.662 42.3573 125.056 41.3114 125.851 40.4671C126.646 39.604 127.688 39.1818 128.964 39.1818C130.172 39.1818 131.115 39.6229 131.823 40.486C132.538 41.3492 132.902 42.3951 132.902 43.649V44.2727H126.979C127.226 45.4257 128.286 46.0306 129.74 46.0306C130.665 46.0306 131.546 45.7786 132.39 45.2871V47.1962C131.645 47.7696 130.603 48.0594 129.247 48.0594C127.953 48.0657 126.862 47.6562 125.987 46.8434ZM130.603 42.748C130.554 41.8155 129.907 41.0531 128.865 41.0531C127.805 41.0531 127.096 41.7462 126.979 42.748H130.603Z" fill="#101010"/>
<path d="M122.308 46.2511L119.275 39.3456H117.815L114.678 46.2511H113.272V48.2421H123.663V46.2511H122.308ZM116.909 46.2511L118.523 42.6913L120.083 46.2511H116.909Z" fill="#101010"/>
<path d="M107.855 39.2952C105.457 39.2952 103.51 41.2862 103.51 43.7372C103.51 46.1881 105.457 48.1791 107.855 48.1791C110.252 48.1791 112.2 46.1881 112.2 43.7372C112.2 41.2862 110.252 39.2952 107.855 39.2952ZM107.855 46.2196C106.511 46.2196 105.427 45.1044 105.427 43.7372C105.427 42.3636 106.518 41.2547 107.855 41.2547C109.192 41.2547 110.283 42.3699 110.283 43.7372C110.283 45.1107 109.199 46.2196 107.855 46.2196Z" fill="#101010"/>
<path d="M88.367 39.2952C85.9696 39.2952 84.022 41.2862 84.022 43.7372C84.022 46.1881 85.9696 48.1791 88.367 48.1791C90.7645 48.1791 92.7121 46.1881 92.7121 43.7372C92.7121 41.2862 90.7583 39.2952 88.367 39.2952ZM88.367 46.2196C87.0235 46.2196 85.9387 45.1044 85.9387 43.7372C85.9387 42.3636 87.0296 41.2547 88.367 41.2547C89.7106 41.2547 90.7953 42.3699 90.7953 43.7372C90.7953 45.1107 89.7044 46.2196 88.367 46.2196Z" fill="#101010"/>
<path d="M72.6941 47.8452V39.4023H74.993L77.3904 42.5464L79.8064 39.4023H82.1053V47.8452H79.905V42.6346L77.8527 45.2556H76.9282L74.8944 42.6346V47.8452H72.6941Z" fill="#101010"/>
<path d="M64.3554 46.8434C63.4802 46.0117 63.0303 44.9343 63.0303 43.5923C63.0303 42.2565 63.4802 41.1917 64.3554 40.3915C65.249 39.5788 66.3091 39.1755 67.5479 39.1755C68.46 39.1755 69.2674 39.3645 69.9946 39.7363V41.7651C69.2859 41.4248 68.571 41.2547 67.893 41.2547C67.1658 41.2547 66.5494 41.4752 66.0564 41.9163C65.5757 42.3384 65.3291 42.9118 65.3291 43.6049C65.3291 44.2979 65.5757 44.8713 66.0749 45.3123C66.5741 45.7534 67.1842 45.9739 67.893 45.9739C68.7374 45.9739 69.4831 45.7849 70.1241 45.4005V47.4293C69.3475 47.8515 68.4847 48.0531 67.5109 48.0531C66.2906 48.0657 65.2305 47.6562 64.3554 46.8434Z" fill="#101010"/>
<path d="M56.9965 39.2952C54.5991 39.2952 52.6515 41.2862 52.6515 43.7372C52.6515 46.1881 54.5991 48.1791 56.9965 48.1791C59.394 48.1791 61.3416 46.1881 61.3416 43.7372C61.3416 41.2862 59.394 39.2952 56.9965 39.2952ZM56.9965 46.2196C55.653 46.2196 54.5683 45.1044 54.5683 43.7372C54.5683 42.3636 55.6591 41.2547 56.9965 41.2547C58.3339 41.2547 59.4248 42.3699 59.4248 43.7372C59.431 45.1107 58.3401 46.2196 56.9965 46.2196Z" fill="#101010"/>
<path d="M43.0555 47.8452V36H48.1216C49.3604 36 50.3588 36.3402 51.0676 36.9955C51.7948 37.6571 52.1585 38.5013 52.1585 39.5662C52.1585 40.631 51.7948 41.4941 51.0676 42.1557C50.3588 42.8173 49.3604 43.1512 48.1216 43.1512H45.4406V47.8389H43.0555V47.8452ZM45.4406 41.0783H47.9552C49.0954 41.0783 49.7733 40.5554 49.7733 39.604C49.7733 38.6589 49.0954 38.1296 47.9552 38.1296H45.4406V41.0783Z" fill="#101010"/>
<path d="M95.4732 48.2421L97.9939 42.6913L100.428 48.2421H102.659L98.7581 39.3456H97.2851L93.2483 48.2421H95.4732Z" fill="#101010"/>
</svg>
