<svg width="200" height="100" viewBox="0 0 200 100" fill="none" xmlns="http://www.w3.org/2000/svg">
<path d="M84.8882 41.3409H79.838V47.8269H74.5809V41.3409H69.5307V57.6591H74.5809V51.2404H79.838V57.6591H84.8882V41.3409ZM102.456 54.3802V41.3409H97.4055V57.6591H106.537L107.297 54.3802H102.456ZM93.672 41.3409H88.6218V57.6591H93.672V41.3409ZM114.145 41.3409H109.098V57.6591H114.145V41.3409ZM139.044 45.5057C139.044 44.6175 139.944 44.2071 141.395 44.2071C142.987 44.2071 144.717 44.5503 145.893 45.0303L145.479 41.4777C144.162 41.2041 142.987 41 140.845 41C136.763 41 133.996 42.5885 133.996 45.9161C133.996 51.6508 141.884 50.4913 141.884 53.1535C141.884 54.1761 141.12 54.7211 139.253 54.7211C137.596 54.7211 135.033 54.1761 133.512 53.4248L134.067 57.1814C135.588 57.7287 137.661 58 139.324 58C143.542 58 147 56.6342 147 52.5366C147 47.0779 139.044 48.1005 139.044 45.5057ZM124.798 53.768C129.498 53.768 132.475 51.3772 132.475 47.2124C132.475 42.6395 129.294 41 124.105 41C122.099 41 119.678 41.1368 117.95 41.3409V57.6591H123V53.768H124.798ZM127.495 47.282C127.495 49.3968 126.458 50.8322 123.827 50.8322H123V44.0888C123.294 44.0726 123.569 44.0726 123.827 44.0726C126.317 44.0726 127.495 45.232 127.495 47.282ZM59.8488 53.768C64.551 53.768 67.5252 51.3772 67.5252 47.2124C67.5252 42.6395 64.3441 41 59.1576 41C57.1497 41 54.7304 41.1368 53 41.3409V57.6591H58.0502V53.768H59.8488ZM62.5479 47.282C62.5479 49.3968 61.5087 50.8322 58.8801 50.8322H58.0502V44.0888C58.3441 44.0726 58.6215 44.0726 58.8801 44.0726C61.37 44.0726 62.5479 45.232 62.5479 47.282Z" fill="#101010"/>
</svg>
