<svg width="200" height="100" viewBox="0 0 200 100" fill="none" xmlns="http://www.w3.org/2000/svg">
<path d="M63.4044 45.1883H68.5846C69.1895 45.1883 69.7143 45.2705 70.1589 45.4349C70.6087 45.5994 70.9809 45.8383 71.2756 46.1518C71.5703 46.4652 71.79 46.8455 71.9347 47.2926C72.0795 47.7396 72.1519 48.2484 72.1519 48.8187C72.1519 49.348 72.0666 49.8362 71.896 50.2833C71.7253 50.7252 71.4772 51.108 71.1515 51.4318C70.831 51.7504 70.438 51.9996 69.9728 52.1794C69.5075 52.3593 68.9801 52.4492 68.3908 52.4492H65.7851V56.519H63.4044V45.1883ZM65.7851 50.4914H68.0418C68.5795 50.4914 69.0008 50.3603 69.3058 50.0983C69.616 49.8362 69.7711 49.4097 69.7711 48.8187C69.7711 48.5207 69.7298 48.2663 69.647 48.0557C69.5695 47.845 69.4558 47.6728 69.3058 47.5392C69.1611 47.4005 68.9801 47.3003 68.763 47.2386C68.551 47.1718 68.3106 47.1384 68.0418 47.1384H65.7851V50.4914Z" fill="black"/>
<path d="M73.3926 50.8537C73.3926 50.0058 73.5064 49.2196 73.7338 48.495C73.9613 47.7705 74.3025 47.1435 74.7575 46.6143C75.2124 46.0798 75.7837 45.661 76.4713 45.3579C77.1589 45.0547 77.9602 44.9031 78.8753 44.9031C79.718 44.9031 80.478 45.0547 81.1552 45.3579C81.8325 45.661 82.4064 46.0798 82.8768 46.6143C83.3524 47.1435 83.7169 47.7705 83.9702 48.495C84.2236 49.2196 84.3502 50.0058 84.3502 50.8537C84.3502 51.6964 84.2236 52.4826 83.9702 53.2123C83.7169 53.9369 83.3524 54.5663 82.8768 55.1008C82.4064 55.63 81.8325 56.0463 81.1552 56.3495C80.478 56.6526 79.718 56.8042 78.8753 56.8042C77.9602 56.8042 77.1589 56.6526 76.4713 56.3495C75.7837 56.0463 75.2124 55.63 74.7575 55.1008C74.3025 54.5663 73.9613 53.9369 73.7338 53.2123C73.5064 52.4826 73.3926 51.6964 73.3926 50.8537ZM78.8753 54.7539C79.3613 54.7539 79.7956 54.6563 80.1781 54.461C80.5607 54.2657 80.8838 53.996 81.1475 53.6517C81.4163 53.3022 81.6205 52.8911 81.7601 52.4184C81.8997 51.9405 81.9695 51.4189 81.9695 50.8537C81.9695 50.2884 81.8997 49.7694 81.7601 49.2966C81.6205 48.8187 81.4163 48.4076 81.1475 48.0634C80.8838 47.7139 80.5607 47.4416 80.1781 47.2463C79.7956 47.051 79.3613 46.9534 78.8753 46.9534C78.3893 46.9534 77.9551 47.051 77.5725 47.2463C77.1899 47.4416 76.8642 47.7139 76.5954 48.0634C76.3317 48.4076 76.1275 48.8187 75.9828 49.2966C75.8432 49.7694 75.7734 50.2884 75.7734 50.8537C75.7734 51.4189 75.8432 51.9405 75.9828 52.4184C76.1275 52.8911 76.3317 53.3022 76.5954 53.6517C76.8642 53.996 77.1899 54.2657 77.5725 54.461C77.9551 54.6563 78.3893 54.7539 78.8753 54.7539Z" fill="black"/>
<path d="M93.5397 48.9112C93.5087 48.8033 93.4699 48.68 93.4234 48.5413C93.3769 48.3974 93.3122 48.2535 93.2295 48.1096C93.152 47.9657 93.0512 47.8244 92.9271 47.6857C92.8082 47.5469 92.6583 47.4236 92.4773 47.3157C92.2964 47.2078 92.0792 47.1204 91.8259 47.0536C91.5726 46.9868 91.2753 46.9534 90.9341 46.9534C90.7893 46.9534 90.6187 46.9714 90.4223 47.0074C90.2258 47.0433 90.0242 47.1127 89.8174 47.2155C89.6106 47.3131 89.4064 47.4519 89.2048 47.6317C89.0031 47.8116 88.8222 48.0479 88.6619 48.3408C88.5068 48.6286 88.3802 48.978 88.2819 49.3891C88.1837 49.8002 88.1346 50.2884 88.1346 50.8537C88.1346 51.4652 88.1992 52.0124 88.3285 52.4955C88.4577 52.9785 88.6438 53.387 88.8868 53.721C89.1298 54.055 89.4219 54.312 89.7631 54.4918C90.1095 54.6665 90.4998 54.7539 90.9341 54.7539C91.4356 54.7539 91.844 54.6768 92.1594 54.5227C92.4747 54.3685 92.7255 54.1809 92.9116 53.96C93.1029 53.739 93.245 53.5078 93.3381 53.2663C93.4312 53.0247 93.5035 52.8141 93.5552 52.6342H95.9205C95.7912 53.3433 95.5767 53.96 95.2768 54.4841C94.977 55.0031 94.6125 55.4348 94.1834 55.7791C93.7543 56.1234 93.2709 56.3803 92.7332 56.5499C92.2007 56.7194 91.632 56.8042 91.0272 56.8042C90.1793 56.8042 89.4271 56.6655 88.7705 56.388C88.1191 56.1054 87.5685 55.7046 87.1187 55.1856C86.6741 54.6665 86.3355 54.0422 86.1028 53.3125C85.8702 52.5777 85.7539 51.7581 85.7539 50.8537C85.7539 50.1548 85.8211 49.5227 85.9555 48.9575C86.0899 48.3922 86.276 47.8912 86.5138 47.4544C86.7568 47.0125 87.0412 46.6322 87.3669 46.3136C87.6926 45.9899 88.0467 45.7253 88.4293 45.5197C88.817 45.309 89.2229 45.1549 89.6468 45.0572C90.0707 44.9545 90.4998 44.9031 90.9341 44.9031C91.5545 44.9031 92.1051 44.9673 92.5859 45.0958C93.0667 45.2242 93.488 45.3964 93.8499 45.6122C94.2118 45.828 94.5194 46.0747 94.7727 46.3522C95.0312 46.6297 95.2406 46.9174 95.4009 47.2155C95.5663 47.5084 95.6878 47.8039 95.7654 48.1019C95.8481 48.3948 95.8998 48.6646 95.9205 48.9112H93.5397Z" fill="black"/>
<path d="M105.017 48.9112C104.986 48.8033 104.947 48.68 104.901 48.5413C104.854 48.3974 104.789 48.2535 104.707 48.1096C104.629 47.9657 104.528 47.8244 104.404 47.6857C104.285 47.5469 104.135 47.4236 103.954 47.3157C103.774 47.2078 103.556 47.1204 103.303 47.0536C103.05 46.9868 102.752 46.9534 102.411 46.9534C102.267 46.9534 102.096 46.9714 101.899 47.0074C101.703 47.0433 101.501 47.1127 101.295 47.2155C101.088 47.3131 100.884 47.4519 100.682 47.6317C100.48 47.8116 100.299 48.0479 100.139 48.3408C99.984 48.6286 99.8573 48.978 99.7591 49.3891C99.6609 49.8002 99.6118 50.2884 99.6118 50.8537C99.6118 51.4652 99.6764 52.0124 99.8056 52.4955C99.9349 52.9785 100.121 53.387 100.364 53.721C100.607 54.055 100.899 54.312 101.24 54.4918C101.587 54.6665 101.977 54.7539 102.411 54.7539C102.913 54.7539 103.321 54.6768 103.637 54.5227C103.952 54.3685 104.203 54.1809 104.389 53.96C104.58 53.739 104.722 53.5078 104.815 53.2663C104.908 53.0247 104.981 52.8141 105.032 52.6342H107.398C107.268 53.3433 107.054 53.96 106.754 54.4841C106.454 55.0031 106.09 55.4348 105.661 55.7791C105.231 56.1234 104.748 56.3803 104.21 56.5499C103.678 56.7194 103.109 56.8042 102.504 56.8042C101.656 56.8042 100.904 56.6655 100.248 56.388C99.5963 56.1054 99.0457 55.7046 98.5959 55.1856C98.1513 54.6665 97.8126 54.0422 97.58 53.3125C97.3474 52.5777 97.231 51.7581 97.231 50.8537C97.231 50.1548 97.2982 49.5227 97.4327 48.9575C97.5671 48.3922 97.7532 47.8912 97.991 47.4544C98.234 47.0125 98.5183 46.6322 98.844 46.3136C99.1697 45.9899 99.5239 45.7253 99.9065 45.5197C100.294 45.309 100.7 45.1549 101.124 45.0572C101.548 44.9545 101.977 44.9031 102.411 44.9031C103.032 44.9031 103.582 44.9673 104.063 45.0958C104.544 45.2242 104.965 45.3964 105.327 45.6122C105.689 45.828 105.997 46.0747 106.25 46.3522C106.508 46.6297 106.718 46.9174 106.878 47.2155C107.043 47.5084 107.165 47.8039 107.243 48.1019C107.325 48.3948 107.377 48.6646 107.398 48.9112H105.017Z" fill="black"/>
<path d="M108.204 45.1883H117.541V47.1384H114.059V56.519H111.678V47.1384H108.204V45.1883Z" fill="black"/>
<path d="M122.132 45.1883H124.854L128.886 56.519H126.296L125.567 54.1835H121.356L120.565 56.519H118.053L122.132 45.1883ZM121.992 52.2257H124.9L123.481 47.7396H123.45L121.992 52.2257Z" fill="black"/>
<path d="M130.321 45.1883H132.709V49.497H137.184V45.1883H139.565V56.519H137.184V51.4549H132.709V56.519H130.321V45.1883Z" fill="black"/>
<path d="M140.883 54.5612H141.883C142.002 54.2426 142.119 53.9163 142.232 53.5823C142.351 53.2483 142.462 52.886 142.566 52.4955C142.669 52.1049 142.762 51.6758 142.845 51.2082C142.933 50.7406 143.01 50.2139 143.078 49.6281C143.145 49.0371 143.199 48.3794 143.241 47.6548C143.282 46.9251 143.31 46.103 143.326 45.1883H151.088V54.5612H152.197V58.9471H150.135V56.519H142.946V58.9471H140.883V54.5612ZM148.708 47.1384H145.42C145.414 47.3439 145.407 47.606 145.396 47.9246C145.391 48.2432 145.376 48.6003 145.35 48.996C145.324 49.3866 145.285 49.8105 145.234 50.2678C145.187 50.7201 145.122 51.1877 145.04 51.6707C144.957 52.1486 144.851 52.6342 144.722 53.1275C144.598 53.6157 144.445 54.0936 144.264 54.5612H148.708V47.1384Z" fill="black"/>
<path d="M156.796 45.1883H159.518L163.55 56.519H160.96L160.231 54.1835H156.021L155.23 56.519H152.717L156.796 45.1883ZM156.656 52.2257H159.564L158.145 47.7396H158.114L156.656 52.2257Z" fill="black"/>
<path d="M165.179 45.1883H170.359C170.964 45.1883 171.489 45.2705 171.933 45.4349C172.383 45.5994 172.755 45.8383 173.05 46.1518C173.345 46.4652 173.565 46.8455 173.709 47.2926C173.854 47.7396 173.926 48.2484 173.926 48.8187C173.926 49.348 173.841 49.8362 173.671 50.2833C173.5 50.7252 173.252 51.108 172.926 51.4318C172.606 51.7504 172.213 51.9996 171.747 52.1794C171.282 52.3593 170.755 52.4492 170.165 52.4492H167.56V56.519H165.179V45.1883ZM167.56 50.4914H169.816C170.354 50.4914 170.775 50.3603 171.08 50.0983C171.391 49.8362 171.546 49.4097 171.546 48.8187C171.546 48.5207 171.504 48.2663 171.422 48.0557C171.344 47.845 171.23 47.6728 171.08 47.5392C170.936 47.4005 170.755 47.3003 170.538 47.2386C170.326 47.1718 170.085 47.1384 169.816 47.1384H167.56V50.4914Z" fill="black"/>
<path d="M174.663 45.1883H184V47.1384H180.518V56.519H178.137V47.1384H174.663V45.1883Z" fill="black"/>
<path d="M19 48.0876C19 47.2879 19 46.4615 19 45.6618C19.3446 45.6352 19.6891 45.6085 20.1132 45.5819C19.9012 45.2887 19.7421 45.0754 19.5831 44.8355C19.3711 44.5156 19.1855 44.1158 19.3976 43.7692C19.5831 43.4494 19.9807 43.6626 20.2722 43.6626C20.2987 43.6626 20.3252 43.6359 20.3782 43.6093C19.7951 42.4897 19.6891 41.9566 19.9012 41.3168C20.0602 40.8903 20.2722 40.7837 20.6433 41.1036C20.8818 41.3168 21.1204 41.5034 21.4914 41.8233C21.2529 41.3435 21.1204 41.1036 21.0144 40.837C20.7228 40.0373 20.6433 39.2376 21.1204 38.4912C21.4384 37.9848 21.7035 38.0114 21.995 38.4912C22.9227 39.9574 23.5323 41.6367 25.0166 42.7563C25.5997 43.2094 25.9442 43.8759 26.6334 44.3557C27.614 44.9954 28.4622 45.9018 29.1778 46.888C29.6019 47.4745 29.5754 47.981 29.0983 48.5407C29.0188 48.6207 28.9393 48.7007 28.8863 48.7807C28.5947 49.1272 28.6477 49.4471 28.9393 49.7403C29.2838 50.0868 29.7344 50.3534 30.2115 50.0868C30.6621 49.8469 30.3175 49.5004 30.185 49.2338C29.8404 48.5141 30.397 47.981 30.5296 47.3945C30.6356 46.9947 31.1922 47.128 31.5367 47.128C32.1464 47.1546 32.4379 46.8347 32.5439 46.2749C32.6765 45.6885 32.0933 44.3823 31.5898 44.0625C30.8476 43.5826 29.8139 43.7426 29.2573 44.4356C29.0983 44.6222 28.9128 44.6489 28.8333 44.4356C28.6742 43.9025 28.3827 44.0625 28.0116 44.1691C27.137 44.3823 26.5008 43.8492 26.6334 43.0229C27.4285 43.636 28.1706 43.1828 28.9128 42.8896C28.7803 42.8629 28.6477 42.8629 28.5152 42.8896C28.3827 42.9162 28.2502 42.9695 28.1441 43.0229C27.5875 43.2628 27.3225 43.1028 27.243 42.5164C27.137 41.85 27.402 41.4235 28.0381 41.1302C28.2767 41.0236 28.5947 41.0503 28.7007 40.757C26.9514 39.9574 26.9514 39.9307 27.19 38.0114C27.243 37.6382 27.1105 37.5316 26.7394 37.6382C25.8912 37.8781 25.7057 38.278 26.1298 39.0777C26.4478 39.6375 26.4478 40.1706 26.1298 40.7304C25.9973 40.9703 25.8382 41.2369 25.8647 41.5567C25.8647 41.69 25.9973 41.8766 25.7587 41.9566C25.5997 42.0099 25.4407 41.9299 25.3346 41.8233C25.0961 41.6634 24.9901 41.4235 24.9636 41.1302C24.9106 40.6238 24.566 40.3839 24.2214 40.7037C23.8239 41.0769 23.7709 40.757 23.6913 40.5438C23.4793 40.0107 23.7178 39.6641 24.301 39.5842C24.4335 39.5575 24.5925 39.6108 24.672 39.4775C24.7515 39.3443 24.6455 39.2909 24.566 39.1843C23.8239 38.2513 24.0094 37.6382 25.1491 37.3184C25.5732 37.2117 25.8647 36.9985 26.1033 36.6519C26.3418 36.3321 26.6334 36.0388 27.1105 36.0655C28.3297 36.1721 28.8863 37.1318 28.3827 38.2513C28.3297 38.358 28.2767 38.4646 28.2502 38.5712C27.8261 39.6108 28.4357 40.4105 29.5489 40.2506C29.8669 40.1973 30.2115 40.064 30.5296 40.1706C31.6693 40.5704 32.5439 39.984 33.4186 39.3976C33.8957 39.051 34.0282 38.6778 33.7366 38.1447C33.4981 37.7449 33.3391 37.2917 33.2331 36.8385C33.074 36.1188 33.2596 35.559 33.9222 35.3724C34.8498 35.1059 35.3004 34.7327 34.9824 33.6931C34.8498 33.2399 35.1679 33 35.645 33C36.1486 33 36.4136 33.2133 36.3871 33.7197C36.3606 34.0663 36.3341 34.3861 36.2546 34.706C36.2016 34.9726 36.2281 34.9992 36.5196 35.0526C38.2159 35.3991 38.534 36.0922 37.8184 37.6915C37.7654 37.8248 37.7124 37.9315 37.6328 38.0647C37.2088 38.6778 37.4738 39.0244 37.9774 39.4775C39.2761 40.6238 40.8134 40.3839 42.2712 40.1439C43.1988 39.984 43.3844 39.4242 43.0133 38.5446C42.9338 38.3313 42.8278 38.1447 42.7483 37.9315C42.5627 37.3717 42.4302 36.8652 43.1193 36.492C44.3916 35.7723 44.6566 35.7456 45.2397 36.5453C45.5313 36.9452 45.8758 37.1851 46.3529 37.3184C47.3601 37.5849 47.5456 38.278 46.9095 39.0777C46.8035 39.211 46.5914 39.3176 46.671 39.5042C46.7505 39.7441 46.989 39.6108 47.148 39.6108C47.4131 39.6108 47.6251 39.7174 47.7046 40.0107C47.7842 40.3039 47.7046 40.5971 47.5191 40.837C47.4396 40.9436 47.3071 40.9703 47.2541 40.837C47.042 40.1973 46.5384 40.6238 46.1674 40.4905C46.1674 40.837 46.2999 41.1302 46.1674 41.3968C46.0613 41.6367 45.8758 41.85 45.6108 41.8233C45.2927 41.7966 45.4782 41.5034 45.4517 41.3435C45.3987 41.1036 45.2927 40.8903 45.1602 40.6771C44.8421 40.1439 44.8156 39.6375 45.1867 39.1043C45.2927 38.9444 45.3987 38.7578 45.4252 38.5712C45.4782 38.278 45.4252 37.9581 45.1072 37.8248C44.7891 37.6915 44.4446 37.345 44.1265 37.5849C43.888 37.7715 44.153 38.1181 44.206 38.4113C44.206 38.4646 44.259 38.5446 44.259 38.5979C44.4711 39.4509 44.2855 39.8774 43.4639 40.2772C43.1458 40.4372 42.8013 40.5438 42.4567 40.6771C42.6952 41.0236 43.0133 41.0769 43.3314 41.2102C44.047 41.5034 44.3385 42.1165 44.0735 42.7829C43.9145 43.1828 43.7289 43.396 43.2784 43.1028C42.9338 42.8896 42.9073 42.9162 42.3772 42.9695C43.1458 43.2361 43.9145 43.6893 44.7891 43.1028C44.7626 44.0358 44.1795 44.4623 43.2518 44.2224C42.9338 44.1424 42.7483 44.1158 42.5627 44.4623C42.4037 44.7555 42.1917 44.7555 42.0591 44.3823C41.9266 44.0358 41.6351 43.8759 41.264 43.8492C39.5677 43.7426 38.8256 44.7289 38.8256 46.3016C38.8256 46.8081 39.1171 47.1813 39.6472 47.1546C40.2833 47.128 40.6809 47.1813 40.9724 47.981C41.1845 48.6207 41.37 49.0739 40.9724 49.6337C40.8664 49.7936 40.8134 49.9802 40.9989 50.1135C41.5025 50.4067 41.9531 50.1935 42.3507 49.8736C42.6952 49.607 42.7483 49.2605 42.4832 48.8606C41.6616 47.6344 41.6616 47.2346 42.7483 46.2749C43.5964 45.5286 44.259 44.5689 45.3722 44.0358C46.1409 43.6626 46.6179 42.6497 47.2541 41.9299C48.1552 40.9436 48.7648 39.7174 49.4009 38.5179C49.666 38.0114 49.9575 38.0647 50.2491 38.4646C50.6732 39.0244 50.6732 39.6641 50.5407 40.3305C50.4346 40.8637 50.1696 41.3168 49.931 41.7966C50.1696 41.6367 50.3551 41.4501 50.5407 41.2902C50.7527 41.1302 50.9117 40.8104 51.2033 40.917C51.5478 41.0503 51.5213 41.4235 51.5478 41.7433C51.6273 42.4364 51.3093 43.0228 50.9912 43.6359C51.3623 43.6893 51.7864 43.4494 51.9719 43.7959C52.1839 44.1957 51.9189 44.5689 51.7334 44.9155C51.6273 45.1287 51.3623 45.262 51.3093 45.5819C51.4418 45.5819 51.5213 45.6085 51.6008 45.6085C51.8659 45.6352 52.1839 45.5286 52.3165 45.8484C52.449 46.1417 52.237 46.4082 52.0514 46.6481C51.8129 46.9414 51.5478 47.2079 51.3093 47.5011C51.4418 47.5278 51.5478 47.5811 51.6804 47.6078C52.3695 47.821 52.4225 48.0876 51.9719 48.6474C51.7069 48.9673 51.3623 49.1538 50.9647 49.3938C51.2033 49.527 51.3623 49.607 51.5213 49.7136C52.0249 50.0335 52.0249 50.2468 51.5743 50.62C51.4683 50.6999 51.3623 50.8066 51.2298 50.8332C50.8057 50.9665 50.6467 51.1264 51.0442 51.5263C51.3888 51.8728 51.2563 52.1394 50.8322 52.326C50.5141 52.4593 50.1961 52.3793 49.8515 52.4859C50.5672 53.5522 50.5141 53.7388 49.2684 54.0853C48.9504 54.1653 49.0829 54.3785 49.0564 54.5651C48.9769 55.2049 48.6853 55.4714 48.0227 55.3915C47.8107 55.3648 47.6251 55.2848 47.4131 55.2049C47.2276 56.3511 46.9095 56.5644 45.9023 56.1112C45.5313 55.9246 45.6108 56.2178 45.5313 56.3511C45.0542 57.0442 44.2325 56.9909 43.835 56.2445C43.7554 56.1112 43.7819 55.9246 43.6494 55.8446C43.4109 56.2978 43.0928 56.6443 42.5627 56.5644C42.0061 56.4844 41.7676 56.0845 41.7676 55.4981C41.7676 55.2582 41.7411 54.9916 41.6351 54.7784C41.5025 54.4852 41.2375 54.2186 40.8929 54.4318C40.6014 54.5918 40.8664 55.9513 41.1845 56.1112C42.0591 56.5377 42.8543 57.0442 42.5627 58.2437C42.5097 58.457 42.6157 58.6436 42.8278 58.7235C43.2784 58.9101 43.0663 59.2833 42.8278 59.2567C42.1386 59.23 41.8206 59.8964 41.1315 59.9497C40.0713 60.0297 39.0906 60.1097 38.1099 59.6299C38.0039 59.5765 37.8449 59.4966 37.7654 59.7365C38.2159 60.003 38.3485 60.5895 38.6665 60.9094C39.2761 61.5225 40.0978 61.9223 40.8664 62.4021C41.0254 62.5088 41.211 62.4021 41.2905 62.1889C41.5025 61.6558 41.9796 61.5491 42.1652 62.0823C42.4832 63.0152 42.7218 64.0282 42.6687 65.0411C42.6422 65.3344 42.3507 65.5743 42.2447 65.8675C42.1121 66.3206 41.8471 66.294 41.6351 66.0008C41.37 65.6276 41.2375 65.8408 41.052 66.0807C40.6279 66.6139 40.0713 66.7738 39.4352 66.5872C39.1171 66.4806 38.9051 66.5339 38.6665 66.7738C38.2424 67.2003 37.7124 67.4136 37.1558 67.2803C36.7317 67.1736 36.4666 67.2803 36.1486 67.6002C35.6185 68.1333 35.3269 68.1333 34.7968 67.6002C34.5053 67.2803 34.2402 67.1736 33.7896 67.2803C33.2596 67.4136 32.756 67.227 32.3584 66.8538C32.0668 66.5872 31.8283 66.4806 31.4307 66.5872C30.9006 66.7471 30.344 66.5872 29.973 66.134C29.7344 65.8408 29.5754 65.7075 29.2573 66.0541C29.0453 66.294 28.8333 66.2407 28.7537 65.8941C28.7007 65.6809 28.5682 65.4943 28.4357 65.3077C28.1441 64.8545 28.1176 64.3481 28.4092 63.9216C28.5947 63.6283 28.6477 63.3884 28.5417 63.0685C28.3827 62.5088 28.7272 61.9223 29.2043 61.7624C29.4164 61.7091 29.6549 61.6024 29.6549 62.0023C29.6814 62.642 30.079 62.4554 30.397 62.2689C30.9271 61.9756 31.3512 61.5225 31.9078 61.2826C32.0668 61.2026 32.2789 61.1493 32.3054 60.9627C32.3849 60.4029 32.7825 60.0564 33.18 59.6832C32.7825 59.8964 32.4114 60.0297 31.9608 60.003C31.2717 59.9497 30.6091 60.0564 29.92 59.9764C29.3634 59.9231 29.3634 59.7898 29.4694 59.3899C29.2308 59.4166 29.0718 59.4699 28.8863 59.4699C28.6212 59.4433 28.3297 59.3633 28.2237 59.0967C28.1176 58.8035 28.4357 58.8302 28.5682 58.6969C28.7537 58.5369 28.7272 58.3237 28.7007 58.1371C28.5682 57.2841 28.9393 56.751 29.7079 56.3778C30.2645 56.1112 30.5561 55.0982 30.291 54.5651C30.185 54.3519 30.0525 54.4318 29.8935 54.4851C29.3103 54.6451 29.4694 55.1516 29.4694 55.5514C29.4694 56.1645 29.1778 56.591 28.5947 56.6443C28.0646 56.6976 27.6936 56.3778 27.5875 55.738C27.5345 55.8713 27.508 55.9513 27.455 56.0312C27.0839 57.0442 26.3418 57.2308 25.6527 56.3778C25.4141 56.0845 25.2286 56.2445 25.0166 56.3244C24.4865 56.511 24.0359 56.4577 23.8504 55.818C23.7443 55.4181 23.5853 55.3915 23.1878 55.4448C22.4456 55.5781 22.1806 55.3115 22.1541 54.5385C22.1276 54.2452 22.0746 54.1653 21.783 54.1386C20.8023 54.0586 20.6698 53.7388 21.1469 52.8591C21.1999 52.7525 21.3059 52.6992 21.2529 52.5126C21.1469 52.5126 21.0144 52.4859 20.8818 52.4859C20.0072 52.3793 19.8747 52.166 20.2987 51.393C20.4578 51.0998 20.2987 51.0465 20.1132 50.9665C19.7686 50.8066 19.3181 50.6466 19.3181 50.2468C19.2916 49.8203 19.7951 49.7136 20.1132 49.527C20.1397 49.5004 20.1397 49.4471 20.1927 49.3938C19.7421 49.0472 19.265 48.674 19 48.0876ZM37.8449 40.4372C35.539 38.8378 35.4064 39.2643 33.5246 40.4905C33.7366 40.5705 34.0017 40.3839 34.2667 40.5704C33.9222 40.837 34.0547 41.2902 33.8427 41.5301C33.4451 41.9832 33.7366 42.0632 34.0547 42.2232C34.3993 42.4097 34.8233 42.2765 35.1414 42.5164C35.0884 42.8629 34.5053 42.8096 34.7438 43.2894C35.0884 43.9292 35.3799 44.5956 35.7245 45.342C35.963 44.5689 36.2546 43.9025 36.6257 43.2628C36.6787 43.1561 36.7847 42.9962 36.6257 42.9162C35.751 42.3564 36.4666 42.4631 36.8377 42.3831C37.0232 42.3298 37.2353 42.2765 37.3943 42.1965C37.6859 42.0632 37.9509 41.9566 37.5533 41.6101C37.2883 41.3701 37.5533 40.8637 37.1823 40.6238C37.1292 40.5705 37.2618 40.4638 37.3943 40.4638C37.5268 40.4638 37.6858 40.5438 37.8449 40.4372ZM39.6207 55.9513C39.8857 55.2049 39.3822 55.1782 38.7725 55.2582C38.64 55.2848 38.5075 55.2582 38.375 55.2582C38.2424 55.2582 38.0834 55.2848 38.0569 55.4448C38.0039 55.6314 38.1364 55.7647 38.269 55.7913C38.693 55.8979 38.8521 56.1379 38.799 56.5644C38.746 56.9109 39.0376 56.8576 39.2496 56.8842C39.4882 56.9109 39.7002 56.8309 39.6737 56.511C39.6472 56.3778 39.6472 56.2178 39.6207 55.9513ZM32.4114 55.2582C31.8283 55.0716 31.5898 55.2848 31.6958 55.9513C31.7223 56.1112 31.6428 56.2978 31.6163 56.4844C31.5898 56.7243 31.6163 56.8842 31.9078 56.8842C32.1464 56.8842 32.4909 56.9642 32.4644 56.6177C32.4379 56.1379 32.5704 55.8979 33.021 55.7913C33.1535 55.7647 33.2331 55.6314 33.2331 55.4714C33.2065 55.3115 33.074 55.2848 32.9415 55.2848C32.7825 55.2582 32.6234 55.2582 32.4114 55.2582ZM36.7582 55.4181C36.5461 55.4981 36.1221 55.2848 36.0956 55.7647C36.0691 56.3244 36.6522 56.7243 37.5003 56.7243C37.6859 56.7243 37.7919 56.6976 37.7919 56.4844C37.7654 55.9513 37.2618 55.4181 36.7582 55.4181ZM34.4258 55.4181C34.0017 55.4448 33.4981 56.0579 33.4981 56.511C33.4981 56.8043 33.6571 56.7776 33.8427 56.751C34.6378 56.6976 34.9559 56.4044 34.9294 55.818C34.9294 55.4181 34.6643 55.4181 34.4258 55.4181Z" fill="black"/>
</svg>
