<svg width="200" height="100" viewBox="0 0 200 100" fill="none" xmlns="http://www.w3.org/2000/svg">
<path d="M79.0431 73.8139C79.4688 73.7433 80.069 73.6868 80.9066 73.6868C81.7581 73.6868 82.3653 73.8492 82.7701 74.1811C83.161 74.4918 83.4192 75.0073 83.4192 75.6076C83.4192 76.2149 83.2168 76.7233 82.8609 77.0694C82.3932 77.5143 81.6953 77.719 80.8787 77.719C80.6972 77.719 80.5367 77.712 80.411 77.6908V79.8941H79.0431V73.8139ZM80.4041 76.6174C80.5227 76.6457 80.6693 76.6527 80.8647 76.6527C81.5976 76.6527 82.0512 76.2784 82.0512 75.6499C82.0512 75.085 81.6604 74.746 80.9764 74.746C80.6972 74.746 80.5088 74.7743 80.4041 74.8025V76.6174Z" fill="#101010"/>
<path d="M90.301 76.7516C90.301 78.7713 89.0866 80 87.3068 80C85.4991 80 84.4382 78.6159 84.4382 76.8575C84.4382 75.0073 85.6038 73.6232 87.4045 73.6232C89.282 73.6303 90.301 75.0497 90.301 76.7516ZM85.8969 76.8363C85.8969 78.0439 86.4553 78.8984 87.3836 78.8984C88.3118 78.8984 88.8493 78.0015 88.8493 76.801C88.8493 75.6923 88.3258 74.739 87.3766 74.739C86.4413 74.739 85.8969 75.6358 85.8969 76.8363Z" fill="#101010"/>
<path d="M96.1359 79.7246C95.8846 79.8517 95.3123 80 94.5725 80C92.4647 80 91.3828 78.6653 91.3828 76.9069C91.3828 74.8025 92.8625 73.6303 94.7121 73.6303C95.424 73.6303 95.9684 73.7786 96.2127 73.9057L95.9335 75.0144C95.6543 74.8943 95.2634 74.7884 94.7749 74.7884C93.6791 74.7884 92.8276 75.4593 92.8276 76.8293C92.8276 78.0651 93.5535 78.8419 94.7819 78.8419C95.2006 78.8419 95.6613 78.7501 95.9335 78.6371L96.1359 79.7246Z" fill="#101010"/>
<path d="M98.5717 77.9591L97.9366 79.9011H97.12L99.1929 73.7291H100.142L102.222 79.9011H101.377L100.728 77.9591H98.5717ZM100.575 77.3377L99.9746 75.5652C99.842 75.1627 99.7513 74.7955 99.6605 74.4424H99.6396C99.5489 74.8096 99.4511 75.1839 99.3325 75.5581L98.7392 77.3448H100.575V77.3377Z" fill="#101010"/>
<path d="M104.037 74.4071H102.18V73.7291H106.696V74.4071H104.832V79.9011H104.037V74.4071Z" fill="#101010"/>
<path d="M112.796 76.7516C112.796 78.8772 111.519 80 109.962 80C108.35 80 107.219 78.7359 107.219 76.8716C107.219 74.9155 108.42 73.6303 110.053 73.6303C111.721 73.6303 112.796 74.9226 112.796 76.7516ZM108.064 76.8504C108.064 78.171 108.769 79.3503 110.011 79.3503C111.26 79.3503 111.965 78.1851 111.965 76.7869C111.965 75.5581 111.33 74.28 110.018 74.28C108.713 74.28 108.064 75.5016 108.064 76.8504Z" fill="#101010"/>
<path d="M119.406 77.1894C119.357 76.3279 119.308 75.2969 119.315 74.5271H119.287C119.078 75.2474 118.826 76.0313 118.519 76.8716L117.444 79.8658H116.844L115.86 76.9281C115.574 76.0595 115.33 75.2615 115.155 74.5271H115.134C115.113 75.2969 115.071 76.3279 115.015 77.253L114.855 79.9011H114.108L114.534 73.7291H115.539L116.579 76.7163C116.83 77.4789 117.04 78.1569 117.193 78.7924H117.221C117.375 78.171 117.591 77.4931 117.863 76.7163L118.945 73.7291H119.95L120.327 79.9011H119.559L119.406 77.1894Z" fill="#101010"/>
<path d="M103.346 46.1458C101.524 48.1867 98.4182 48.342 96.4011 46.4989C94.391 44.6487 94.2375 41.4921 96.0521 39.4513C97.8738 37.4104 100.98 37.255 102.997 39.1052C105.007 40.9484 105.167 44.105 103.346 46.1458Z" fill="#101010"/>
<path d="M88.3118 42.9751C88.3118 42.9751 91.0478 41.5627 92.6322 35.2919C94.2165 29.021 100.128 26.1045 100.128 26.1045C100.128 26.1045 87.4464 13.3721 77.8426 33.3499C77.8426 33.3499 85.6736 34.9035 88.3118 42.9751Z" fill="#101010"/>
<path d="M89.4704 21.1966C89.4704 21.1966 99.2487 19.2546 105.035 31.648C105.035 31.648 111.784 33.8583 117.717 27.5169C117.717 27.5169 107.792 13.7817 89.4704 21.1966Z" fill="#101010"/>
<path d="M105.412 52.3602C105.412 52.3602 102.836 50.6654 96.6733 52.4167C90.5174 54.168 85.0664 50.4465 85.0664 50.4465C85.0664 50.4465 80.5157 67.9314 102.417 66.3496C102.417 66.3496 99.828 58.7158 105.412 52.3602Z" fill="#101010"/>
<path d="M86.204 62.2467C86.204 62.2467 79.6503 54.6553 87.3626 43.3847C87.3626 43.3847 85.876 36.3653 77.4797 34.3385C77.4797 34.3385 70.6886 49.8956 86.204 62.2467Z" fill="#101010"/>
<path d="M104.93 32.7567C104.93 32.7567 104.77 35.8639 109.348 40.3834C113.927 44.903 113.473 51.541 113.473 51.541C113.473 51.541 130.712 46.7885 118.407 28.3855C118.401 28.3855 113.159 34.4727 104.93 32.7567Z" fill="#101010"/>
<path d="M123 44.6487C123 44.6487 119.782 54.1892 106.277 53.0664C106.277 53.0664 101.015 57.8754 103.478 66.2507C103.478 66.2507 120.187 64.4147 123 44.6487Z" fill="#101010"/>
</svg>
