<svg width="200" height="100" viewBox="0 0 200 100" fill="none" xmlns="http://www.w3.org/2000/svg">
<path fill-rule="evenodd" clip-rule="evenodd" d="M62.8121 46.5904H68.8857C68.7287 45.6763 68.425 44.9321 67.9799 44.3526C67.5349 43.7732 66.9642 43.3137 66.2626 42.984C65.5609 42.6494 64.7284 42.4096 63.7598 42.2647C62.7912 42.1149 61.7073 42.03 60.5031 42C57.9532 42.03 56.0159 42.4046 54.6965 43.1289C53.3718 43.8531 52.6021 44.7522 52.3875 45.8262C52.1885 46.9001 52.3456 47.7493 52.8482 48.3836C53.3509 49.013 54.0734 49.5225 55.0106 49.9071C55.9479 50.2917 57.0212 50.5864 58.2255 50.8012C59.4297 51.011 60.634 51.2258 61.8382 51.4406C62.3932 51.5704 62.7755 51.7652 62.9954 52.015C63.21 52.2697 63.2781 52.5195 63.1891 52.7642C63.1001 53.009 62.8802 53.2288 62.5241 53.4186C62.1681 53.6084 61.7021 53.6933 61.1314 53.6783C60.5188 53.6783 59.9062 53.5734 59.2936 53.3636C58.681 53.1538 58.2778 52.7493 58.0789 52.1548H52C52 53.024 52.2461 53.7682 52.7383 54.3826C53.2304 54.997 53.8954 55.5015 54.7227 55.8811C55.5499 56.2657 56.5081 56.5504 57.5972 56.7303C58.681 56.9101 59.8015 57 60.9429 57C62.0477 57 63.1263 56.8851 64.1734 56.6653C65.2206 56.4406 66.1421 56.1159 66.9432 55.6963C67.7443 55.2767 68.3779 54.7522 68.8543 54.1179C69.3308 53.4885 69.5455 52.7742 69.5036 51.975C69.446 51.3207 69.2365 50.7612 68.8805 50.2917C68.5245 49.8222 68.0271 49.4126 67.383 49.0729C66.739 48.7333 65.9746 48.4436 65.0897 48.2038C64.1996 47.964 63.2048 47.7493 62.1 47.5644C61.5869 47.4795 61.011 47.3846 60.3669 47.2947C59.7229 47.1998 59.2046 47.0799 58.8119 46.9351C58.5344 46.8352 58.3511 46.7053 58.2621 46.5554C58.1731 46.4056 58.1731 46.2458 58.2621 46.0859C58.3511 45.9261 58.5239 45.7862 58.7805 45.6613C59.037 45.5365 59.3721 45.4615 59.7858 45.4316C60.5973 45.3866 61.2885 45.4466 61.8592 45.6064C62.4351 45.7712 62.7545 46.0959 62.8121 46.5904Z" fill="#101010"/>
<path fill-rule="evenodd" clip-rule="evenodd" d="M82.1535 47.8292H88.1067C88.0648 47.3646 87.913 46.8002 87.6459 46.1309C87.3789 45.4615 86.8972 44.8272 86.1956 44.2178C85.494 43.6084 84.5149 43.0889 83.2635 42.6494C82.0121 42.2198 80.368 42 78.3313 42C77.0275 42 75.7919 42.1499 74.6295 42.4446C73.4619 42.7443 72.4461 43.2038 71.577 43.8232C70.7078 44.4476 70.0167 45.2418 69.5036 46.2158C68.9905 47.1898 68.7339 48.3487 68.7339 49.6973C68.7339 51.9001 69.5821 53.6284 71.2785 54.8721C72.975 56.1209 75.3835 56.7702 78.5041 56.8302C79.8654 56.8751 81.1325 56.7502 82.2948 56.4605C83.4625 56.1708 84.4834 55.7562 85.3631 55.2218C86.2427 54.6873 86.9496 54.0579 87.4784 53.3387C88.0124 52.6194 88.3161 51.8551 88.3947 51.046H82.1535C82.0331 51.5105 81.8498 51.8901 81.6037 52.1898C81.3576 52.4895 81.0749 52.7243 80.7607 52.8991C80.4466 53.0739 80.1115 53.1938 79.7554 53.2587C79.3994 53.3237 79.0643 53.3586 78.7502 53.3586C77.9229 53.3586 77.237 53.1688 76.7082 52.7842C76.1793 52.3996 75.7762 51.9201 75.5091 51.3357C75.2421 50.7512 75.1164 50.1269 75.1217 49.4426C75.1322 48.7632 75.2683 48.1289 75.5353 47.5495C75.8023 46.97 76.1846 46.4855 76.6767 46.1009C77.1689 45.7163 77.7815 45.5265 78.5145 45.5265C78.6716 45.5265 78.902 45.5315 79.1952 45.5365C79.4936 45.5415 79.813 45.6114 80.1586 45.7413C80.5042 45.8711 80.855 46.0959 81.211 46.4156C81.5618 46.7353 81.876 47.2048 82.1535 47.8292Z" fill="#101010"/>
<path fill-rule="evenodd" clip-rule="evenodd" d="M92.1069 42.4795L85.1746 56.5704H91.6618L92.2849 54.7423H98.5366L99.1596 56.5704H105.647L98.7722 42.4795H92.1069ZM93.4996 51.8102L95.3636 47.2198L97.259 51.8102H93.4996Z" fill="#101010"/>
<path fill-rule="evenodd" clip-rule="evenodd" d="M103.537 42.4795V56.5704H109.61V51.3506L109.432 49.048L116.098 56.5704H122.171V42.4795H115.862V47.5245L116.098 49.8072L109.432 42.4795H103.537Z" fill="#101010"/>
<path fill-rule="evenodd" clip-rule="evenodd" d="M123.355 42.4795V56.5704H129.779V42.4795H123.355Z" fill="#101010"/>
<path fill-rule="evenodd" clip-rule="evenodd" d="M134.46 42.4795L127.528 56.5754H134.015L134.638 54.7473H140.89L141.513 56.5754H148L141.125 42.4795H134.46ZM135.853 51.8102L137.717 47.2198L139.612 51.8102H135.853Z" fill="#101010"/>
</svg>
