<svg width="153" height="153" viewBox="0 0 153 153" fill="none" xmlns="http://www.w3.org/2000/svg">
<path fill-rule="evenodd" clip-rule="evenodd" d="M152.439 82.3166H0.845215C1.08274 85.578 1.52609 88.7823 2.16231 91.9166H151.122C151.758 88.7823 152.201 85.578 152.439 82.3166ZM147.931 103.117H5.35264C6.58078 106.432 8.03356 109.638 9.69249 112.717H143.592C145.251 109.638 146.703 106.432 147.931 103.117ZM136.212 123.917H17.0718C19.8145 127.373 22.8518 130.586 26.1457 133.517H127.138C130.432 130.586 133.47 127.373 136.212 123.917ZM110.62 144.717H42.6637C52.8886 149.836 64.4289 152.717 76.642 152.717C88.8552 152.717 100.395 149.836 110.62 144.717ZM152.439 71.1166H0.845215C1.08274 67.8551 1.52609 64.6508 2.16231 61.5166H151.122C151.758 64.6508 152.201 67.8551 152.439 71.1166ZM147.931 50.3166C146.703 47.0014 145.251 43.7952 143.592 40.7166H9.69249C8.03356 43.7952 6.58078 47.0014 5.35264 50.3166H147.931ZM17.0718 29.5166H136.212C133.47 26.0596 130.432 22.847 127.138 19.9166H26.1457C22.8518 22.847 19.8145 26.0596 17.0718 29.5166ZM42.6637 8.71655H110.62C100.395 3.59737 88.8552 0.716553 76.642 0.716553C64.4289 0.716553 52.8886 3.59737 42.6637 8.71655Z" fill="#F93822"/>
</svg>
