<svg width="144" height="44" viewBox="0 0 144 44" fill="none" xmlns="http://www.w3.org/2000/svg">
<g clip-path="url(#clip0_608_2929)">
<circle cx="22.316" cy="21.7377" r="20" fill="#FF3300"/>
<path fill-rule="evenodd" clip-rule="evenodd" d="M12.116 11.5477C18.4018 7.80815 26.2301 7.80815 32.516 11.5477C36.2446 17.8366 36.2446 25.6588 32.516 31.9477C26.2301 35.6873 18.4018 35.6873 12.116 31.9477C8.38216 25.6674 8.38216 17.848 12.116 11.5677V11.5477Z" fill="#FF6633"/>
<rect x="16.316" y="15.7377" width="12" height="12" fill="white"/>
<path fill-rule="evenodd" clip-rule="evenodd" d="M84.316 8.7377H88.316V28.7377H84.316V8.7377ZM81.316 24.6477C80.9473 25.5235 80.4105 26.3185 79.736 26.9877C77.5841 29.106 74.3708 29.725 71.586 28.5577C70.7091 28.1902 69.9112 27.6571 69.236 26.9877C68.5585 26.3188 68.0183 25.5239 67.646 24.6477C66.8856 22.7822 66.8856 20.6932 67.646 18.8277C68.0183 17.9515 68.5585 17.1566 69.236 16.4877C69.9112 15.8183 70.7091 15.2852 71.586 14.9177C74.3743 13.7858 77.5677 14.401 79.736 16.4877C80.4105 17.157 80.9473 17.9519 81.316 18.8277C82.0893 20.6906 82.0893 22.7848 81.316 24.6477ZM64.836 18.8277H64.796C65.503 20.7033 65.503 22.7721 64.796 24.6477C64.4658 25.5105 63.9775 26.3041 63.356 26.9877C62.7555 27.6453 62.0318 28.1787 61.226 28.5577C59.6399 29.2564 57.8412 29.296 56.226 28.6677C55.509 28.3889 54.8584 27.9631 54.316 27.4177V34.3277H50.316V14.7377H54.316V16.0577C54.8846 15.5016 55.5669 15.0751 56.316 14.8077C57.9312 14.1794 59.7299 14.219 61.316 14.9177C62.1039 15.3023 62.8102 15.8354 63.396 16.4877C64.0175 17.1713 64.5058 17.9649 64.836 18.8277ZM92.316 30.3998C92.7804 30.3908 93.2416 30.3161 93.686 30.1777C94.1162 30.0361 94.4998 29.7804 94.796 29.4377C95.1289 29.0353 95.3834 28.574 95.546 28.0777L89.976 14.7377H94.586L97.686 23.2977L100.316 14.7377H104.796L100.016 28.2477C99.5954 29.5404 98.9562 30.7513 98.126 31.8277C97.4449 32.7144 96.5408 33.4045 95.506 33.8277C94.4854 34.2047 93.4013 34.376 92.316 34.3329V30.3998ZM60.736 23.5477V23.5577C60.4622 24.0547 60.053 24.4639 59.556 24.7377C58.4778 25.298 57.1942 25.298 56.116 24.7377C55.6196 24.471 55.2127 24.0641 54.946 23.5677C54.6444 23.006 54.4961 22.3749 54.516 21.7377C54.4979 21.1039 54.6462 20.4764 54.946 19.9177C55.2111 19.4176 55.6182 19.0071 56.116 18.7377C57.1942 18.1774 58.4778 18.1774 59.556 18.7377C60.0516 19.0088 60.4607 19.4144 60.736 19.9077C61.3088 21.0534 61.3088 22.402 60.736 23.5477ZM76.176 18.8477C76.6565 19.1163 77.0516 19.5149 77.316 19.9977C77.8885 21.0871 77.8885 22.3884 77.316 23.4777C77.0516 23.9605 76.6565 24.3591 76.176 24.6277C75.1508 25.1735 73.9212 25.1735 72.896 24.6277C72.4141 24.3576 72.0161 23.9596 71.746 23.4777C71.1734 22.3884 71.1734 21.0871 71.746 19.9977C72.0161 19.5158 72.4141 19.1178 72.896 18.8477C73.9212 18.3019 75.1508 18.3019 76.176 18.8477ZM110.316 8.7377H106.316V28.7377H110.316V8.7377ZM127.156 24.6477C126.787 25.5235 126.251 26.3185 125.576 26.9877C123.424 29.106 120.211 29.725 117.426 28.5577C116.549 28.1902 115.751 27.6571 115.076 26.9877C114.395 26.3216 113.855 25.5259 113.486 24.6477C112.713 22.7848 112.713 20.6906 113.486 18.8277C113.855 17.9495 114.395 17.1538 115.076 16.4877C115.751 15.8183 116.549 15.2852 117.426 14.9177C120.214 13.7858 123.408 14.401 125.576 16.4877C126.251 17.157 126.787 17.9519 127.156 18.8277C127.929 20.6906 127.929 22.7848 127.156 24.6477ZM122.016 18.8477C122.494 19.1193 122.889 19.5171 123.156 19.9977C123.729 21.0871 123.729 22.3884 123.156 23.4777C122.889 23.9583 122.494 24.3561 122.016 24.6277C120.991 25.1735 119.761 25.1735 118.736 24.6277C118.254 24.3576 117.856 23.9596 117.586 23.4777C117.013 22.3884 117.013 21.0871 117.586 19.9977C117.856 19.5158 118.254 19.1178 118.736 18.8477C119.761 18.3019 120.991 18.3019 122.016 18.8477ZM140.236 14.7377H144.326V28.0277C144.339 28.8788 144.2 29.7254 143.916 30.5277C143.67 31.2219 143.289 31.8608 142.796 32.4077C142.328 32.9383 141.769 33.3818 141.146 33.7177C140.516 34.0594 139.844 34.3151 139.146 34.4777C138.424 34.6381 137.686 34.7186 136.946 34.7177C136.023 34.7258 135.104 34.6012 134.216 34.3477C133.405 34.1132 132.642 33.7337 131.966 33.2277C131.288 32.7181 130.725 32.0705 130.316 31.3277L133.896 29.2477C134.065 29.5762 134.285 29.8765 134.546 30.1377C134.829 30.4206 135.17 30.6389 135.546 30.7777C136.039 30.9414 136.556 31.0225 137.076 31.0177C137.657 31.0285 138.234 30.9125 138.766 30.6777C139.226 30.4674 139.607 30.1175 139.856 29.6777C140.124 29.1665 140.255 28.5946 140.236 28.0177V26.7377C139.782 27.3201 139.196 27.7863 138.526 28.0977C137.782 28.4332 136.972 28.5972 136.156 28.5777C134.291 28.5989 132.503 27.8371 131.226 26.4777C130.608 25.822 130.119 25.0552 129.786 24.2177C129.106 22.4542 129.106 20.5012 129.786 18.7377C130.116 17.8896 130.604 17.1123 131.226 16.4477C132.503 15.0883 134.291 14.3266 136.156 14.3477C136.972 14.3282 137.782 14.4923 138.526 14.8277C139.193 15.1305 139.778 15.5862 140.236 16.1577V14.7377ZM139.796 23.1377V23.1477C139.515 23.6263 139.106 24.0175 138.616 24.2777C137.503 24.825 136.199 24.825 135.086 24.2777C134.596 24.0175 134.187 23.6263 133.906 23.1477C133.319 22.0905 133.319 20.8049 133.906 19.7477C134.187 19.2691 134.596 18.8779 135.086 18.6177C136.199 18.0704 137.503 18.0704 138.616 18.6177C139.105 18.8752 139.513 19.2628 139.796 19.7377C140.383 20.7949 140.383 22.0805 139.796 23.1377Z" fill="black" fill-opacity="0.87"/>
<circle cx="112.5" cy="23.5" r="5.5" fill="#FFCC00" fill-opacity="0.4"/>
<circle cx="22.65" cy="21.9027" r="22" fill="url(#paint0_radial_608_2929)" style="mix-blend-mode:luminosity"/>
<circle cx="22.65" cy="21.9027" r="22" fill="url(#paint1_radial_608_2929)" style="mix-blend-mode:screen"/>
<path fill-rule="evenodd" clip-rule="evenodd" d="M14.6634 5.94332C11.1309 7.09831 8.05889 11.0253 7.24518 13.7846C10.4039 15.0087 13.2657 17.8075 14.6634 21.267C16.1314 16.7821 19.4874 13.5208 22.9954 12.2988C21.0635 8.8671 18.2551 6.69687 15.4097 6.07427C15.1559 6.01876 14.9066 5.97508 14.6634 5.94332Z" fill="white" fill-opacity="0.16"/>
</g>
<defs>
<radialGradient id="paint0_radial_608_2929" cx="0" cy="0" r="1" gradientUnits="userSpaceOnUse" gradientTransform="translate(18.405 14.3848) rotate(90) scale(30.4828)">
<stop stop-color="#FFF7F5"/>
<stop offset="0.12608" stop-color="#F4EAE8" stop-opacity="0.8"/>
<stop offset="0.23824" stop-color="#D6C7C5" stop-opacity="0.8"/>
<stop offset="0.38736" stop-color="#AC9391" stop-opacity="0.8"/>
<stop offset="0.62432" stop-color="#7F524F"/>
<stop offset="1" stop-color="#661400" stop-opacity="0.8"/>
</radialGradient>
<radialGradient id="paint1_radial_608_2929" cx="0" cy="0" r="1" gradientUnits="userSpaceOnUse" gradientTransform="translate(21.3404 19.8217) rotate(46.9761) scale(25.3758)">
<stop stop-color="white" stop-opacity="0.01"/>
<stop offset="0.726859" stop-color="white" stop-opacity="0.01"/>
<stop offset="1" stop-color="white" stop-opacity="0.64"/>
</radialGradient>
<clipPath id="clip0_608_2929">
<rect width="144" height="44" fill="white"/>
</clipPath>
</defs>
</svg>
