<svg xmlns="http://www.w3.org/2000/svg" width="143" height="40" viewBox="0 0 143 40"><g fill="none" fill-rule="evenodd"><path fill="#292C30" d="M90 28.662a4.93 4.93 0 001.37-.222 2.5 2.5 0 001.11-.74 4.17 4.17 0 00.75-1.36L87.66 13h4.61l3.1 8.56L98 13h4.48L97.7 26.51a11.88 11.88 0 01-1.89 3.58 6.32 6.32 0 01-2.62 2 8.26 8.26 0 01-3.19.505v-3.933zM62.52 17.09h-.04a8.25 8.25 0 010 5.82 7.42 7.42 0 01-1.44 2.34 6.81 6.81 0 01-2.13 1.57 6.53 6.53 0 01-5 .11A5.51 5.51 0 0152 25.68v6.91h-4V13h4v1.32a5.51 5.51 0 012-1.25 6.53 6.53 0 015 .11 6.81 6.81 0 012.08 1.57 7.42 7.42 0 011.44 2.34zm-4.1 4.73v-.01a4.07 4.07 0 000-3.64A3 3 0 0057.24 17a3.73 3.73 0 00-3.44 0 2.87 2.87 0 00-1.17 1.18A3.63 3.63 0 0052.2 20a3.63 3.63 0 00.43 1.83A2.87 2.87 0 0053.8 23a3.73 3.73 0 003.44 0 3 3 0 001.18-1.18zM79 17.09a7.59 7.59 0 010 5.82 7.27 7.27 0 01-1.58 2.34 7.49 7.49 0 01-8.15 1.57 7.4 7.4 0 01-3.94-3.91 7.71 7.71 0 010-5.82 7.4 7.4 0 013.94-3.91 7.62 7.62 0 018.15 1.57A7.27 7.27 0 0179 17.09zm-4 4.65a3.74 3.74 0 000-3.48 2.93 2.93 0 00-1.14-1.15 3.49 3.49 0 00-3.28 0 3 3 0 00-1.15 1.15 3.74 3.74 0 000 3.48 3 3 0 001.15 1.15 3.49 3.49 0 003.28 0A2.93 2.93 0 0075 21.74zM82 27V7h4v20h-4zm22 0V7h4v20h-4zm20.84-9.91a7.59 7.59 0 010 5.82 7.27 7.27 0 01-1.58 2.34 7.49 7.49 0 01-8.15 1.57 7.4 7.4 0 01-2.35-1.57 7.14 7.14 0 01-1.59-2.34 7.59 7.59 0 010-5.82 7.14 7.14 0 011.59-2.34 7.4 7.4 0 012.35-1.57 7.62 7.62 0 018.15 1.57 7.27 7.27 0 011.58 2.34zm-4 4.65a3.74 3.74 0 000-3.48 3 3 0 00-1.14-1.15 3.49 3.49 0 00-3.28 0 3 3 0 00-1.15 1.15 3.74 3.74 0 000 3.48 3 3 0 001.15 1.15 3.49 3.49 0 003.28 0 3 3 0 001.14-1.15zM137.92 13h4.09v13.29a7.16 7.16 0 01-.41 2.5 5.6 5.6 0 01-1.12 1.88 6 6 0 01-1.65 1.31 8 8 0 01-2 .76c-.722.16-1.46.24-2.2.24a9.63 9.63 0 01-2.73-.37 7 7 0 01-2.25-1.12 6 6 0 01-1.65-1.9l3.58-2.08c.17.329.389.629.65.89a2.78 2.78 0 001 .64 4.72 4.72 0 001.53.24 4 4 0 001.69-.34 2.4 2.4 0 001.09-1 3.34 3.34 0 00.38-1.66V25a4.66 4.66 0 01-1.71 1.36 5.45 5.45 0 01-2.37.48 6.66 6.66 0 01-4.93-2.1 7.14 7.14 0 01-1.44-2.26 7.62 7.62 0 010-5.48 7.14 7.14 0 011.44-2.29 6.66 6.66 0 014.93-2.1 5.45 5.45 0 012.37.48 4.66 4.66 0 011.71 1.33V13zm-.44 8.41v-.01a3.5 3.5 0 000-3.4 3 3 0 00-1.18-1.12 4 4 0 00-3.53 0 3 3 0 00-1.18 1.13 3.5 3.5 0 000 3.4 3 3 0 001.18 1.13 4 4 0 003.53 0 3 3 0 001.18-1.13z"/><circle cx="20" cy="20" r="20" fill="#F30" fill-rule="nonzero"/><path fill="#F63" d="M9.8 9.81a19.95 19.95 0 0120.4 0 20 20 0 010 20.4 19.95 19.95 0 01-20.4 0 19.94 19.94 0 010-20.38v-.02z"/><path fill="#FFF" fill-rule="nonzero" d="M14 14h12v12H14z"/></g></svg>